<svg width="483" height="266" viewBox="0 0 483 266" fill="none" xmlns="http://www.w3.org/2000/svg">
<path d="M482.684 164.373C477.043 154.58 476.743 143.061 475.36 132.11C474.713 126.971 474.037 121.642 472.073 116.819C470.089 111.946 466.71 108.909 461.924 106.926C449.987 101.986 437.729 97.7186 425.653 93.1348C423.458 92.3032 421.171 91.2919 418.828 90.4836C418.808 90.3439 418.791 90.2042 418.771 90.0678C418.468 87.8025 415.874 87.9189 414.692 89.3559C413.072 89.0532 411.438 88.9401 409.804 89.1431C408.484 89.3061 407.266 89.7085 406.171 90.294C403.92 88.0221 399.048 88.2117 396.292 88.1119C390.652 87.9056 385.081 88.7771 379.741 90.457C374.252 90.4337 368.767 90.6832 363.345 91.2853C357.919 91.8874 358.345 95.9289 360.622 100.4C348.493 109.391 339.06 121.875 330.014 133.907C329.02 135.227 330.136 137.03 331.45 137.466C334.469 138.464 337.209 139.788 339.734 141.384C339.862 142.861 340.212 144.348 340.46 145.675C341.077 148.949 341.918 152.179 342.978 155.335C344.602 160.162 346.714 164.799 349.268 169.19C348.945 169.133 348.622 169.08 348.298 169.03C346.912 168.824 345.856 169.369 345.341 170.723C344.034 174.166 342.225 177.423 339.971 180.327C339.13 181.411 339.027 182.665 339.971 183.753C344.526 188.989 349.641 193.726 355.203 197.857C354.536 198.532 353.988 199.337 353.618 200.265C352.176 203.864 354.004 207.587 356.113 210.481C358.255 213.421 360.605 216.438 364.015 217.912C367.559 219.445 371.467 219.173 375.223 218.92C379.444 218.637 383.784 218.215 387.989 218.913C392.065 219.592 395.335 222.013 399.243 223.098C406.332 225.067 413.296 218.946 417.362 213.651C417.428 213.564 417.488 213.474 417.554 213.385C418.705 213.451 419.854 213.444 420.989 213.345C429.122 212.633 437.006 208.901 444.138 205.102C450.769 201.569 458.178 197.574 460.67 189.943C460.696 189.864 460.72 189.784 460.743 189.704C465.617 186.797 470.099 183.034 472.476 177.832C473.908 174.695 474.337 171.508 474.126 168.342C476.832 169.626 479.951 169.626 482.307 167.307C483.07 166.555 483.215 165.291 482.684 164.37V164.373ZM407.247 104.894L407.372 97.8084C407.388 96.9568 407.471 96.0354 407.497 95.114C409.421 93.5306 412.118 93.7235 414.534 94.3156C414.999 97.7751 415.464 101.235 415.93 104.694C416.293 107.385 416.352 110.535 417.088 113.329C415.603 112.621 414.134 111.872 412.732 111.008C410.827 109.833 408.725 108.017 407.213 105.898C407.23 105.559 407.243 105.223 407.247 104.897V104.894ZM410.058 116.915C409.91 115.848 409.487 114.976 409.006 114.124C411.758 116.03 414.808 117.584 417.583 118.865C421.63 120.731 425.28 122.916 428.755 125.554C429.214 126.346 429.534 127.244 429.65 128.308C430.009 131.675 429.435 135.29 429.927 138.527C427.861 137.995 425.795 137.473 423.739 136.94C418.075 135.47 412.293 133.584 406.51 132.679C403.408 132.194 401.52 133.338 400.019 135.154C398.87 134.402 397.751 133.604 396.659 132.776C399.448 130.437 402.563 128.654 405.428 126.396C408.296 124.137 410.596 120.747 410.058 116.919V116.915ZM440.765 170.158C440.462 170.244 440.158 170.344 439.858 170.457C437.402 171.382 435.181 172.866 432.821 174.003C423.108 178.687 412.253 180.536 401.547 179.725C400.517 179.648 399.781 180.283 399.425 181.115C399.141 180.736 398.847 180.363 398.55 179.994C412.039 177.303 425.217 173.301 437.94 168.036C438.729 167.71 439.307 167.101 439.557 166.402C440.135 166.955 440.597 167.557 440.779 168.179C440.765 168.704 440.752 169.23 440.736 169.759C440.736 169.902 440.746 170.035 440.765 170.165V170.158ZM433.108 155.894C432.59 154.614 432.204 153.293 431.788 151.906C430.653 148.134 428.356 145.349 424.772 143.72C421.402 142.186 417.729 141.737 414.134 141.035C410.643 140.353 407.355 139.202 404.22 137.606C406.042 136.804 409.722 138.387 411.362 138.793C416.917 140.17 422.461 141.591 427.993 143.061C429.693 143.51 431.386 143.976 433.082 144.435C433.346 144.654 433.627 144.87 433.93 145.08C436.138 146.574 438.821 147.359 441.369 148.3C441.425 149.298 441.231 150.529 441.214 151.207C441.125 154.604 441.039 157.996 440.95 161.393C438.448 159.424 435.821 157.557 433.105 155.891L433.108 155.894ZM387.692 143.44C389.266 140.819 391.104 138.381 393.17 136.145C394.54 137.22 395.946 138.244 397.398 139.206C397.332 139.322 397.263 139.435 397.197 139.552C395.2 142.938 392.457 145.855 389.24 148.08C388.223 148.08 387.206 148.08 386.193 148.067C385.754 148.064 385.315 148.051 384.876 148.044C385.926 146.6 386.777 144.964 387.695 143.437L387.692 143.44ZM383.137 141.677C381.441 144.601 379.817 148.237 375.774 147.102C372.414 146.158 370.526 142.871 369.054 139.937C368.526 138.886 367.919 137.745 367.401 136.564C367.45 136.325 367.5 136.082 367.543 135.839C367.949 133.537 368.219 131.206 368.322 128.867C368.351 128.179 368.361 127.49 368.365 126.801C370.107 124.826 372.579 123.442 374.843 122.244C375.579 121.855 376.305 121.466 377.025 121.073C380.979 125.285 385.134 129.339 389.457 133.068C389.325 133.215 389.187 133.351 389.055 133.497C386.82 136.016 384.82 138.76 383.134 141.677H383.137ZM400.758 142.944C401.009 142.555 401.24 142.11 401.464 141.644C402.009 141.933 402.56 142.213 403.118 142.475C407.293 144.461 411.57 145.463 416.082 146.297C420.455 147.109 425.319 148.024 426.993 152.701C421.689 150.429 416.032 149.191 410.243 148.599C405.732 148.137 401.203 148.054 396.672 148.054C398.19 146.507 399.563 144.801 400.758 142.941V142.944ZM401.035 95.1838C401.524 94.5418 401.54 93.8632 401.293 93.2645C401.6 93.3277 401.87 93.4208 402.062 93.5639C402.24 93.7002 402.342 93.6637 402.438 93.6903C401.662 94.8512 401.095 96.1817 400.778 97.6287C399.956 101.398 400.672 104.614 402.306 107.368C402.326 108.45 402.385 109.521 402.51 110.578C402.689 112.089 403.114 113.492 403.867 114.813C404.86 116.563 405.85 117.757 404.887 119.819C403.388 123.026 399.197 124.676 396.504 126.698C395.25 127.64 394.042 128.638 392.877 129.682C388.863 126.186 385.154 122.311 381.47 118.502C381.447 118.479 381.427 118.455 381.404 118.432C382.622 117.594 383.791 116.672 384.89 115.611C387.725 112.877 390.048 109.654 392.424 106.524C395.296 102.745 398.164 98.9626 401.035 95.1838ZM380.187 95.3734C380.187 95.3734 380.206 95.3734 380.216 95.3734C384.962 95.3834 389.702 95.5896 394.431 95.9689C392.378 98.6732 390.325 101.374 388.272 104.079C385.665 107.512 383.061 111.107 379.668 113.808C379.16 114.214 378.629 114.593 378.081 114.959C375.866 112.611 373.691 110.226 371.639 107.731C370.101 105.862 368.638 103.929 367.289 101.916C367.252 101.86 367.216 101.803 367.176 101.747C371.256 99.1223 375.602 96.9269 380.187 95.3768V95.3734ZM364.275 96.0454C365.041 96.0786 365.853 95.9156 366.615 95.8591C366.959 95.8325 367.302 95.8125 367.648 95.7892C366.605 96.388 365.579 97.01 364.572 97.662C364.226 97.1165 363.909 96.5477 363.76 96.0321C363.906 96.0321 364.067 96.0354 364.275 96.0454ZM340.8 136.355C339.225 135.473 337.605 134.685 335.931 133.993C343.978 123.319 352.377 112.558 363.127 104.558C365.566 108.127 368.404 111.377 369.576 112.751C370.936 114.341 372.328 115.924 373.744 117.497C371.777 118.559 369.797 119.603 368.005 120.837C367.741 118.618 367.348 116.416 366.82 114.248C366.292 112.069 362.523 111.813 362.183 114.248C361.401 119.879 357.998 124.193 353.678 127.653C351.542 129.363 349.209 130.833 346.839 132.194C344.747 133.394 342.229 134.339 340.8 136.355ZM347.44 137.396C353.374 134.173 359.675 129.952 363.477 124.193C363.496 124.516 363.516 124.842 363.529 125.165C362.833 126.193 362.265 127.354 361.859 128.681C361.028 131.415 361.467 134.073 362.361 136.631C362.1 137.925 361.836 139.226 361.612 140.549C361.077 143.723 361.255 147.142 363.843 149.388C366.364 151.58 370.176 151.786 373.332 152.179C374.827 152.365 376.332 152.505 377.837 152.604C376.071 152.917 374.279 153.107 372.48 153.196C369.876 153.33 367.265 153.293 364.661 153.206C362.084 153.123 358.76 153.582 356.849 151.53C355.199 149.757 353.995 147.525 352.387 145.685C350.648 143.696 348.724 141.89 346.654 140.253C346.103 139.818 345.539 139.395 344.971 138.989C345.542 138.254 346.522 137.888 347.44 137.389V137.396ZM347.608 154.045C346.691 151.31 345.938 148.523 345.354 145.695C347.919 148.037 350.245 150.702 352.41 153.642C355.364 157.654 359.15 157.857 363.787 158.026C368.906 158.213 374.045 158.213 379.107 157.305C383.239 156.563 387.15 155.043 390.652 152.867C400.382 152.794 410.131 152.551 419.547 155.162C423.009 156.12 426.257 157.527 429.349 159.3C429.58 159.766 429.825 160.229 430.112 160.684C431.023 162.125 432.082 163.462 433.198 164.752C421.494 169.356 409.418 172.905 397.085 175.357C396.223 175.527 395.712 176.029 395.487 176.641C391.801 173.175 387.289 171.156 382.546 169.552C372.101 166.023 362.401 161.789 353.361 155.345C352.173 154.497 350.08 155.322 349.829 156.792C349.701 157.547 349.605 158.299 349.532 159.051C348.829 157.411 348.179 155.745 347.608 154.045ZM397.847 187.329C390.084 186.517 382.299 186.008 374.503 185.805C369.995 179.083 363.477 173.89 355.995 171.049C354.783 168.029 354.133 164.909 354.153 161.725C361.586 166.589 369.612 170.394 378.054 173.168C382.781 174.722 387.702 176.159 391.513 179.535C394.042 181.774 396.038 184.488 397.847 187.329ZM351.163 188.287C348.925 186.258 346.78 184.119 344.74 181.873C346.46 179.419 347.912 176.837 349.113 174.086C356.691 175.693 363.49 179.768 368.417 185.709C363.447 185.682 358.47 185.775 353.5 185.995C352.183 186.055 351.321 187.153 351.163 188.287ZM386.074 213.837C382.312 213.528 378.54 213.854 374.784 214.103C371.48 214.323 367.704 214.762 364.77 212.866C362.14 211.166 359.038 207.331 358.13 204.33C357.589 202.547 358.222 201.393 359.331 200.758C362.074 202.577 364.909 204.26 367.83 205.78C373.629 208.801 379.672 211.039 385.85 212.859C386.094 213.002 386.342 213.145 386.586 213.291C386.999 213.534 387.424 213.787 387.86 214.043C387.269 213.96 386.678 213.887 386.074 213.837ZM406.131 217.39C405.619 217.712 405.124 217.952 404.636 218.135C405.237 217.872 405.831 217.539 406.411 217.127C407.959 216.029 408.029 213.155 405.837 212.699C399.728 211.422 393.629 210.101 387.662 208.372C385.939 207.344 384.223 206.303 382.497 205.291C378.583 202.996 374.675 200.684 370.751 198.406C367.655 196.613 364.259 194.89 360.582 195.326C360.411 195.345 360.236 195.372 360.064 195.402C358.094 194.018 356.173 192.558 354.318 191.024C360.902 192.159 367.493 192.145 374.104 191.001C374.404 190.948 374.668 190.828 374.896 190.659C383.167 190.885 391.431 191.454 399.662 192.368C399.642 196.896 399.821 201.376 402.402 205.341C404.699 208.871 408.204 211.189 412.098 212.407C410.332 214.296 408.223 216.062 406.124 217.39H406.131ZM437.798 202.9C432.267 205.561 426.178 208.255 419.953 208.565C420.036 208.219 420.105 207.869 420.158 207.517C420.26 206.845 420.016 205.238 420.326 204.679C420.983 203.492 424.468 203.402 425.729 203.103C428.009 202.554 430.28 201.952 432.531 201.296C439.425 199.287 446.194 196.779 452.736 193.792C448.683 197.79 442.805 200.495 437.795 202.906L437.798 202.9ZM456.617 186.494C456.003 186.83 455.386 187.156 454.775 187.469C448.195 190.832 441.237 193.519 434.201 195.728C430.702 196.826 427.164 197.794 423.593 198.629C420.775 199.287 417.049 199.424 415.884 202.637C415.379 204.027 415.659 205.494 415.408 206.918C415.329 207.36 415.2 207.786 415.039 208.202C410.521 207.217 406.431 204.387 405.111 199.676C404.398 197.138 404.279 194.507 404.279 191.856C404.87 191.064 405.032 189.887 404.534 189.045C404.461 188.919 404.382 188.796 404.309 188.669C404.322 187.349 404.312 186.028 404.237 184.714C413.016 185.024 421.861 183.603 430.069 180.43C432.211 179.602 434.32 178.673 436.373 177.632C438.623 176.491 440.831 174.822 443.396 174.542C448.254 174.013 453.525 176.249 457.248 179.282C457.251 181.677 457.135 184.159 456.627 186.497L456.617 186.494ZM445.584 168.016C445.723 162.723 445.858 157.431 445.996 152.139C446.01 151.586 446.043 151.018 446.066 150.446C448.508 151.756 450.838 153.296 452.868 155.192C454.221 156.456 455.429 157.927 456.422 159.523C454.683 161.742 455.901 164.124 456.33 166.782C456.68 168.947 456.914 171.132 457.053 173.321C454.096 171.555 450.858 170.367 447.366 169.892C446.769 169.809 446.168 169.749 445.571 169.712C445.65 169.123 445.647 168.558 445.577 168.012L445.584 168.016ZM458.832 154.5C455.426 150.312 450.693 147.192 445.871 144.954C445.647 144.851 445.419 144.757 445.194 144.654C444.231 142.944 442.554 142.063 440.666 141.484C438.934 140.955 437.191 140.456 435.438 139.977C433.712 137.669 434.415 133.957 434.495 131.302C434.504 130.989 434.508 130.677 434.511 130.364C437.637 133.102 440.769 135.839 444.227 138.151C448.36 140.912 453.812 142.632 456.98 146.64C458.779 148.912 459.333 151.786 458.832 154.497V154.5ZM472.812 159.966C471.492 156.899 470.614 153.878 468.409 151.294C466.525 149.088 463.515 151.896 464.634 154.231C467.726 160.694 471.429 168.574 468.175 175.693C466.799 178.707 464.528 181.112 461.908 183.114C462.046 181.231 462.06 179.335 462.03 177.486C464.957 172.001 464.571 165.368 462.066 159.726C464.112 155.838 464.442 151.104 462.7 146.949C460.096 140.742 453.693 138.271 448.346 135.044C442.584 131.565 437.858 126.685 432.653 122.454C432.623 122.407 432.597 122.364 432.567 122.317C430.801 119.723 427.996 118.299 425.448 116.639C424.079 115.748 422.729 114.75 422.095 113.176C421.257 111.094 421.253 108.456 420.956 106.254C420.494 102.815 420.029 99.3718 419.567 95.9323C422.234 96.9069 424.871 97.988 427.521 98.9926C435.442 101.996 443.363 105.003 451.284 108.007C454.908 109.381 458.795 110.505 462.218 112.345C465.522 114.121 467.258 117.068 468.334 120.591C472.736 135.024 470.601 150.778 477.321 164.51C475.377 164.35 473.41 161.33 472.822 159.962L472.812 159.966Z" fill="black"/>
<path d="M229.008 219.008L210.318 212.152L190.654 200.663L189.898 177.893L181.017 164.541L165.297 136.134L154.161 115.407L154.072 113.524L162.822 112.45L170.432 100.481L161.746 84.3014L168.31 67.6926L175.861 59.3533L184.03 61.3093L196.034 50.1591L211.235 35.5495L214.668 45.562L222.826 37.389L226.75 23.6276L235.681 10.5315L266.728 2.0625L279.501 6.88913L284.006 9.11782L303.122 6.89245L322.059 9.54693L348.39 25.0979L342.39 38.9724L354.126 52.1982L364.314 57.9296L368.766 69.1163L372.232 90.2391L362.849 91.8923L372.605 110.247L345.271 131.999L371.668 125.632L375.351 119.152L375.374 128.852L382.325 138.825L384.308 136.5L373.291 148.122L379.853 164.96L370.981 179.43L353.413 186.642L331.191 209.647L335.046 217.371L325.35 209.348L308.92 215.871L284.187 211.118L270.705 215.931L266.177 222.215L260.873 226.635L247.338 215.785L240.916 216.773L229.008 219.008Z" fill="#39E241"/>
<mask id="mask0_201_14854" style="mask-type:luminance" maskUnits="userSpaceOnUse" x="154" y="2" width="231" height="225">
<path d="M229.008 219.008L210.318 212.152L190.654 200.663L189.898 177.893L181.017 164.541L165.297 136.134L154.161 115.407L154.072 113.524L162.822 112.45L170.432 100.481L161.746 84.3014L168.31 67.6926L175.861 59.3533L184.03 61.3093L196.034 50.1591L211.235 35.5495L214.668 45.562L222.826 37.389L226.75 23.6276L235.681 10.5315L266.728 2.0625L279.501 6.88913L284.006 9.11782L303.122 6.89245L322.059 9.54693L348.39 25.0979L342.39 38.9724L354.126 52.1982L364.314 57.9296L368.766 69.1163L372.232 90.2391L362.849 91.8923L372.605 110.247L345.271 131.999L371.668 125.632L375.351 119.152L375.374 128.852L382.325 138.825L384.308 136.5L373.291 148.122L379.853 164.96L370.981 179.43L353.413 186.642L331.191 209.647L335.046 217.371L325.35 209.348L308.92 215.871L284.187 211.118L270.705 215.931L266.177 222.215L260.873 226.635L247.338 215.785L240.916 216.773L229.008 219.008Z" fill="white"/>
</mask>
<g mask="url(#mask0_201_14854)">
<path d="M355.717 166.461L390.025 88.2869L329.231 136.344L316.614 99.304C322.865 99.2109 328.746 99.0712 331.934 98.9913L332.743 98.9714L332.964 98.1863C334.766 91.7464 337.271 82.8582 339.674 74.4158C348.123 74 357.532 69.3231 358.041 69.0702L358.526 68.8274L362.671 47.3488L361.991 46.9562C361.948 46.9296 357.536 44.3683 355.433 42.123C354.922 41.5774 354.232 40.839 345.146 42.6319C343.433 38.9496 340.387 33.1084 335.057 23.7179C328.713 12.5345 322.119 1.60058 322.053 1.49081L321.155 0.00390625L320.198 1.4509C314.944 9.40435 308.713 18.0264 307.323 18.7749C305.898 19.1807 303.769 22.9961 294.052 44.2885C294.036 44.3217 294.019 44.3583 294.006 44.3916L288.478 39.0992C288.481 35.9159 288.541 17.737 289.138 13.7786C289.874 8.91537 273.95 3.2272 267.068 1.00516L266.907 0.951934H245.418L262.989 60.212L235.19 61.8952L222.071 48.034L204.414 28.0289L174.505 59.1775L176.1 61.995L145.752 59.886L145.601 62.0947L177.407 64.3035L193.404 92.6079L205.437 102.833L206.813 107.876L197.268 114.742L163.05 96.8924L162.04 98.8583L195.024 116.062C191.291 118.195 184.06 122.749 183.743 126.181C183.654 127.129 184.024 127.964 184.806 128.59C187.004 130.346 195.338 133.44 202.872 136.018L201.473 144.849L187.116 141.057L186.773 140.967L176.743 144.873L171.967 150.374L196.232 199.203L238.629 205.756L254.725 205.769L255.279 161.362L268.92 164.964L269.478 162.822L255.309 159.076L255.415 150.484L252.745 127.901C253.824 125.48 259.058 113.315 257.124 109.084C256.745 108.252 256.111 107.687 255.293 107.454C250.646 106.117 223.226 96.9223 222.949 96.8292L222.417 96.6529L208.717 106.509L207.374 101.589L195.116 91.1743L180.037 64.4898L247.421 69.1734L308.135 81.2183L313.551 97.1186C303.782 97.2383 295.026 97.2217 293.904 96.8724C291.887 95.951 265.365 86.5871 263.514 85.9318L234.56 71.4819L234.272 71.3854C234.183 71.3688 225.338 69.7189 216.51 68.3052C197.839 65.3147 197.463 66.1862 197.024 67.2008C196.925 67.4303 196.678 68.232 197.651 68.9638C200.338 70.9829 251.227 97.6574 255.068 97.7273C254.963 97.7306 254.883 97.7206 254.883 97.7206C257.355 98.3926 283.003 117.433 298.987 129.574L297.254 138.31L274.996 141.13L274.834 141.899C270.197 163.77 259.382 206.641 251.642 212.359C250.048 213.536 249.147 215.21 248.959 217.329C247.992 228.352 267.57 249.179 268.402 250.06L269.465 251.185L296.072 199.439C302.726 200.753 348.252 209.811 354.133 212.874C355.595 213.64 356.562 213.144 357.004 212.785C360.483 209.951 356.057 192.201 354.529 186.523L355.724 166.458L355.717 166.461ZM186.166 126.86C185.922 126.667 185.915 126.527 185.925 126.394C186.12 124.272 192.565 119.904 197.364 117.297L205.189 121.378L203.219 133.802C195.697 131.221 188.034 128.354 186.162 126.86H186.166ZM178.034 146.742L186.895 143.293L201.117 147.051L200.608 150.258L189.245 180.212L174.588 150.714L178.034 146.742ZM252.55 203.554H238.873L197.681 197.187L189.727 181.177L191.04 181.683L202.704 150.94L203.235 147.61L253.085 160.783L252.553 203.557L252.55 203.554ZM222.777 99.1078C226.744 100.438 250.292 108.319 254.682 109.583C254.827 109.623 254.979 109.706 255.121 110.012C256.336 112.663 252.999 122.003 250.613 127.266L250.484 127.549L253.21 150.604L253.111 158.501L203.582 145.415L204.965 136.736C210.807 138.702 215.731 140.229 216.196 140.375L218.107 140.967L209.328 108.788L222.774 99.1144L222.777 99.1078ZM207.427 110.151L214.929 137.654C212.328 136.833 208.906 135.725 205.318 134.514L207.608 120.144L199.443 115.886L207.424 110.155L207.427 110.151ZM336.981 165.912L325.261 142.288L328.155 139.999L336.981 165.912ZM346.063 44.691C350.215 43.876 353.06 43.4968 353.938 43.7429C355.773 45.649 358.852 47.6248 360.216 48.4598L356.579 67.3139C354.625 68.2353 347.1 71.605 340.317 72.1572C343.572 60.7609 346.509 50.6785 347.09 49.298C347.278 48.8556 347.545 48.217 346.063 44.6943V44.691ZM296.046 45.2065C299.709 37.1799 306.502 22.3009 308.069 20.8406C310.218 19.8759 316.089 11.5898 321.066 4.11535C329.938 18.8713 338.981 34.7849 342.948 43.071C339.172 43.866 334.205 45.0236 327.654 46.6735C316.7 49.4311 305.832 52.4482 303.198 53.1833L295.686 45.9949C295.805 45.7388 295.924 45.4727 296.046 45.2065ZM294.716 48.1205L302.591 55.6548L303.191 55.4852C317.918 51.3371 333.829 47.239 343.902 45.13C344.641 46.8132 345.047 47.9874 345.034 48.5163C344.304 50.3592 341.159 61.1966 338.014 72.2237C336.446 72.1838 334.964 71.9476 333.654 71.4386C331.406 70.5671 327.383 69.1301 322.726 67.4669C312.703 63.8877 294.485 57.3812 291.366 55.2191C291.97 54.0781 293.059 51.743 294.716 48.1205ZM309.802 79.289L247.774 66.9846L178.727 62.1779L177.228 59.5234L204.344 31.2822L220.454 49.5309L234.302 64.1671L265.884 62.2544L248.365 3.16733H266.56C277.732 6.78979 287.247 11.5798 286.967 13.4459C286.287 17.93 286.28 38.6934 286.28 39.5749V40.0506L293.036 46.5138C291.211 50.5022 289.547 54.108 289.194 54.6003C288.947 54.9363 288.877 55.3588 289 55.7646C289.541 57.5542 296.323 60.3883 321.997 69.5559C326.637 71.2125 330.647 72.6461 332.868 73.5077C334.258 74.0466 335.789 74.326 337.397 74.4091C334.571 84.3352 331.875 93.9418 331.076 96.7892C326.532 96.9023 321.129 97.0088 315.865 97.082L309.805 79.2857L309.802 79.289ZM278.999 111.841C257.801 96.1772 255.722 95.452 254.936 95.5152C251.755 94.8666 211.444 74.5555 201.037 68.4815C206.74 68.8607 220.889 71.1393 233.715 73.5343L262.593 87.9443L262.719 87.9975C272.504 91.4503 291.429 98.173 292.993 98.8882C294.214 99.4437 304.36 99.4604 314.3 99.3306L327.4 137.784L324.258 140.269L321.746 135.206L299.548 138.017L301.406 128.64L300.855 128.221C300.746 128.137 289.927 119.914 278.996 111.838L278.999 111.841ZM299.095 140.305L320.479 137.594L322.495 141.659L294.432 163.843L299.095 140.302V140.305ZM355.618 211.062C355.618 211.062 355.479 211.085 355.136 210.905C348.542 207.469 297.835 197.526 295.68 197.104L294.874 196.948L268.936 247.386C264.86 242.879 250.382 226.19 251.144 217.521C251.273 216.041 251.86 214.937 252.936 214.142C262.781 206.864 275.171 150.747 276.814 143.126L296.798 140.595L291.115 169.282L323.499 143.685L342.4 181.782L344.423 180.928L329.99 138.556L384.46 95.5019L353.631 165.746L353.552 165.929L352.311 186.755L352.357 186.932C355.588 198.89 357.113 210.17 355.621 211.065L355.618 211.062Z" fill="black"/>
</g>
<path d="M150.294 209.443L137.241 215.577L121.336 219.841L109.382 208.571L98.0517 206.319L75.5727 199.886L59.3413 195.019L58.338 194.101L62.2721 189.035L60.0905 178.979L47.4236 175.181L42.3443 163.289L41.9746 155.122L47.1496 151.909L47.6348 140.004L47.9945 124.679L54.8396 128.035L54.8627 119.64L49.8824 110.568L47.8031 99.2553L59.3941 78.8977L68.3877 74.7762L71.8267 73.5953L80.4837 62.5882L91.5301 54.1757L112.91 48.5508L116.884 58.7496L129.613 59.4647L137.742 57.1429L145.706 60.5724L158.208 69.6003L154.244 75.2885L168.565 79.6527L165.617 104.894L175.901 88.0154L174.495 82.7962L179.433 87.7492L188.06 89.2661L187.895 87.054L188.156 98.6898L200.07 103.926L202.879 115.911L197.545 128.671L197.856 151.916L203.753 153.882L194.714 154.78L189.615 166.595L174.538 176.927L170.08 186.347L170.951 191.903L170.482 196.902L158.04 198.329L155.254 202.151L150.294 209.443Z" fill="#B49CFF"/>
<mask id="mask1_201_14854" style="mask-type:luminance" maskUnits="userSpaceOnUse" x="41" y="48" width="163" height="172">
<path d="M150.294 209.443L137.241 215.577L121.336 219.841L109.382 208.571L98.0517 206.319L75.5727 199.886L59.3413 195.019L58.338 194.101L62.2721 189.035L60.0905 178.979L47.4236 175.181L42.3443 163.289L41.9746 155.122L47.1496 151.909L47.6348 140.004L47.9945 124.679L54.8396 128.035L54.8627 119.64L49.8824 110.568L47.8031 99.2553L59.3941 78.8977L68.3877 74.7762L71.8267 73.5953L80.4837 62.5882L91.5301 54.1757L112.91 48.5508L116.884 58.7496L129.613 59.4647L137.742 57.1429L145.706 60.5724L158.208 69.6003L154.244 75.2885L168.565 79.6527L165.617 104.894L175.901 88.0154L174.495 82.7962L179.433 87.7492L188.06 89.2661L187.895 87.054L188.156 98.6898L200.07 103.926L202.879 115.911L197.545 128.671L197.856 151.916L203.753 153.882L194.714 154.78L189.615 166.595L174.538 176.927L170.08 186.347L170.951 191.903L170.482 196.902L158.04 198.329L155.254 202.151L150.294 209.443Z" fill="white"/>
</mask>
<g mask="url(#mask1_201_14854)">
<path d="M189.172 107.972L178.558 97.2579L149.119 126.194L142.478 114.745L140.709 115.786L147.607 127.681L141.96 133.23L128.89 149.955C126.593 150.833 115.174 155.384 113.679 159.459C113.385 160.26 113.435 161.052 113.818 161.754C116.009 165.729 128.082 190.032 128.204 190.274L128.438 190.743L143.934 193.351L141.597 197.489L142.868 212.515L135.349 240.154L93.9491 192.247L81.7376 173.905L88.5035 171.736L100.157 187.953L103.953 199.276L104.078 199.529C104.104 199.568 105.791 202.04 108.174 205.453L110.441 210.569L111.451 210.113C112.21 211.184 112.992 212.279 113.778 213.373C124.138 227.76 124.96 227.44 125.913 227.061C126.128 226.978 126.818 226.612 126.653 225.481C126.197 222.331 109.745 169.824 107.524 168.244C107.659 168.34 107.715 168.437 107.715 168.44C106.524 166.354 102.068 136.729 99.4674 118.088L106.329 113.474L122.864 126.417L123.474 126.018C140.854 114.672 176.05 93.559 184.911 94.9461C186.737 95.2288 188.423 94.7232 189.935 93.4492C197.79 86.8197 198.506 60.0553 198.535 58.9177L198.568 57.4707L147.132 73.9198C143.6 68.6275 119.491 32.3729 117.616 26.4386C117.151 24.9617 116.191 24.6457 115.662 24.5891C111.507 24.1201 102.811 38.8029 100.104 43.5663L86.18 56.0137L12.3534 84.7939L83.9324 93.5157L68.008 126.351C63.8231 122.256 59.8494 118.434 57.6943 116.365L57.1464 115.839L56.4863 116.212C51.0803 119.262 43.6082 123.463 36.4958 127.435C30.6475 122.09 21.3767 118.92 20.875 118.75L20.3965 118.59L3.59743 130.006L3.78886 130.718C3.80206 130.765 5.03311 135.389 4.9539 138.269C4.93409 138.968 4.90769 139.916 12.0762 144.776C10.7956 148.345 8.98368 154.223 6.34997 163.966C3.21459 175.565 0.405949 187.164 0.379546 187.281L0 188.857L1.57759 188.538C10.2543 186.782 20.0004 185.235 21.4163 185.671C22.6242 186.349 26.5319 185.248 46.8821 177.661L46.9746 177.627L47.1594 184.796C45.0702 186.895 33.1327 198.85 30.1458 201.065C26.4758 203.783 33.2581 218.13 36.3473 224.174L36.4199 224.317L50.5984 238.607L77.8036 187.816L97.2495 205.193L96.8304 223.066L95.3848 248.011L135.514 247.349L136.31 244.432L154.954 266.007L156.498 264.65L136.96 242.04L144.887 212.901L144.934 212.724L143.686 197.972L146.079 193.731L157.422 195.64C159.706 196.348 170.334 199.465 173.287 196.994C173.967 196.425 174.271 195.63 174.162 194.699C173.594 189.736 161.66 167.01 161.152 166.045L160.277 164.382L145.003 191.455L129.795 188.897C128.049 185.381 117.669 164.518 115.6 160.766C115.53 160.643 115.484 160.486 115.59 160.194C116.527 157.636 124.841 153.694 129.864 151.808L130.135 151.708L143.429 134.68L148.663 129.534L180.967 185.225L190.143 189.32L196.895 188.864L212.853 140.505L189.166 107.982L189.172 107.972ZM90.5332 98.5087L91.8633 94.4837L124.907 98.512L106.418 110.943L90.5332 98.5087ZM90.4474 92.2317L87.0414 91.8159L98.1802 68.847L90.4474 92.2317ZM20.7529 83.7394L87.0843 57.8898L87.2559 57.8233L101.712 44.9035L101.794 44.7572C107.491 34.7147 113.86 26.2457 115.441 26.6615C115.441 26.6615 115.547 26.738 115.659 27.0839C117.761 33.7334 144.713 74.0229 145.858 75.736L146.287 76.378L196.426 60.3447C196.166 66.0296 194.793 86.67 188.614 91.8858C187.562 92.7739 186.446 93.1166 185.218 92.9236C173.944 91.2072 129.039 119.971 122.966 123.906L108.121 112.283L130.653 97.1349L92.5233 92.4879L104.996 54.7796L103.101 53.9979L84.8829 91.5565L20.7529 83.7427V83.7394ZM86.0843 93.7818L89.784 94.2309L88.1272 99.2438L104.616 112.15L97.2528 117.1L97.3419 117.742C97.3584 117.868 99.1142 130.492 101.042 143.089C104.774 167.515 105.646 169.378 106.233 169.867C107.91 172.412 121.21 212.621 124.098 223.552C121.042 220.039 114.719 211.337 108.59 202.482L102.824 189.476L96.2198 169.767L96.1736 169.651C91.9755 160.862 83.8895 143.844 83.3251 142.331C82.8829 141.15 76.1996 134.394 69.5559 127.868L86.0876 93.7818H86.0843ZM68.5988 129.83C75.1237 136.247 80.8927 142.081 81.4043 143.063C82.1337 145.009 93.5036 168.829 94.2957 170.492L98.4443 182.88L89.1074 169.867L80.8069 172.528L61.7636 143.928L68.5988 129.834V129.83ZM7.00344 138.183C7.04305 135.705 6.30376 132.355 5.94732 130.898L20.6902 120.879C22.5813 121.571 29.7531 124.352 34.5882 128.496C24.9807 133.852 16.4426 138.552 15.1521 139.078C14.7396 139.247 14.1422 139.49 12.8154 142.797C9.54145 140.571 7.41929 138.931 6.99684 138.183H7.00344ZM46.1693 175.718C38.5519 178.559 24.4823 183.805 22.3239 183.805C22.3074 183.805 22.2909 183.805 22.2777 183.805C20.2281 183.013 10.9276 184.576 2.75253 186.196C6.55789 170.559 11.0101 154.046 13.8155 145.94C16.8287 147.926 20.8651 150.467 26.2646 153.734C35.2978 159.202 44.4465 164.438 46.6643 165.702L46.9151 175.442C46.6709 175.532 46.4201 175.625 46.166 175.721L46.1693 175.718ZM14.535 143.944C15.1488 142.341 15.6505 141.296 16.0036 140.957C17.6901 140.225 26.8619 135.166 36.1592 129.983C37.1658 131.051 37.9909 132.195 38.5222 133.403C39.4332 135.472 41.1461 139.088 43.1263 143.279C47.4003 152.31 55.1661 168.729 55.8097 172.229C54.6645 172.578 52.4169 173.396 48.9515 174.687L48.6875 164.478L48.1825 164.192C35.7499 157.133 22.5648 149.256 14.5383 143.947L14.535 143.944ZM133.943 245.3L97.5598 245.902L98.8799 223.146L99.3222 204.279L77.2293 184.536L50.1033 235.178L38.0965 223.076C33.0964 213.257 29.9511 203.766 31.3604 202.725C34.7433 200.217 48.3442 186.522 48.9218 185.94L49.232 185.627L49.0076 176.869C52.8229 175.449 56.2817 174.178 56.8362 174.088C57.219 174.032 57.5424 173.799 57.7273 173.449C58.5425 171.909 55.9219 165.523 44.9778 142.391C43.0009 138.216 41.2979 134.61 40.3969 132.565C39.8325 131.287 39.0041 130.083 38.0008 128.959C46.364 124.288 54.4335 119.741 56.8229 118.391C59.8956 121.341 63.5327 124.861 67.0542 128.313L59.4039 144.087L78.7739 173.177L54.483 180.961L54.9648 182.487L79.698 174.564L92.2791 193.458L134.696 242.552L133.95 245.3H133.943ZM160.215 168.666C164.066 176.091 171.723 191.412 172.126 194.921C172.159 195.211 172.076 195.307 171.977 195.391C170.406 196.708 162.835 195.154 157.964 193.631L147.158 191.805L160.215 168.666ZM195.387 186.882L190.512 187.211L182.403 183.592L150.178 128.034L178.535 100.162L187.562 109.256L210.575 140.854L195.387 186.882Z" fill="black"/>
</g>
</svg>
