<svg width="17" height="21" viewBox="0 0 17 21" fill="none" xmlns="http://www.w3.org/2000/svg">
<g clip-path="url(#clip0_201_10596)">
<path d="M16.9904 6.4008C16.988 6.384 16.9808 6.3672 16.976 6.3504C16.9712 6.336 16.9688 6.3216 16.964 6.3072C16.9568 6.288 16.9448 6.2712 16.9352 6.2544C16.928 6.2424 16.9232 6.2328 16.9184 6.2208C16.8992 6.1944 16.88 6.168 16.856 6.1464L10.8533 0.1464C10.8293 0.1224 10.8053 0.1032 10.7765 0.084C10.7693 0.0792 10.7621 0.0768 10.7549 0.072C10.7333 0.06 10.7141 0.048 10.6925 0.0384C10.6829 0.0336 10.6709 0.0312 10.6589 0.0288C10.6397 0.0216 10.6205 0.0144 10.5989 0.0096C10.5677 0.0024 10.5341 0 10.5005 0H2.50092C1.12085 0 0 1.1208 0 2.5008V18.5016C0 19.8792 1.12085 21.0024 2.50092 21.0024H14.5015C15.8791 21.0024 17.0024 19.8816 17.0024 18.5016V6.4992C17.0024 6.4656 17 6.432 16.9928 6.4008H16.9904ZM10.9997 1.7064L15.2935 6H10.9997V1.7064ZM14.4991 19.9992H2.50092C1.67288 19.9992 1.00085 19.3272 1.00085 18.4992V2.5008C1.00085 1.6728 1.67288 1.0008 2.50092 1.0008H10.0013V6.5016C10.0013 6.7776 10.2245 7.0008 10.5005 7.0008H16.0016V18.5016C16.0016 19.3296 15.3295 20.0016 14.5015 20.0016L14.4991 19.9992Z" fill="#1E1E1E"/>
<path d="M12.4998 11H4.5002C4.22419 11 4.00098 11.2232 4.00098 11.4992C4.00098 11.7752 4.22419 11.9984 4.5002 11.9984H12.4998C12.7758 11.9984 12.999 11.7752 12.999 11.4992C12.999 11.2232 12.7758 11 12.4998 11Z" fill="#1E1E1E"/>
<path d="M12.4998 15H4.5002C4.22419 15 4.00098 15.2232 4.00098 15.4992C4.00098 15.7752 4.22419 15.9984 4.5002 15.9984H12.4998C12.7758 15.9984 12.999 15.7752 12.999 15.4992C12.999 15.2232 12.7758 15 12.4998 15Z" fill="#1E1E1E"/>
<path d="M4.5002 7.9984H6.49949C6.77551 7.9984 6.99872 7.7752 6.99872 7.4992C6.99872 7.2232 6.77551 7 6.49949 7H4.5002C4.22419 7 4.00098 7.2232 4.00098 7.4992C4.00098 7.7752 4.22419 7.9984 4.5002 7.9984Z" fill="#1E1E1E"/>
</g>
<defs>
<clipPath id="clip0_201_10596">
<rect width="17" height="21" fill="white"/>
</clipPath>
</defs>
</svg>
