<svg width="19" height="19" viewBox="0 0 19 19" fill="none" xmlns="http://www.w3.org/2000/svg">
<g clip-path="url(#clip0_201_10601)">
<path d="M18.5483 4.52309H15.5887C16.0208 4.0432 16.2857 3.40914 16.2857 2.71429C16.2857 1.21817 15.0675 0 13.5714 0C11.2827 0 10.0733 2.0064 9.5 3.4504C8.92674 2.0064 7.71726 0 5.42857 0C3.93246 0 2.71429 1.21817 2.71429 2.71429C2.71429 3.40914 2.9792 4.0432 3.41131 4.52309H0.451657C0.201943 4.52309 0 4.72503 0 4.97474V9.49783C0 9.74754 0.201943 9.94949 0.451657 9.94949H1.8088V18.544C1.8088 18.7937 2.01074 18.9957 2.26046 18.9957H16.7374C16.9871 18.9957 17.189 18.7937 17.189 18.544V9.94949H18.5462C18.7959 9.94949 18.9978 9.74754 18.9978 9.49783V4.97474C18.9978 4.72503 18.7959 4.52309 18.5462 4.52309H18.5483ZM13.5714 0.905486C14.5681 0.905486 15.3802 1.7176 15.3802 2.71429C15.3802 3.71097 14.5681 4.52309 13.5714 4.52309H10.0863C10.4272 3.39611 11.4261 0.903314 13.5714 0.903314V0.905486ZM3.61977 2.71429C3.61977 1.7176 4.43189 0.905486 5.42857 0.905486C7.57177 0.905486 8.57063 3.39829 8.91371 4.52526H5.42857C4.43189 4.52526 3.61977 3.71314 3.61977 2.71646V2.71429ZM0.905486 5.42857H9.04834V9.04834H0.905486V5.42857ZM2.71429 9.95166H9.04834V18.0945H2.71429V9.95166ZM16.2857 18.0945H9.95166V9.95166H16.2857V18.0945ZM18.0945 9.04617H9.95166V5.4264H18.0945V9.04617Z" fill="#1E1E1E"/>
</g>
<defs>
<clipPath id="clip0_201_10601">
<rect width="19" height="19" fill="white"/>
</clipPath>
</defs>
</svg>
