<svg width="19" height="16" viewBox="0 0 19 16" fill="none" xmlns="http://www.w3.org/2000/svg">
<g clip-path="url(#clip0_201_10603)">
<path d="M15.5864 0.311674C13.8127 -0.3258 12.1292 0.0155766 10.5832 1.32687C10.3251 1.54551 10.0921 1.79752 9.86727 2.04119C9.76358 2.1532 9.6663 2.25865 9.56611 2.36172L9.5265 2.40283L9.48514 2.36351C9.34417 2.22886 9.2032 2.08826 9.06689 1.95183C8.77097 1.65573 8.46515 1.34951 8.13486 1.08915C7.20516 0.356953 6.11644 8.6582e-05 5.04402 8.6582e-05C3.62908 8.6582e-05 2.24211 0.620879 1.2827 1.81957C-0.107771 3.55743 -0.369321 5.54075 0.505621 7.71412C1.10736 9.2089 2.12968 10.4016 2.95278 11.2738C4.38752 12.7937 6.12168 14.2098 8.25486 15.6039C9.07738 16.1413 9.95931 16.1323 10.8063 15.5777C12.3284 14.581 13.6595 13.555 14.8752 12.4404C16.3921 11.0498 17.3946 9.84102 18.1262 8.52079C18.912 7.10167 19.1643 5.74033 18.8963 4.35755C18.5014 2.32061 17.3876 0.959276 15.5864 0.311674ZM17.0183 8.47789C16.2907 9.63786 15.336 10.7144 13.9222 11.9685C12.8824 12.8914 11.7074 13.7868 10.331 14.7073C10.0566 14.8908 9.78164 14.9819 9.50728 14.9819C9.23291 14.9819 8.96495 14.892 8.69641 14.7126C6.41702 13.1875 4.7149 11.7648 3.33957 10.2366C2.33822 9.12371 1.71551 8.1669 1.32056 7.13324C1.09513 6.54402 0.988529 5.98102 0.994354 5.41147V5.41027C1.04503 3.72603 1.66017 2.51066 2.87472 1.69446C4.39626 0.672115 6.311 0.804376 7.75273 2.03166C8.20418 2.41593 8.59156 2.86991 8.93641 3.41921C8.95563 3.45019 8.97427 3.48117 8.99349 3.51215C9.0168 3.55028 9.03951 3.58901 9.06398 3.62654C9.18281 3.81182 9.34825 3.91549 9.51543 3.9137C9.68378 3.91132 9.83873 3.80646 9.95174 3.61879C10.3741 2.91638 10.7935 2.41057 11.2706 2.0263C12.5789 0.972383 13.9694 0.730501 15.4024 1.30601C16.8359 1.88212 17.6981 3.02422 17.9637 4.70071C18.16 5.93693 17.8594 7.13741 17.0188 8.47789H17.0183Z" fill="black"/>
</g>
<defs>
<clipPath id="clip0_201_10603">
<rect width="19" height="16" fill="white"/>
</clipPath>
</defs>
</svg>
