<svg width="36" height="30" viewBox="0 0 36 30" fill="none" xmlns="http://www.w3.org/2000/svg">
<g clip-path="url(#clip0_201_9929)">
<path d="M35.7708 12.8609L31.075 8.12429C30.9285 7.97651 30.7294 7.89314 30.5228 7.89314H25.0456V0.788177C25.0456 0.352406 24.6962 0 24.2642 0H0.781384C0.349369 0 0 0.352406 0 0.788177V21.3149C0 21.7507 0.349369 22.1031 0.781384 22.1031H4.33518C3.5876 22.9405 3.12929 24.047 3.12929 25.2596C3.12929 27.8704 5.23677 29.9962 7.82511 29.9962C10.4134 29.9962 12.5209 27.8704 12.5209 25.2596C12.5209 24.047 12.0626 22.9405 11.315 22.1031H24.685C23.9374 22.9405 23.4791 24.047 23.4791 25.2596C23.4791 27.8704 25.5866 29.9962 28.1749 29.9962C30.7632 29.9962 32.8707 27.8704 32.8707 25.2596C32.8707 24.047 32.4124 22.9405 31.6648 22.1031H35.2186C35.6506 22.1031 36 21.7507 36 21.3149V13.4218C36 13.2133 35.9174 13.0125 35.7708 12.8647V12.8609ZM1.56652 1.58014H23.4791V20.5267H1.56652V1.58014ZM10.9582 25.2634C10.9582 27.0027 9.55317 28.4199 7.82886 28.4199C6.10456 28.4199 4.69957 27.0027 4.69957 25.2634C4.69957 23.5241 6.10456 22.1069 7.82886 22.1069C9.55317 22.1069 10.9582 23.5241 10.9582 25.2634ZM31.3079 25.2634C31.3079 27.0027 29.903 28.4199 28.1787 28.4199C26.4543 28.4199 25.0494 27.0027 25.0494 25.2634C25.0494 23.5241 26.4543 22.1069 28.1787 22.1069C29.903 22.1069 31.3079 23.5241 31.3079 25.2634ZM34.4372 20.5267H25.0456V9.47328H30.1997L34.4372 13.7476V20.5267Z" fill="#1E1E1E"/>
</g>
<defs>
<clipPath id="clip0_201_9929">
<rect width="36" height="30" fill="white"/>
</clipPath>
</defs>
</svg>
