<svg width="35" height="30" viewBox="0 0 35 30" fill="none" xmlns="http://www.w3.org/2000/svg">
<g clip-path="url(#clip0_201_9931)">
<path d="M34.9945 14.7591C34.7809 14.3878 34.4536 14.2249 33.9645 14.2454C33.5327 14.2641 33.1045 14.2605 32.6518 14.2561C32.4709 14.2543 32.2882 14.2525 32.1027 14.2525C32.1009 14.2214 32.0991 14.1911 32.0973 14.1617C32.0918 14.0771 32.0864 13.9979 32.0864 13.9204C32.0864 13.5296 32.0864 13.1388 32.0864 12.7488C32.0864 12.1158 32.0873 11.4828 32.0845 10.8498C32.0773 9.45921 31.1536 8.55379 29.7327 8.54489C29.2755 8.54132 28.8173 8.54221 28.3445 8.5431C28.1409 8.5431 27.9336 8.5431 27.7227 8.5431V8.20569C27.7227 7.8923 27.7227 7.57892 27.7227 7.26554C27.7227 6.56667 27.7245 5.8669 27.7209 5.16803C27.7145 3.76315 26.7845 2.85417 25.3509 2.85061C25.2009 2.85061 25.0518 2.84972 24.9018 2.84883C24.4564 2.84616 23.9964 2.84349 23.5436 2.85684C23.3436 2.86218 23.24 2.80342 23.1345 2.62092C22.8255 2.08318 22.5018 1.54278 22.1882 1.02018L21.9209 0.573255C21.7227 0.242069 21.54 0.0711335 21.3282 0.0177163C21.1182 -0.0348106 20.8773 0.0283997 20.5482 0.221592L19.6 0.779802C18.5345 1.40745 17.4318 2.05736 16.3427 2.6868C16.1736 2.78473 15.9573 2.84349 15.7645 2.84349C15.0864 2.84527 14.4082 2.84705 13.7309 2.84883C10.4991 2.85773 7.15818 2.86753 3.87182 2.84171C3.86 2.84171 3.84727 2.84171 3.83545 2.84171C1.64455 2.84171 0.251818 4.40238 0.0527273 5.87937C0.0518182 5.88649 0.0390909 5.90162 0.03 5.9132C0.0218182 5.92299 0.0145455 5.93278 0.00727273 5.94258L0 5.95326V26.8777C0.15 27.4857 0.374545 28.1864 0.914546 28.7686C1.63273 29.5441 2.51909 29.9563 3.54636 29.9928C3.66364 29.9972 3.77909 29.999 3.88909 29.999C8.53909 29.999 13.1891 29.999 17.8391 29.999C21.7791 29.999 25.72 29.999 29.66 29.999C30.9073 29.999 31.77 29.3829 32.0264 28.3101C32.0764 28.1018 32.0818 27.8801 32.0827 27.6709C32.0864 26.9293 32.0864 26.1752 32.0855 25.447V24.3065C32.2727 24.3065 32.4582 24.3047 32.6418 24.3039C33.1082 24.3003 33.5491 24.2967 33.9973 24.3128C34.4973 24.3288 34.8155 24.1498 34.9964 23.7465L35 14.7689L34.9945 14.7591ZM9.42182 8.52708L20.8636 1.80274L24.8691 8.52708H9.42182ZM13.4355 4.39615C13.3627 4.44333 13.3027 4.48162 13.2418 4.51723L12.0682 5.2072C10.3018 6.24616 8.47546 7.32074 6.67364 8.36861C6.50273 8.46743 6.27455 8.52975 6.06182 8.53598C5.38364 8.55379 4.65909 8.55468 3.71364 8.54132C2.43545 8.52263 1.57 7.65015 1.55818 6.36991C1.55364 5.86512 1.76091 5.37813 2.14182 4.99976C2.54909 4.59468 3.09636 4.37033 3.68091 4.36677C5.07455 4.35876 6.48091 4.35698 7.87818 4.35698C8.85727 4.35698 9.83182 4.35787 10.7918 4.35965C11.6791 4.36054 12.5673 4.36143 13.4545 4.36143C13.4591 4.36143 13.4673 4.36321 13.48 4.36677C13.4636 4.37745 13.4482 4.38725 13.4336 4.39615H13.4355ZM1.53909 26.0524C1.53909 26.0061 1.53909 25.9589 1.53909 25.9126V9.37997C2.50909 10.0806 3.58364 10.0753 4.62455 10.0708C4.70727 10.0708 4.78909 10.0708 4.87182 10.0708C10.0182 10.0673 15.1645 10.0682 20.3109 10.0682H25.4909H26.6827C27.6827 10.0682 28.6818 10.0682 29.6818 10.0691C30.3191 10.0699 30.5455 10.2898 30.5455 10.9086C30.5464 11.6912 30.5455 12.4737 30.5455 13.275V14.2534H30.2145C29.87 14.2534 29.5245 14.2525 29.18 14.2516C28.4355 14.249 27.6655 14.2463 26.9082 14.2579C25.5091 14.2783 24.2145 14.8196 23.2627 15.782C22.3109 16.7435 21.7991 18.0282 21.82 19.3975C21.8609 22.0594 24.0991 24.2602 26.8091 24.3047C27.5818 24.3172 28.3682 24.3145 29.1282 24.3119C29.48 24.311 29.8318 24.3101 30.1836 24.3101H30.53C30.5318 24.3243 30.5327 24.3386 30.5345 24.3519C30.54 24.3991 30.5445 24.4401 30.5445 24.4792V25.0392C30.5464 25.9171 30.5473 26.8243 30.5445 27.7172C30.5427 28.2398 30.2827 28.4935 29.7491 28.4935H28.9718C20.6927 28.4953 12.1309 28.4962 3.71091 28.4918C2.52273 28.4918 1.61091 27.6309 1.54455 26.445C1.53727 26.315 1.53818 26.1824 1.53909 26.0533V26.0524ZM23.4718 20.1124C23.2127 19.0725 23.44 17.9846 24.0964 17.1273C24.7127 16.3224 25.64 15.8363 26.6418 15.7927C27.5264 15.7544 28.4218 15.7429 29.3127 15.7429C30.0073 15.7429 30.6991 15.75 31.38 15.7571C32.0518 15.7642 32.7464 15.7713 33.4336 15.7713V22.7859C33.4082 22.7877 33.3845 22.7886 33.3609 22.7904C33.2864 22.7948 33.2209 22.7993 33.1555 22.7993C32.6227 22.7993 32.0891 22.7993 31.5564 22.8002C30.0927 22.8019 28.5791 22.8028 27.0909 22.7975C25.2973 22.7913 23.8764 21.7363 23.4709 20.1115L23.4718 20.1124ZM24.1864 4.37211C24.3245 4.37211 24.4582 4.36944 24.5891 4.36766C24.9345 4.36232 25.2609 4.35787 25.5827 4.38012C25.9264 4.40327 26.17 4.65967 26.1745 5.00332C26.1891 6.00223 26.1745 6.84177 26.1264 7.63145L24.1855 4.373L24.1864 4.37211Z" fill="black"/>
<path d="M29.1846 19.2805C29.1846 18.6991 28.9474 18.1489 28.5165 17.7305C28.0874 17.3138 27.5246 17.0868 26.9401 17.0939C26.3428 17.1001 25.7846 17.3325 25.3701 17.7501C24.9556 18.1676 24.7301 18.7205 24.7365 19.3089C24.7501 20.5126 25.7246 21.451 26.9574 21.451H26.9701C28.1901 21.4447 29.1837 20.4708 29.1856 19.2796L29.1846 19.2805ZM26.9537 19.9446C26.7774 19.9446 26.6037 19.8725 26.4756 19.7452C26.3456 19.617 26.2728 19.4434 26.2755 19.2689C26.281 18.9074 26.5774 18.6225 26.9492 18.6208H26.9537C27.3283 18.6208 27.6165 18.8941 27.6255 19.2582C27.6301 19.4434 27.5619 19.6161 27.4337 19.7461C27.3083 19.8725 27.1401 19.9428 26.9592 19.9446H26.9537Z" fill="black"/>
</g>
<defs>
<clipPath id="clip0_201_9931">
<rect width="35" height="30" fill="white"/>
</clipPath>
</defs>
</svg>
