<svg width="33" height="30" viewBox="0 0 33 30" fill="none" xmlns="http://www.w3.org/2000/svg">
<g clip-path="url(#clip0_201_9923)">
<path d="M32.3323 0H0.667665C0.299114 0 0 0.306053 0 0.683153V8.57836C0 8.95546 0.299114 9.26151 0.667665 9.26151H1.54431V29.3168C1.54431 29.6939 1.84342 30 2.21197 30H30.788C31.1566 30 31.4557 29.6939 31.4557 29.3168V9.26151H32.3323C32.7009 9.26151 33 8.95546 33 8.57836V4.28815V0.683153C33 0.306053 32.7009 0 32.3323 0ZM23.1232 28.4704H9.92751V18.2327H15.7576V28.4704H17.2932V18.2327H23.1232V28.4704ZM29.9601 28.4704H24.6188V17.3863C24.6188 17.0092 24.3197 16.7031 23.9511 16.7031H9.0996C8.73105 16.7031 8.43194 17.0092 8.43194 17.3863V28.4704H3.03988V9.26151H5.25319V11.9832C5.25319 12.3603 5.5523 12.6663 5.92085 12.6663H27.0825C27.451 12.6663 27.7502 12.3603 27.7502 11.9832V9.26151H29.9601V28.4704ZM6.74542 11.1327V5.05397H26.2552V11.1327H6.74542ZM31.5044 7.73193H27.7655V4.20686C27.7655 3.82976 27.4664 3.52371 27.0978 3.52371H5.91751C5.54896 3.52371 5.24985 3.82976 5.24985 4.20686V7.73193H1.51093V1.53026H31.5044V7.73193Z" fill="#1E1E1E"/>
</g>
<defs>
<clipPath id="clip0_201_9923">
<rect width="33" height="30" fill="white"/>
</clipPath>
</defs>
</svg>
