<svg width="36" height="30" viewBox="0 0 36 30" fill="none" xmlns="http://www.w3.org/2000/svg">
<g clip-path="url(#clip0_201_9934)">
<path d="M10.9582 11.848C10.9582 11.4122 10.6088 11.0597 10.1768 11.0597H2.75738L8.59898 5.52208C9.99269 4.11589 11.7132 3.0205 13.569 2.35721C16.92 1.15948 20.5301 1.35278 23.7383 2.89543C26.9465 4.43807 29.3657 7.1519 30.5491 10.5328C30.6918 10.9422 31.1389 11.1582 31.5484 11.0142C31.9541 10.8702 32.1682 10.4191 32.0255 10.006C30.6994 6.22707 27.9983 3.19865 24.4107 1.47028C20.8269 -0.25429 16.7885 -0.470336 13.0469 0.86763C10.9694 1.61052 9.04602 2.83099 7.50579 4.38879L1.56277 10.0249V2.37237C1.56277 1.93649 1.2134 1.58399 0.781384 1.58399C0.349369 1.58399 0 1.93649 0 2.37237V11.848C0 11.867 0.00375665 11.886 0.00375665 11.9049C0.00375665 11.9352 0.00375665 11.9618 0.01127 11.9921C0.0150266 12.0186 0.0225399 12.0414 0.0300532 12.0641C0.0375665 12.0906 0.0450798 12.1134 0.0525931 12.1399C0.0638631 12.1664 0.075133 12.1892 0.086403 12.2119C0.097673 12.2347 0.108943 12.2536 0.120213 12.2763C0.135239 12.3029 0.154023 12.3256 0.172806 12.3484C0.184076 12.3635 0.191589 12.3787 0.206616 12.3901C0.206616 12.3901 0.214129 12.3938 0.214129 12.3976C0.240426 12.4242 0.270479 12.4469 0.296776 12.4697C0.308045 12.481 0.319315 12.4924 0.334342 12.5C0.371909 12.5265 0.413232 12.5492 0.458312 12.5682C0.462068 12.5682 0.465825 12.572 0.469582 12.5758C0.518418 12.5947 0.567254 12.6099 0.619848 12.6213C0.664927 12.6288 0.713764 12.6326 0.758844 12.6364C0.766357 12.6364 0.770114 12.6364 0.777627 12.6364H10.1693C10.6013 12.6364 10.9506 12.2839 10.9506 11.848H10.9582Z" fill="#1E1E1E"/>
<path d="M35.9966 18.1102C35.9966 18.0799 35.9966 18.0496 35.9891 18.0192C35.9854 17.9965 35.9778 17.9737 35.9703 17.9472C35.9628 17.9207 35.9553 17.8942 35.9478 17.8714C35.9403 17.8487 35.9252 17.8259 35.914 17.8032C35.9027 17.7804 35.8914 17.7577 35.8764 17.735C35.8614 17.7122 35.8426 17.6895 35.8276 17.6705C35.8163 17.6554 35.805 17.6364 35.79 17.6213C35.79 17.6213 35.7825 17.6175 35.7787 17.6137C35.76 17.5947 35.7374 17.5796 35.7186 17.5606C35.6998 17.5454 35.6811 17.5265 35.6585 17.5113C35.6435 17.5 35.6247 17.4924 35.6059 17.481C35.5796 17.4658 35.5533 17.4507 35.527 17.4355C35.512 17.4279 35.497 17.4242 35.4782 17.4204C35.4444 17.409 35.4143 17.3976 35.3805 17.39C35.3655 17.39 35.3505 17.39 35.3354 17.3825C35.2979 17.3787 35.2641 17.3711 35.2265 17.3711H35.219H25.8274C25.3953 17.3711 25.046 17.7236 25.046 18.1595C25.046 18.5954 25.3953 18.9478 25.8274 18.9478H33.243L27.4014 24.4854C24.8882 27.0211 21.5485 28.4197 17.9947 28.4197C14.4409 28.4197 11.1013 27.0249 8.58808 24.4892C7.19437 23.083 6.10869 21.3471 5.45128 19.4709C5.30853 19.0616 4.86148 18.8455 4.45201 18.9895C4.04629 19.1336 3.83216 19.5846 3.97491 19.9978C4.71122 22.0938 5.92086 24.0306 7.47987 25.6036C10.38 28.5297 14.1893 29.9889 17.9985 29.9889C21.8077 29.9889 25.6057 28.5297 28.4908 25.6149L34.4339 19.9788V27.6276C34.4339 28.0634 34.7832 28.4159 35.2152 28.4159C35.6473 28.4159 35.9966 28.0634 35.9966 27.6276V18.1519C35.9966 18.1519 35.9929 18.1178 35.9929 18.0988L35.9966 18.1102Z" fill="#1E1E1E"/>
</g>
<defs>
<clipPath id="clip0_201_9934">
<rect width="36" height="30" fill="white"/>
</clipPath>
</defs>
</svg>
