<svg width="30" height="30" viewBox="0 0 30 30" fill="none" xmlns="http://www.w3.org/2000/svg">
<g clip-path="url(#clip0_201_9925)">
<path d="M29.7681 11.9971C29.1271 8.43053 27.351 5.45396 24.4902 3.14963C22.2742 1.36487 19.7302 0.329438 16.9288 0.0715073C12.5954 -0.327248 8.77838 0.943135 5.5823 3.84708C3.2713 5.94758 1.78825 8.56691 1.17545 11.6332C0.547802 14.7721 0.916524 17.8257 2.27197 20.7097C2.46337 21.1166 2.48266 21.4449 2.33874 21.8437C2.01824 22.7346 1.70442 23.6351 1.40172 24.506C1.00258 25.6526 0.59009 26.8377 0.162017 27.9977C-0.201511 28.9812 0.0455396 29.6364 0.91504 30.0004H1.45217C1.71406 29.9062 1.97595 29.8113 2.23784 29.7165C2.795 29.5149 3.42635 29.2866 4.03248 29.0739C4.62377 28.8656 5.2158 28.6596 5.80709 28.4535L5.8657 28.4335C6.6395 28.1644 7.51568 27.8591 8.3555 27.5611C8.60478 27.4729 8.80509 27.4811 9.02543 27.5893C11.7816 28.9397 14.6653 29.3874 17.5973 28.919C22.3729 28.1563 25.9903 25.5807 28.3496 21.2633C29.268 19.5823 29.8066 17.6953 29.9506 15.6548C29.9558 15.5844 29.9706 15.5199 29.9854 15.4577C29.9914 15.4332 29.9958 15.4139 29.9995 15.3954V13.6425C29.9758 13.4743 29.9543 13.3008 29.932 13.1274C29.8838 12.7516 29.8356 12.3692 29.7688 11.9978L29.7681 11.9971ZM25.4688 22.9117C23.5065 25.2731 20.9855 26.7681 17.9757 27.3551C15.1067 27.9139 12.3417 27.5552 9.75694 26.2885C9.07069 25.952 8.49053 25.9165 7.81763 26.1677C6.48667 26.6643 5.12233 27.1357 3.80175 27.5908C3.2802 27.7709 2.75939 27.9502 2.23858 28.1318C2.177 28.1533 2.11765 28.1704 2.04198 28.1919L2.0353 28.1941C1.99821 28.2045 1.9574 28.2163 1.91215 28.2297L1.63468 28.3119L2.49305 25.8579C2.62585 25.4792 2.75716 25.0997 2.88922 24.7209C3.21417 23.7841 3.55025 22.8176 3.89449 21.8711C4.07106 21.3864 4.04213 20.9461 3.80324 20.4851C2.84693 18.6381 2.36396 16.6435 2.36767 14.5556C2.37286 11.4049 3.38481 8.59508 5.37457 6.20551C7.37323 3.80409 9.8801 2.3032 12.8247 1.74287C17.1833 0.914229 21.0449 1.9919 24.3033 4.94551C26.5735 7.00376 27.9423 9.58307 28.3703 12.6123C28.9156 16.4738 27.9408 19.9388 25.471 22.9117H25.4688Z" fill="black"/>
<path d="M21.4246 21.57C21.6857 21.2854 21.9632 21.0148 22.231 20.7525C22.3779 20.6087 22.5441 20.4463 22.7014 20.2862C23.4544 19.5228 23.4529 18.6127 22.6977 17.8515C22.0811 17.2304 21.4758 16.6248 20.8978 16.0534C20.1359 15.2989 19.2256 15.2996 18.4644 16.0534C18.3205 16.1964 18.1847 16.3535 18.0541 16.5055C17.9911 16.5781 17.9325 16.6463 17.8739 16.7123L17.7952 16.8005L17.6914 16.7427C15.7558 15.6709 14.3002 14.2182 13.2415 12.3023L13.1851 12.2007L13.2704 12.1222C13.3387 12.0592 13.4077 11.9976 13.4766 11.9354C13.6235 11.8034 13.7741 11.6678 13.9129 11.5285C14.6763 10.7599 14.677 9.84228 13.9151 9.07516C13.3468 8.50297 12.7652 7.92189 12.136 7.29781C11.7569 6.92129 11.3311 6.72266 10.9045 6.72266C10.4779 6.72266 10.0558 6.91981 9.67815 7.29262C9.53051 7.43864 9.38213 7.58984 9.23895 7.73659C8.97112 8.01009 8.69811 8.28877 8.41396 8.54818C7.66316 9.23303 7.38866 10.1336 7.57488 11.3017C7.73513 12.3045 8.12981 13.3029 8.81681 14.4443C10.196 16.7338 12.0641 18.7364 14.3684 20.3959C15.4449 21.1712 16.9057 22.0984 18.6655 22.3956C19.8302 22.5921 20.7324 22.3223 21.4231 21.5707L21.4246 21.57ZM20.0758 20.7754C19.9 20.9296 19.6833 21.0052 19.414 21.0052C19.2041 21.0052 18.986 20.96 18.7931 20.92L18.75 20.9111C17.8472 20.7258 16.9598 20.3344 15.9568 19.6785C13.2934 17.9382 11.2205 15.7443 9.79611 13.1561C9.33168 12.3126 9.08092 11.5803 9.00673 10.8518C8.95406 10.3322 9.08686 9.94531 9.4259 9.63253C9.75234 9.33161 10.0676 9.00994 10.3726 8.69864C10.5054 8.56301 10.6359 8.42959 10.7658 8.29915L10.8704 8.1939L13.0285 10.3433L12.921 10.4486C12.8408 10.5264 12.7592 10.6057 12.6769 10.6857C12.4914 10.8651 12.3015 11.0489 12.116 11.235C11.6026 11.7501 11.5344 12.2511 11.8868 12.9085C13.0916 15.1528 14.8484 16.9035 17.1097 18.1116C17.7218 18.4392 18.2315 18.3688 18.7137 17.8908C18.9058 17.7003 19.0913 17.5031 19.2708 17.3134C19.351 17.2281 19.4274 17.1466 19.5023 17.0688L19.6069 16.9591L21.754 19.0959L21.6501 19.2012C21.5062 19.3472 21.3652 19.4947 21.2168 19.6503C20.8548 20.0291 20.4824 20.4182 20.0765 20.7754H20.0758Z" fill="black"/>
</g>
<defs>
<clipPath id="clip0_201_9925">
<rect width="30" height="30" fill="white"/>
</clipPath>
</defs>
</svg>
