<svg width="33" height="26" viewBox="0 0 33 26" fill="none" xmlns="http://www.w3.org/2000/svg">
<g clip-path="url(#clip0_201_9937)">
<path d="M33 3.79924C32.9849 1.70323 31.2312 0 29.0739 0H3.92983C1.7688 0 0.0150857 1.70323 0 3.80291C0 3.80658 0 3.81025 0 3.81759V3.82493V22.1787C0 24.2858 1.76126 26.0037 3.92983 26.0037H29.0739C31.2387 26.0037 33.0038 24.2894 33.0038 22.1787V3.82493C33.0038 3.82493 33.0038 3.82126 33.0038 3.81759C33.0038 3.81025 33.0038 3.80658 33.0038 3.79924H33ZM3.92983 1.53071H29.0739C30.2431 1.53071 31.2123 2.36397 31.3971 3.45051L16.5038 13.5965L1.60663 3.45051C1.79143 2.36397 2.76069 1.53071 3.92983 1.53071ZM29.0739 24.473H3.92983C2.62869 24.473 1.57269 23.4451 1.57269 22.1787V5.29324L16.0512 15.1566C16.187 15.2483 16.3454 15.2961 16.5 15.2961C16.6546 15.2961 16.8168 15.252 16.9488 15.1566L31.4273 5.29324V22.1787C31.4273 23.4451 30.3713 24.473 29.0702 24.473H29.0739Z" fill="#1E1E1E"/>
</g>
<defs>
<clipPath id="clip0_201_9937">
<rect width="33" height="26" fill="white"/>
</clipPath>
</defs>
</svg>
