<svg width="30" height="30" viewBox="0 0 30 30" fill="none" xmlns="http://www.w3.org/2000/svg">
<g clip-path="url(#clip0_201_9921)">
<path d="M29.2869 7.14171H24.6137C25.296 6.384 25.7143 5.38286 25.7143 4.28571C25.7143 1.92343 23.7909 0 21.4286 0C17.8149 0 15.9051 3.168 15 5.448C14.0949 3.168 12.1851 0 8.57143 0C6.20914 0 4.28571 1.92343 4.28571 4.28571C4.28571 5.38286 4.704 6.384 5.38629 7.14171H0.713143C0.318857 7.14171 0 7.46057 0 7.85486V14.9966C0 15.3909 0.318857 15.7097 0.713143 15.7097H2.856V29.28C2.856 29.6743 3.17486 29.9931 3.56914 29.9931H26.4274C26.8217 29.9931 27.1406 29.6743 27.1406 29.28V15.7097H29.2834C29.6777 15.7097 29.9966 15.3909 29.9966 14.9966V7.85486C29.9966 7.46057 29.6777 7.14171 29.2834 7.14171H29.2869ZM21.4286 1.42971C23.0023 1.42971 24.2846 2.712 24.2846 4.28571C24.2846 5.85943 23.0023 7.14171 21.4286 7.14171H15.9257C16.464 5.36229 18.0411 1.42629 21.4286 1.42629V1.42971ZM5.71543 4.28571C5.71543 2.712 6.99771 1.42971 8.57143 1.42971C11.9554 1.42971 13.5326 5.36571 14.0743 7.14514H8.57143C6.99771 7.14514 5.71543 5.86286 5.71543 4.28914V4.28571ZM1.42971 8.57143H14.2869V14.2869H1.42971V8.57143ZM4.28571 15.7131H14.2869V28.5703H4.28571V15.7131ZM25.7143 28.5703H15.7131V15.7131H25.7143V28.5703ZM28.5703 14.2834H15.7131V8.568H28.5703V14.2834Z" fill="#1E1E1E"/>
</g>
<defs>
<clipPath id="clip0_201_9921">
<rect width="30" height="30" fill="white"/>
</clipPath>
</defs>
</svg>
