<svg width="30" height="30" viewBox="0 0 30 30" fill="none" xmlns="http://www.w3.org/2000/svg">
<g clip-path="url(#clip0_201_10416)">
<path d="M21.2856 14.0882L14.367 7.17647C14.0137 6.82353 14.0137 6.23529 14.367 5.88235C14.5437 5.70588 14.7792 5.61764 15.0147 5.61764C15.2502 5.61764 15.4858 5.70588 15.6624 5.88235L24.1119 14.3529C24.1413 14.3824 24.2002 14.4412 24.2296 14.5C24.2591 14.5294 24.2591 14.5588 24.2591 14.5588C24.2885 14.5882 24.2885 14.6176 24.318 14.6471C24.318 14.6765 24.3474 14.7059 24.3474 14.7353C24.3474 14.7647 24.3768 14.7941 24.3768 14.8235C24.4063 14.9412 24.4063 15.0588 24.3768 15.1765C24.3768 15.2059 24.3474 15.2353 24.3474 15.2647C24.3474 15.2941 24.318 15.3235 24.318 15.3529C24.318 15.3824 24.2885 15.4118 24.2591 15.4412C24.2591 15.4706 24.2296 15.5 24.2296 15.5C24.2002 15.5588 24.1708 15.5882 24.1119 15.6471L15.633 24.1176C15.2797 24.4706 14.6909 24.4706 14.3376 24.1176C13.9843 23.7647 13.9843 23.1765 14.3376 22.8235L21.2856 15.9118L3.13898e-06 15.9118C0.471051 23.7647 7.00687 30 14.9853 30C22.9637 30 30 23.2941 30 15C30 6.70588 23.2875 -2.49417e-06 14.9853 -3.21998e-06C6.68303 -3.94578e-06 0.471052 6.23529 3.2984e-06 14.0882L21.2856 14.0882Z" fill="white"/>
</g>
<defs>
<clipPath id="clip0_201_10416">
<rect width="30" height="30" fill="white" transform="translate(30 30) rotate(-180)"/>
</clipPath>
</defs>
</svg>
