<svg width="30" height="30" viewBox="0 0 30 30" fill="none" xmlns="http://www.w3.org/2000/svg">
<g clip-path="url(#clip0_201_10427)">
<path d="M8.71443 15.9118L15.633 22.8235C15.9863 23.1765 15.9863 23.7647 15.633 24.1176C15.4563 24.2941 15.2208 24.3824 14.9853 24.3824C14.7498 24.3824 14.5142 24.2941 14.3376 24.1176L5.88813 15.6471C5.85868 15.6176 5.7998 15.5588 5.77036 15.5C5.74092 15.4706 5.74092 15.4412 5.74092 15.4412C5.71148 15.4118 5.71148 15.3824 5.68204 15.3529C5.68204 15.3235 5.6526 15.2941 5.6526 15.2647C5.6526 15.2353 5.62316 15.2059 5.62316 15.1765C5.59372 15.0588 5.59372 14.9412 5.62316 14.8235C5.62316 14.7941 5.6526 14.7647 5.6526 14.7353C5.6526 14.7059 5.68204 14.6765 5.68204 14.6471C5.68204 14.6176 5.71148 14.5882 5.74092 14.5588C5.74092 14.5294 5.77036 14.5 5.77036 14.5C5.7998 14.4412 5.82924 14.4118 5.88813 14.3529L14.367 5.88235C14.7203 5.52941 15.3091 5.52941 15.6624 5.88235C16.0157 6.23529 16.0157 6.82353 15.6624 7.17647L8.71443 14.0882L30 14.0882C29.5289 6.23529 22.9931 0 15.0147 0C7.03631 0 0 6.70588 0 15C0 23.2941 6.71246 30 15.0147 30C23.317 30 29.5289 23.7647 30 15.9118L8.71443 15.9118Z" fill="#1E1E1E"/>
</g>
<defs>
<clipPath id="clip0_201_10427">
<rect width="30" height="30" fill="white"/>
</clipPath>
</defs>
</svg>
