<svg width="20" height="20" viewBox="0 0 20 20" fill="none" xmlns="http://www.w3.org/2000/svg">
<g clip-path="url(#clip0_201_38601)">
<path d="M5.80962 10.6078L10.422 15.2157C10.6575 15.451 10.6575 15.8431 10.422 16.0784C10.3042 16.1961 10.1472 16.2549 9.99019 16.2549C9.83317 16.2549 9.67615 16.1961 9.55839 16.0784L3.92542 10.4314C3.90579 10.4118 3.86654 10.3725 3.84691 10.3333C3.82728 10.3137 3.82728 10.2941 3.82728 10.2941C3.80765 10.2745 3.80765 10.2549 3.78803 10.2353C3.78803 10.2157 3.7684 10.1961 3.7684 10.1765C3.7684 10.1569 3.74877 10.1373 3.74877 10.1176C3.72915 10.0392 3.72915 9.96078 3.74877 9.88235C3.74877 9.86275 3.7684 9.84314 3.7684 9.82353C3.7684 9.80392 3.78803 9.78431 3.78803 9.76471C3.78803 9.7451 3.80765 9.72549 3.82728 9.70588C3.82728 9.68627 3.84691 9.66667 3.84691 9.66667C3.86654 9.62745 3.88616 9.60784 3.92542 9.56863L9.57802 3.92157C9.81354 3.68627 10.2061 3.68627 10.4416 3.92157C10.6771 4.15686 10.6771 4.54902 10.4416 4.78431L5.80962 9.39216L20 9.39216C19.686 4.15686 15.3288 0 10.0098 0C4.69087 0 0 4.47059 0 10C0 15.5294 4.47498 20 10.0098 20C15.5447 20 19.686 15.8431 20 10.6078L5.80962 10.6078Z" fill="#B49CFF"/>
</g>
<defs>
<clipPath id="clip0_201_38601">
<rect width="20" height="20" fill="white"/>
</clipPath>
</defs>
</svg>
