<svg width="44" height="30" viewBox="0 0 44 30" fill="none" xmlns="http://www.w3.org/2000/svg">
<g clip-path="url(#clip0_201_9895)">
<path d="M29.9832 14.9886L30.4774 14.7008C31.2494 14.129 32.3636 14.121 33.1009 14.7893C33.9625 15.5696 33.9195 17.1506 33.9286 18.2288C33.948 20.5804 32.9081 22.9826 33.3998 25.3136C34.3641 29.8845 39.5884 30.225 43.2052 29.3591C44.3945 29.0742 44.1898 27.1225 42.9864 27.4107C40.6547 27.969 37.6799 28.3638 35.9358 26.2692C35.0102 25.1577 35.1535 23.7554 35.3822 22.4176C35.5997 21.1425 35.8119 19.9016 35.8342 18.603C35.8676 16.6454 35.7653 14.2992 34.045 13.0621C32.8231 12.1832 31.2341 12.1082 29.9316 12.7592" fill="#39E241"/>
<path d="M29.9904 14.0352C31.2974 13.8211 32.8823 13.7718 33.8066 14.9445C34.6091 15.9621 34.529 17.6294 34.5831 18.8707C34.6752 20.9817 34.1666 23.5217 34.7866 25.5746C35.9149 29.3103 40.3449 29.1995 43.375 28.669C43.6033 28.629 43.5637 28.2624 43.3337 28.3029C41.0145 28.7091 38.3291 29.0162 36.3785 27.354C34.2937 25.5775 35.0141 22.5151 34.9778 20.083C34.953 18.4119 35.1656 15.9372 33.9688 14.5834C32.9442 13.4246 31.3387 13.4415 29.9487 13.669C29.72 13.7065 29.7597 14.0735 29.99 14.0356" fill="black"/>
<path d="M29.4958 11.3715C29.0086 9.63714 28.3072 7.99257 27.4065 6.5452C24.3825 1.68734 18.2851 -0.147266 12.8891 0.128304C7.59959 0.398396 2.94169 3.45705 0.993992 8.5534C-0.398876 12.1982 -0.360896 16.2184 1.31723 19.5648C1.50053 20.7893 1.84854 21.983 2.39512 23.1089C5.07847 28.6392 10.9645 30.0874 16.5488 29.669C19.1512 29.4744 21.946 29.289 24.3995 28.3139C26.9503 27.3006 28.7221 25.2658 29.5329 22.6108C30.2413 20.2912 30.4465 17.7016 30.1996 15.1426C30.1996 15.1426 29.8322 13.0068 29.4962 11.3715" fill="#39E241"/>
<path d="M11.3639 4.96902C15.1062 8.47137 18.848 12.1157 20.1232 17.3237C20.1785 17.5508 20.5385 17.5116 20.4819 17.2816C19.1815 11.9691 15.4104 8.25689 11.5885 4.67997C11.4167 4.51901 11.193 4.8089 11.3639 4.9686" fill="black"/>
<path d="M13.4311 4.07946C18.1059 5.73077 20.1486 11.2097 21.9955 15.4149C22.0901 15.6311 22.4261 15.4945 22.3307 15.2771C20.4466 10.9864 18.3453 5.42655 13.5768 3.74196C13.358 3.66442 13.2111 4.00193 13.4311 4.07946Z" fill="black"/>
<path d="M16.2234 2.20846C21.2119 3.94109 24.9967 8.05483 25.5713 13.5085C25.5961 13.7445 25.9553 13.7027 25.9305 13.4664C25.3431 7.89176 21.4761 3.64403 16.3691 1.87053C16.1499 1.79426 16.0029 2.13135 16.2234 2.20804" fill="black"/>
<path d="M17.7299 0.709905C23.1016 2.00938 27.4296 8.13933 28.794 13.3309C28.8539 13.5597 29.1891 13.4202 29.1292 13.1931C27.7289 7.86586 23.2861 1.67608 17.7856 0.345428C17.559 0.290652 17.5049 0.65555 17.7299 0.709905Z" fill="black"/>
<path d="M2.72588 6.33417C5.85549 6.07672 8.96612 6.05017 11.9145 4.84677C14.1186 3.94716 16.4911 2.6578 17.9005 0.642437C18.0354 0.449454 17.7527 0.219391 17.6177 0.413217C16.1777 2.4724 13.7082 3.76303 11.4439 4.6382C8.63751 5.7232 5.64372 5.72488 2.68501 5.96801C2.453 5.98739 2.49428 6.35355 2.72629 6.33459" fill="black"/>
<path d="M4.58168 3.59466C6.76758 3.3292 9.2887 4.27305 11.3421 3.23271C12.4906 2.65039 14.238 1.60247 14.6451 0.26086C14.7132 0.0362749 14.3834 -0.114151 14.3144 0.11212C13.9231 1.4019 11.9097 2.68284 10.7427 3.10631C8.84078 3.79649 6.53475 2.98622 4.54081 3.22808C4.31004 3.25631 4.3505 3.62289 4.58209 3.59466" fill="black"/>
<path d="M28.9901 13.0825C24.2418 12.8318 19.941 16.4909 17.6139 20.4643C16.5909 22.2113 15.8734 24.1626 15.5122 26.1649C15.3062 27.3085 15.0734 28.7647 15.5109 29.8893C15.5968 30.1097 15.9324 29.9727 15.8462 29.7515C15.4337 28.6914 15.674 27.3059 15.8693 26.2218C16.1888 24.4487 16.7973 22.7219 17.6481 21.1427C19.8303 17.0922 24.1691 13.1954 28.9343 13.447C29.1647 13.4592 29.2221 13.0943 28.9901 13.0825Z" fill="black"/>
<path d="M29.9622 14.8064C26.944 15.1932 24.1401 16.6587 21.9918 18.8481C19.1367 21.7584 18.0212 25.5346 17.4854 29.522C17.4536 29.7575 17.8111 29.8144 17.8425 29.5793C18.3676 25.6733 19.4488 21.9729 22.2436 19.1177C24.335 16.9814 27.0604 15.5497 30.0035 15.173C30.2338 15.1435 30.1938 14.7769 29.9622 14.8064Z" fill="black"/>
<path d="M30.2788 16.9858C24.264 17.6941 20.871 23.7116 19.8715 29.3245C19.8298 29.5588 20.1869 29.6144 20.2286 29.3814C21.1984 23.9357 24.4721 18.0413 30.3201 17.3524C30.5513 17.325 30.5104 16.9584 30.2788 16.9858Z" fill="black"/>
<path d="M29.9827 20.7207C27.4937 20.6689 25.4408 21.6389 24.1544 23.8413C23.4435 25.059 22.4466 27.3681 23.2293 28.7826C23.3432 28.9886 23.6318 28.7657 23.5182 28.5614C22.8255 27.3095 23.858 25.0751 24.4706 24.0305C25.6806 21.9688 27.585 21.0372 29.9269 21.0856C30.156 21.0903 30.2142 20.7258 29.9827 20.7211" fill="black"/>
<path d="M15.1361 8.99303C13.9496 15.2043 9.06218 22.201 2.23118 22.1723C1.99918 22.1715 2.04252 22.5377 2.27247 22.5385C9.26157 22.568 14.279 15.4049 15.4931 9.04949C15.5377 8.81606 15.1802 8.76002 15.1361 8.99261" fill="black"/>
<path d="M1.75941 20.7C2.72996 20.5361 3.65386 19.9315 4.47331 19.4081C5.97145 18.4525 7.36267 17.3081 8.61517 16.0381C11.192 13.4253 13.4551 9.909 12.8483 6.03881C12.8115 5.80538 12.4524 5.84583 12.4891 6.08095C13.0881 9.89931 10.7957 13.3452 8.24281 15.897C7.11497 17.0245 5.87485 18.0429 4.55051 18.9211C3.71413 19.4756 2.72748 20.1632 1.71813 20.3335C1.48942 20.3722 1.52947 20.7388 1.75941 20.7Z" fill="black"/>
<path d="M10.3866 5.42598C9.22241 9.71543 5.25352 15.8218 0.227392 15.3612C-0.00337692 15.3402 -0.0603466 15.7046 0.17166 15.7257C5.42773 16.2069 9.52295 9.98089 10.7437 5.48287C10.8056 5.25407 10.4477 5.19971 10.3866 5.42598Z" fill="black"/>
<path d="M6.9027 5.95345C5.25925 8.38723 3.39287 10.971 0.28431 11.2929C0.0527156 11.3169 0.093998 11.6835 0.325592 11.6595C3.53695 11.3266 5.48218 8.70578 7.18549 6.18267C7.31718 5.98801 7.03481 5.75752 6.9027 5.95345Z" fill="black"/>
<path d="M3.49555 6.21283C3.06374 7.24727 2.16048 7.95768 1.0698 8.11358C0.839445 8.14645 0.879902 8.51303 1.11108 8.47974C2.3285 8.30572 3.34446 7.51609 3.82664 6.36157C3.91787 6.14288 3.5872 5.99414 3.49597 6.21283" fill="black"/>
<path d="M5.15755 22.1174C9.2024 23.7476 13.5527 25.6046 15.5471 29.8464C15.647 30.0592 15.9834 29.9231 15.8823 29.7082C13.8446 25.3754 9.44514 23.4493 5.30328 21.7799C5.08696 21.6927 4.94082 22.0302 5.15755 22.1174Z" fill="black"/>
<path d="M8.69763 20.2904C10.1627 20.3418 11.3397 21.3552 12.5142 22.1469C13.8076 23.0187 15.1596 23.9276 15.4543 25.6067C15.4952 25.8393 15.8548 25.7988 15.8135 25.5646C15.5257 23.9246 14.3678 22.9652 13.0686 22.0803C11.7699 21.1955 10.3836 19.9832 8.75336 19.9259C8.52383 19.9179 8.46562 20.2824 8.69763 20.2904Z" fill="black"/>
<path d="M11.1095 18.2784C13.5782 17.8958 15.8256 19.2353 16.7102 21.6172C16.7928 21.8393 17.1284 21.7019 17.0455 21.4795C16.1038 18.9437 13.6958 17.5048 11.0682 17.9122C10.8391 17.948 10.8787 18.3146 11.1095 18.2788" fill="black"/>
<path d="M12.7181 15.7388C13.9054 15.3525 15.1034 15.6697 16.0838 16.4042C16.5309 16.7392 17.0271 17.1281 17.3747 17.5671C17.8606 18.1802 17.9131 18.9437 17.9432 19.6984C17.9527 19.9356 18.3118 19.8926 18.3019 19.6562C18.2743 18.9564 18.2375 18.2194 17.8577 17.6101C17.4404 16.941 16.6808 16.3591 16.0479 15.9272C15.0241 15.2282 13.7671 15.0103 12.5827 15.3963C12.3614 15.4683 12.4968 15.8105 12.7177 15.7384" fill="black"/>
<path d="M13.9578 13.7041C16.5813 12.705 19.0335 15.719 19.2044 18.2345C19.2205 18.4718 19.5796 18.4292 19.5635 18.1924C19.3749 15.4199 16.6812 12.2727 13.8228 13.3615C13.6048 13.4445 13.7394 13.7871 13.9578 13.7037" fill="black"/>
<path d="M15.6243 3.33601C18.2321 4.03546 20.1245 6.41404 21.5136 8.63882C22.4326 10.1102 23.7247 12.1576 23.8271 13.972C23.8403 14.2092 24.1994 14.1666 24.1862 13.9298C24.0744 11.9461 22.6683 9.75711 21.6362 8.15468C20.207 5.9358 18.2915 3.67225 15.6796 2.97153C15.4546 2.91127 15.4013 3.27659 15.6239 3.33601" fill="black"/>
</g>
<defs>
<clipPath id="clip0_201_9895">
<rect width="44" height="30" fill="white"/>
</clipPath>
</defs>
</svg>
