<svg width="21" height="24" viewBox="0 0 21 24" fill="none" xmlns="http://www.w3.org/2000/svg">
<g clip-path="url(#clip0_201_38001)">
<path d="M15.4413 9.64841C15.3383 9.64841 15.2313 9.62294 15.1324 9.56351L5.25009 3.68449C4.95362 3.51045 4.85479 3.11993 5.02362 2.81431C5.19244 2.50868 5.57126 2.40681 5.86773 2.58084L15.7501 8.45562C16.0466 8.62966 16.1454 9.02018 15.9766 9.3258C15.8613 9.52955 15.6554 9.64416 15.4413 9.64416V9.64841Z" fill="#1E1E1E"/>
<path d="M10.5 23.9065C10.0141 23.9065 9.52824 23.7792 9.09176 23.5203L1.40824 18.9911C0.539412 18.4732 0 17.5139 0 16.4824V7.42828C0 6.3968 0.539412 5.43324 1.40824 4.91962L9.09588 0.386191C9.96059 -0.127428 11.0394 -0.127428 11.9082 0.386191L19.5918 4.91113C20.4606 5.42899 21 6.38831 21 7.41979V16.4739C21 17.5054 20.4606 18.469 19.5918 18.9826L11.9041 23.5118C11.4718 23.7707 10.9859 23.898 10.5 23.898V23.9065ZM10.5 1.27335C10.2282 1.27335 9.95647 1.34551 9.70941 1.48983L2.02176 6.01902C1.54 6.30766 1.23529 6.84675 1.23529 7.42404V16.4782C1.23529 17.0555 1.54 17.5945 2.02588 17.8832L9.70941 22.4081C10.1994 22.701 10.8047 22.701 11.2906 22.4081L18.9782 17.8789C19.4641 17.5903 19.7647 17.0512 19.7647 16.4739V7.41979C19.7647 6.8425 19.46 6.30342 18.9741 6.01477L11.2906 1.48983C11.0476 1.34551 10.7718 1.27335 10.5 1.27335Z" fill="#1E1E1E"/>
<path d="M10.5003 12.6028C10.3932 12.6028 10.2861 12.5731 10.1914 12.5179L0.605556 6.80021C0.309086 6.62617 0.210262 6.23565 0.379086 5.93003C0.547909 5.6244 0.926733 5.52253 1.2232 5.69657L10.5003 11.2275L19.7773 5.69657C20.0738 5.52253 20.4485 5.6244 20.6214 5.93003C20.7903 6.23565 20.6914 6.62193 20.395 6.80021L10.8091 12.5179C10.7144 12.5731 10.6073 12.6028 10.5003 12.6028Z" fill="#1E1E1E"/>
<path d="M10.5005 23.9998C10.1587 23.9998 9.88281 23.7154 9.88281 23.3631V11.9531C9.88281 11.6008 10.1587 11.3164 10.5005 11.3164C10.8422 11.3164 11.1181 11.6008 11.1181 11.9531V23.3631C11.1181 23.7154 10.8422 23.9998 10.5005 23.9998Z" fill="#1E1E1E"/>
</g>
<defs>
<clipPath id="clip0_201_38001">
<rect width="21" height="24" fill="white"/>
</clipPath>
</defs>
</svg>
