<svg width="25" height="22" viewBox="0 0 25 22" fill="none" xmlns="http://www.w3.org/2000/svg">
<path d="M23.9503 5.18249C20.5664 5.18249 17.1818 5.18249 13.7979 5.18249C11.3252 5.18249 8.85169 5.18033 6.37896 5.18681C6.17258 5.18681 6.09734 5.13783 6.0653 4.92898C5.93492 4.08562 5.77698 3.24658 5.6317 2.40611C5.41489 1.15296 4.48287 0.211655 3.1843 0.0553707C2.45119 -0.0332141 1.70021 0.0121586 0.957421 0.00783744C0.393438 0.00495663 -0.00589435 0.376581 6.58333e-05 0.879281C0.00602602 1.36758 0.404614 1.72696 0.953696 1.72984C1.50203 1.73344 2.05112 1.72984 2.59945 1.73056C3.36608 1.73056 3.77137 2.06113 3.8943 2.7907C4.12079 4.13747 4.34132 5.48425 4.57153 6.83031C5.1154 10.0093 5.66224 13.1875 6.21133 16.3658C6.32531 17.0233 6.62258 17.2581 7.308 17.2581C7.35419 17.2581 7.39964 17.2581 7.44583 17.2581C6.73061 17.7183 6.25752 18.4997 6.24858 19.3899C6.23517 20.8137 7.4354 21.9934 8.90309 21.9985C10.3857 22.0035 11.5934 20.8548 11.6016 19.4317C11.6068 18.5271 11.1315 17.7262 10.4095 17.2581C11.6999 17.2581 12.9903 17.2581 14.2807 17.2581C15.5711 17.2581 16.8622 17.2581 18.1533 17.2581C17.4381 17.7212 16.962 18.5098 16.959 19.3978C16.9538 20.8368 18.1578 22.0006 19.6501 21.9985C21.1081 21.9963 22.3113 20.8332 22.3128 19.4245C22.3135 18.5185 21.8397 17.7234 21.117 17.2581C21.1625 17.2581 21.2079 17.2581 21.2533 17.2581C21.9216 17.2581 22.201 17.0492 22.3604 16.4299C23.2232 13.0874 24.0867 9.74496 24.9487 6.40179C25.1453 5.63837 24.7706 5.18033 23.9503 5.18033V5.18249ZM8.92544 20.2736C8.42777 20.2736 8.02248 19.8739 8.03365 19.3928C8.04408 18.9232 8.45012 18.5458 8.93811 18.5509C9.42014 18.5559 9.82096 18.9513 9.81649 19.418C9.81202 19.889 9.41269 20.2729 8.92619 20.2736H8.92544ZM19.653 20.2743C19.1539 20.2815 18.7419 19.8897 18.7441 19.4093C18.7463 18.9391 19.1464 18.5523 19.6322 18.5516C20.1194 18.5509 20.5202 18.9319 20.5269 19.4029C20.5337 19.8696 20.1351 20.2671 19.653 20.2743ZM20.7251 15.5347H20.4063C16.3436 15.5347 12.281 15.5332 8.21842 15.5383C7.9964 15.5383 7.88763 15.5145 7.84367 15.2538C7.3825 12.5077 6.90047 9.76441 6.4244 7.02116C6.41993 6.99523 6.4244 6.96787 6.4244 6.92465H22.952C22.2107 9.79178 21.4731 12.6445 20.7251 15.5354V15.5347Z" fill="white"/>
</svg>
