<svg width="24" height="24" viewBox="0 0 24 24" fill="none" xmlns="http://www.w3.org/2000/svg">
<path d="M7.49983 7.66938V6.69938C7.49983 4.44938 9.30983 2.23938 11.5598 2.02938C12.185 1.96795 12.8161 2.0381 13.4125 2.23531C14.009 2.43252 14.5575 2.75242 15.0228 3.17442C15.4882 3.59642 15.86 4.11117 16.1144 4.68555C16.3687 5.25992 16.5 5.88119 16.4998 6.50938V7.88938M8.99983 21.9994H14.9998C19.0198 21.9994 19.7398 20.3894 19.9498 18.4294L20.6998 12.4294C20.9698 9.98938 20.2698 7.99938 15.9998 7.99938H7.99983C3.72983 7.99938 3.02983 9.98938 3.29983 12.4294L4.04983 18.4294C4.25983 20.3894 4.97983 21.9994 8.99983 21.9994Z" stroke="#1E1E1E" stroke-width="1.5" stroke-miterlimit="10" stroke-linecap="round" stroke-linejoin="round"/>
<path d="M15.4951 12H15.5051M8.49512 12H8.50312" stroke="#1E1E1E" stroke-width="2" stroke-linecap="round" stroke-linejoin="round"/>
</svg>
