<svg width="29" height="29" viewBox="0 0 29 29" fill="none" xmlns="http://www.w3.org/2000/svg">
<path d="M7.51683 3.11992C9.17413 3.11992 10.3849 3.97085 10.6641 5.40796H14.1466C13.7556 2.06115 11.26 0 7.49831 0C3.19637 0 0.533203 2.98754 0.533203 6.92053C0.533203 10.8535 3.19637 13.8599 7.49831 13.8599C11.2603 13.8599 13.7556 11.7987 14.1466 8.43309H10.6641C10.3849 9.8702 9.1744 10.7399 7.51683 10.7399C5.48683 10.7399 4.03415 9.56758 4.03415 6.92053C4.03415 4.27347 5.48683 3.11965 7.51683 3.11965V3.11992Z" fill="#1E1E1E"/>
<path d="M28.4662 6.92042C28.4662 1.19104 24.7415 0.264648 21.1474 0.264648H16.1191V13.595H21.1474C24.7415 13.595 28.4662 12.6686 28.4662 6.92042ZM19.5084 3.27098H21.1472C23.3818 3.27098 25.0766 3.3467 25.0766 6.92042C25.0766 10.4941 23.4006 10.5696 21.1472 10.5696H19.5084V3.27098Z" fill="#1E1E1E"/>
<path d="M9.86342 21.0395L5.5988 19.9617C4.77929 19.7348 4.57441 19.4133 4.57441 19.0353C4.57441 18.2788 5.2261 17.9574 6.47391 17.9574C8.2617 17.9574 9.06243 18.5624 9.06243 19.9995H12.5451C12.5451 17.1065 10.5151 15.1401 6.41806 15.1401C2.97296 15.1401 1.07319 16.5203 1.07319 19.1107C1.07319 20.7935 1.78101 22.1361 4.05294 22.7602L8.44806 23.9325C9.19293 24.1215 9.56536 24.4808 9.56536 24.9534C9.56536 25.7856 8.85755 26.1258 7.20025 26.1258C4.76049 26.1258 4.03442 25.4263 4.03442 23.5354H0.533203C0.533203 26.9958 2.48856 29 7.12587 29C11.3346 29 13.048 27.336 13.048 24.8022C13.048 22.8547 12.0424 21.5878 9.86342 21.0395Z" fill="#1E1E1E"/>
<path d="M26.6971 21.2002H21.8738V23.8284H25.0396C24.9094 25.1332 23.6801 25.9841 21.7432 25.9841C19.2106 25.9841 18.093 24.4903 18.093 22.1268C18.093 19.6121 19.3781 18.1184 21.5569 18.1184C23.0654 18.1184 24.2944 18.9314 24.5179 20.1795H28.0003C27.5535 17.1729 24.853 15.1499 21.3705 15.1499C17.2735 15.1499 14.5918 17.8351 14.5918 22.1837C14.5918 26.287 16.9942 28.991 20.8679 28.991C23.4005 28.991 24.574 27.7429 25.0954 26.722V28.7453H28.4661V22.9971C28.4661 21.8435 27.7957 21.2007 26.6969 21.2007L26.6971 21.2002Z" fill="#1E1E1E"/>
</svg>
