<svg width="126" height="388" viewBox="0 0 126 388" fill="none" xmlns="http://www.w3.org/2000/svg">
<g clip-path="url(#clip0_201_16700)">
<path d="M15.2138 235.478C14.9798 234.154 14.9249 232.36 14.764 231.033C14.6104 230.661 14.4349 230.289 14.4129 229.906C13.6303 217.793 10.4412 205.969 10.145 193.783C10.0463 189.837 9.08078 185.921 8.71507 181.972C7.65815 170.516 6.21723 159.092 6.47323 147.533C6.59392 142.122 5.37608 136.653 5.78203 131.286C6.24649 125.182 6.29769 119.122 6.177 113.025C6.08191 108.212 6.08557 103.399 6.15871 98.5858C6.18066 97.1017 6.50249 95.6104 6.81334 94.1446C6.82432 94.0899 6.8426 94.0352 6.86454 93.9842C6.87917 93.4008 6.90843 92.8174 6.95232 92.234C7.20466 89.0106 7.97632 85.8894 8.82478 82.7865C8.80284 81.5795 8.78455 80.3763 8.7809 79.1693C8.75895 74.6006 8.92352 70.0573 9.25998 65.5177C8.13724 55.8296 8.46638 46.1815 9.13564 36.4934C9.26364 34.6046 10.1158 31.8991 7.86661 31.5891C6.29403 31.374 6.11483 34.3639 5.66134 36.0923C5.65768 36.1142 5.64671 36.1287 5.63574 36.147C5.66134 36.1178 5.67231 36.0996 5.70888 36.0558C5.32854 39.7604 5.03231 42.8962 4.67025 46.0211C4.39962 48.3511 3.51459 50.743 3.81082 52.9855C5.02134 62.1121 2.6259 71.0272 2.4979 80.0736C2.40281 86.8229 1.18132 93.5576 0.460864 100.3C0.413321 100.726 0.31092 101.153 0.318235 101.576C0.457207 107.844 0.779036 114.112 0.716865 120.376C0.651036 127.103 -0.285196 133.853 0.0768624 140.54C0.848522 154.727 1.5763 168.941 3.64259 183.03C5.4346 195.278 7.42775 207.493 9.14661 219.751C10.0463 226.169 11.4872 232.51 11.4214 239.077C11.3409 247.029 11.8273 254.985 11.8748 262.945C11.9151 269.457 13.9777 275.817 13.0854 282.402C12.8696 283.988 13.495 285.705 13.8387 287.339C13.8936 287.598 14.4861 287.871 14.8518 287.897C15.0749 287.911 15.5174 287.499 15.543 287.24C15.9672 283.452 16.7389 279.645 16.6401 275.86C16.3658 265.18 15.7222 254.508 15.2394 243.835C15.1846 242.581 15.1736 241.316 15.2504 240.065" fill="#F4F4F4"/>
<path d="M124.91 53.7305C125.192 54.3722 125.506 54.7077 125.546 55.2583C125.751 58.0586 126.055 60.8808 125.993 63.765C125.898 68.1588 125.203 72.7968 125.36 76.99C125.528 81.4422 124.522 85.9745 125.078 90.2041C124.054 96.0418 124.698 102.065 123.795 107.918C123.279 111.24 124.113 114.335 123.403 117.861C122.774 120.99 122.453 124.454 122.869 127.743C121.604 134.999 122.153 142.63 120.938 149.93C120.657 151.637 120.719 153.598 120.617 155.44C120.514 157.281 120.452 159.13 120.277 160.953C119.823 165.718 118.653 170.327 119.106 175.315C119.168 175.972 118.62 177.164 118.364 178.119C118.188 178.758 117.866 179.498 117.885 180.045C118.152 188.508 116.177 196.245 115.38 204.351C114.944 208.755 113.836 213.062 114.385 217.59C113.361 224.81 113.152 232.536 111.002 239.074C110.431 240.81 110.216 243.278 109.89 245.441C109.119 250.531 108.383 255.636 107.615 260.729C107.575 260.988 107.37 261.346 107.275 261.313C107.151 261.273 107.001 260.963 106.964 260.66C106.804 259.34 106.405 257.78 106.588 256.671C107.853 249.007 107.191 240.945 108.665 233.371C108.61 228.93 108.863 224.504 109.484 220.088C108.819 216.048 110.267 211.826 110.062 207.997C109.854 204.059 110.567 200.606 110.837 196.931C111.082 193.634 111.049 190.294 111.324 187.009C111.602 183.68 112.249 180.438 111.832 177.066C111.726 176.202 112.041 174.867 112.18 173.755C112.823 168.574 113.474 163.396 114.122 158.214C113.416 153.226 115.299 147.855 114.615 142.798C114.502 141.959 114.846 140.607 114.966 139.491C115.402 135.465 116.173 131.629 115.866 127.301C115.709 125.07 116.407 122.178 116.714 119.582C117.106 116.29 117.669 113.139 117.413 109.613C117.27 107.681 117.804 105.227 118.027 103.006C118.503 98.2442 119.754 93.5915 119.135 88.6727C120.573 77.9818 121.981 67.2727 123.495 56.622C123.659 55.4624 124.438 54.6603 124.914 53.7341L124.91 53.7305Z" fill="#F4F4F4"/>
<path d="M41.0588 0.132654C41.2965 0.500928 41.5306 1.0661 41.5891 1.63857C41.728 3.03873 41.4684 4.38421 41.0624 5.64947C40.4371 7.58928 40.214 9.62026 40.5541 11.6877C40.8247 13.3322 40.8832 14.9985 40.7845 16.7815C40.587 20.2747 40.459 23.7678 40.2835 27.2646C40.1482 29.9409 40.5139 32.1105 41.761 33.1533C42.4558 33.7294 42.7703 34.6738 43.0483 35.9682C43.7248 39.1004 43.67 42.681 44.2844 45.8387C44.054 50.4038 45.1585 54.5679 44.7196 59.2023C44.6538 59.8878 44.5879 60.7082 44.7159 61.2697C45.6156 65.2114 45.0597 69.4483 44.833 73.5941C44.1527 86.1701 43.425 98.7461 42.7118 111.322C42.5728 113.772 42.4851 116.157 42.8727 118.516C43.0739 119.745 42.9715 121.244 42.9349 122.626C42.8288 126.436 42.3168 130.341 43.1287 133.929C43.0592 136.022 42.9751 138.119 42.9203 140.212C42.8142 144.361 42.2547 148.569 42.9751 152.613C43.1909 153.805 43.0007 155.362 42.9386 156.755C42.8179 159.548 42.6533 162.344 42.518 165.141C42.4485 166.538 42.2291 168.051 42.3863 169.312C43.019 174.414 42.5838 179.635 42.2949 184.842C42.0206 189.732 41.7719 193.101 41.4611 197.99C41.4172 198.691 41.3696 199.387 41.3258 200.087C41.238 201.502 41.0222 202.833 40.609 204.087C40.097 205.651 39.947 207.405 39.7788 209.144C39.4862 212.258 39.2448 216.893 38.3781 219.853C38.0599 220.936 38.1075 222.676 38.2793 223.915C38.7072 227.037 38.5939 229.954 37.782 233.042C37.3724 234.592 37.2115 236.419 37.0688 238.136C36.6958 242.665 36.3923 247.208 36.0668 251.744C35.862 254.628 35.1342 257.082 34.176 259.332C34.0882 259.54 33.8359 259.689 33.7189 259.609C33.4153 259.405 33.0606 259.186 32.8887 258.726C32.7095 258.238 32.6364 257.472 32.6546 256.816C32.7278 254.373 32.8594 251.93 32.9545 249.487C33.0094 248.09 33.2434 246.541 33.0533 245.323C32.2048 239.886 32.4169 231.186 32.6876 225.662C33.1703 215.879 34.4832 207.664 35.0391 197.881C35.1378 196.145 35.1964 197.236 34.9404 195.741C34.2967 192.007 34.7977 186.683 34.9879 182.873C35.1964 178.68 35.2512 177.528 35.4962 173.334C35.5986 171.57 35.573 169.874 35.3134 168.211C35.1671 167.263 35.2951 163.172 35.2914 162.151C35.2914 161.116 35.4048 160.058 35.5182 158.184C35.5474 157.976 35.5767 156.791 35.8766 155.974C36.747 153.597 36.4398 151.413 36.2423 149.021C36.1436 147.847 36.608 146.396 36.8165 145.068C36.2642 142.432 36.6153 139.599 36.758 136.828C37.1273 129.842 37.5223 122.852 37.9173 115.865C38.0745 113.072 38.2611 110.327 37.7564 107.643C37.5333 106.451 37.6467 104.916 37.7015 103.537C37.8368 100.044 38.0416 96.5474 38.1916 93.0543C38.2501 91.6651 38.4366 90.1154 38.2281 88.9194C37.6979 85.8967 37.9173 82.7827 38.0453 79.6542C38.1879 76.1793 38.6341 72.6315 37.8149 69.4119C37.8405 66.9762 38.1513 64.3326 37.8295 62.1558C37.3212 58.7575 37.4163 55.3737 37.5516 51.8842C37.5918 50.8523 37.654 49.6928 37.4748 48.8141C36.9372 46.1851 37.0908 43.4176 37.1968 40.6245C37.248 39.2353 37.4309 37.6565 37.1932 36.4969C36.5056 33.157 36.8384 29.7039 37.0652 26.2254C37.3139 22.3822 37.5699 18.5427 37.8076 14.6995C37.9173 12.9311 38.1879 11.2975 38.6341 9.66037C38.9705 8.42793 39.0985 6.9913 39.2851 5.63124C39.4716 4.26024 39.6105 2.87101 39.7824 1.48907C39.8958 0.595731 40.7479 -0.345008 41.0624 0.139947L41.0588 0.132654Z" fill="#F4F4F4"/>
<path d="M73.5455 53.7685C73.8636 53.6373 74.1635 53.8524 74.2037 54.3082C74.3793 56.3319 74.8072 58.2899 74.756 60.3829C74.7194 62.0055 75.0485 63.639 75.0595 65.2689C75.0742 67.7338 75.6081 70.1768 75.2168 72.6562C75.8934 75.3326 75.3045 77.9798 75.1436 80.6379C75.0303 82.4793 74.734 84.2988 75.1583 86.1766C75.3265 86.9059 75.1912 87.8138 75.129 88.6306C74.9717 90.6907 74.7633 92.7399 74.6024 94.8C74.5365 95.6168 74.3866 96.5065 74.5329 97.254C74.9717 99.5584 74.5621 101.775 74.4049 104.021C74.2367 106.472 73.7173 108.882 74.2879 111.394C74.4524 112.113 74.2513 113.031 74.1781 113.848C73.9953 115.905 73.7649 117.95 73.5967 120.007C73.4321 122.049 73.0517 124.105 73.5967 126.151C73.5235 127.591 73.4833 129.039 73.3626 130.472C73.2419 131.919 73.1797 133.323 73.465 134.771C73.6149 135.525 73.5345 136.408 73.476 137.221C73.3589 138.869 73.1688 140.506 73.0408 142.151C72.9749 142.967 72.8287 143.875 72.9896 144.612C73.4504 146.69 73.1724 148.71 72.9969 150.759C72.8396 152.597 72.4812 154.442 73.0371 156.273C72.9457 157.917 72.8835 159.569 72.7592 161.21C72.6348 162.854 72.4154 164.473 72.7848 166.132C72.9091 166.686 72.8506 167.357 72.8104 167.966C72.7043 169.618 72.6531 171.292 72.4081 172.9C72.1923 174.322 72.8323 175.758 72.2728 177.122C72.2947 178.336 72.3605 179.554 72.3313 180.768C72.3057 181.797 72.174 182.828 72.0826 183.853C71.9729 185.085 71.8229 186.311 71.7352 187.547C71.6181 189.18 71.3694 190.792 71.7461 192.469C71.9107 193.195 71.7717 194.106 71.7022 194.916C71.395 198.409 71.0659 201.898 70.7404 205.388C70.6051 206.825 70.4881 208.232 70.7733 209.691C70.9196 210.445 70.8538 211.328 70.788 212.137C70.5283 215.226 70.2284 218.299 69.9432 221.38C69.8664 222.201 69.6981 223.04 69.7566 223.842C69.8846 225.683 70.1333 227.492 69.8517 229.369C69.6104 230.985 69.497 232.644 69.3288 234.281C69.1386 236.126 68.9667 237.975 68.7473 239.812C68.6485 240.615 68.5498 241.486 68.2645 242.153C67.716 243.433 67.5111 244.826 67.4234 246.27C67.2295 249.431 66.2933 252.199 65.4119 254.999C65.2803 255.415 64.9804 255.455 64.7025 255.422C64.3806 255.382 64.1758 255.192 64.099 254.707C64.0698 254.51 64.0149 254.306 64.0332 254.117C64.1575 252.892 64.3002 251.67 64.4355 250.445C65.3973 248.516 65.4778 246.201 65.6935 243.955C65.9093 241.716 66.2823 239.51 65.8471 237.187C65.6753 236.265 65.9642 235.145 66.0373 234.117C66.1434 232.677 66.2458 231.233 66.3482 229.792C65.6753 226.277 66.3262 222.817 66.5383 219.335C66.5895 218.522 66.5091 217.694 66.4871 216.87C66.4835 216.673 66.4213 216.418 66.4798 216.283C67.4892 214.008 67.1052 211.561 67.0028 209.089C66.9333 207.463 67.2259 205.8 67.3575 204.152C67.4746 202.712 67.7891 201.231 67.6648 199.842C67.4746 197.793 67.6172 195.707 67.3246 193.702C67.1418 192.455 67.0942 191.262 67.2149 190.026C67.3356 188.797 67.4855 187.569 67.5697 186.332C67.7708 183.266 68.3962 180.229 67.8074 177.1C67.7013 176.535 67.8476 175.868 67.8732 175.248C67.9719 172.994 68.4401 170.734 67.8147 168.495C67.8842 167.255 67.9354 166.012 68.0305 164.779C68.1109 163.74 68.1036 162.741 67.9317 161.706C67.8001 160.925 67.7745 160.068 67.822 159.263C67.9098 157.811 67.9756 156.407 67.6794 154.964C67.5258 154.209 67.6026 153.326 67.6611 152.513C67.7489 151.263 67.7708 150.052 67.5185 148.823C67.4014 148.247 67.3502 147.573 67.4307 146.993C67.8366 144.083 66.915 141.272 67.1893 138.384C66.8199 136.984 66.8711 135.554 67.0211 134.103C67.171 132.67 67.2149 131.259 66.9626 129.801C66.798 128.838 66.8967 127.759 66.9443 126.738C67.0211 125.097 67.3393 123.445 66.7943 121.848C66.8602 120.408 66.9004 118.964 66.9918 117.527C67.1125 115.686 67.4197 113.888 67.0686 111.989C66.8931 111.048 67.0467 109.939 67.1454 108.926C67.7562 102.567 68.3889 96.2075 69.0289 89.8557C70.02 80.0144 71.022 70.1768 72.0241 60.3428C72.2325 58.3008 72.3386 56.2188 72.8762 54.2899C72.953 54.0201 73.3004 53.8706 73.5418 53.7685H73.5455Z" fill="#F4F4F4"/>
<path d="M79.1517 387.999C78.3289 343.084 79.4443 390.919 78.6214 346.001C78.2703 326.781 78.4459 305.885 90.2878 290.712C94.9433 284.747 101.15 285.834 104.88 279.26C108.61 272.682 105.721 266.512 99.3721 262.388C91.33 257.167 85.9321 267.238 79.3053 274.158C78.6105 268.569 76.098 250.563 71.3108 246.979C68.8641 245.145 65.58 244.645 62.8554 246.035C59.4762 247.759 59.1251 251.132 58.8655 254.253C58.3132 260.879 57.761 267.504 57.2088 274.129C53.0835 267.748 46.102 263.409 38.6231 262.104C32.8338 261.094 28.7488 265.812 28.2624 271.653C27.7614 277.684 33.8761 280.412 35.6316 284.747C29.7947 284.558 18.165 284.033 15.2868 289.21C9.26713 300.047 37.4053 310.599 37.4053 310.599C37.4053 310.599 38.912 374.978 37.5662 387.995" fill="#39E241"/>
<path d="M102.872 270.858C105.388 266.468 107.908 262.078 110.424 257.684C111.927 255.059 107.868 252.696 106.365 255.318C103.849 259.708 101.329 264.098 98.8127 268.492C97.3097 271.117 101.369 273.48 102.872 270.858Z" fill="black"/>
<path d="M70.4221 251.298V236.906C70.4221 233.887 65.719 233.884 65.719 236.906V251.298C65.719 254.317 70.4221 254.321 70.4221 251.298Z" fill="black"/>
<path d="M39.5193 269.804C39.5376 265.356 38.3965 261.111 36.1584 257.264C34.6406 254.654 30.5739 257.013 32.0989 259.631C33.9348 262.789 34.8308 266.158 34.8162 269.804C34.8052 272.823 39.5083 272.827 39.5193 269.804Z" fill="black"/>
<path d="M23.5668 293.949C20.1254 291.78 17.858 288.48 16.9327 284.545C16.2415 281.606 11.7067 282.85 12.3979 285.792C13.5974 290.904 16.7535 295.203 21.1933 298C23.7606 299.615 26.1232 295.561 23.5668 293.953V293.949Z" fill="black"/>
</g>
<defs>
<clipPath id="clip0_201_16700">
<rect width="126" height="388" fill="white"/>
</clipPath>
</defs>
</svg>
