<svg width="21" height="13" viewBox="0 0 21 13" fill="none" xmlns="http://www.w3.org/2000/svg">
<g clip-path="url(#clip0_201_15750)">
<path d="M20.9994 8.77869C20.9994 8.37008 20.8847 8.23828 20.4646 8.15942C19.6259 8.00169 19.0271 7.30514 19.0304 6.4932C19.0338 5.68073 19.6398 4.98895 20.479 4.83863C20.8697 4.76876 20.9988 4.6232 20.9988 4.24687C20.9994 3.23645 20.9988 2.2255 20.9988 1.21508C20.9988 0.427486 20.5531 0.000345662 19.73 0.000345662C16.6541 0.000345662 13.5783 0.000345662 10.5019 0.000345662C7.39822 0.000345662 4.29455 -0.000712927 1.19088 0.000874956C0.476315 0.000874956 0.00216672 0.451834 0.0010537 1.12986C-0.000615842 2.1731 -5.93293e-05 3.21687 0.0010537 4.26064C0.0010537 4.62109 0.136286 4.77088 0.514715 4.83757C1.35727 4.98736 1.96332 5.67385 1.96944 6.48685C1.97556 7.30725 1.37007 8.00698 0.520836 8.16154C0.127382 8.23246 0.0010537 8.37537 0.0010537 8.75276C0.000497183 9.78329 -5.93293e-05 10.8133 0.0010537 11.8438C0.00161021 12.5499 0.468524 12.9993 1.20646 12.9993C7.39989 13.0003 13.5933 12.9998 19.7873 12.9993C20.5286 12.9993 20.9983 12.5526 20.9994 11.8497C21.0011 10.826 20.9994 9.80235 20.9994 8.77816V8.77869ZM19.735 12.0518C15.6669 12.0476 11.5988 12.0487 7.53067 12.0487C7.47001 12.0487 7.40935 12.0487 7.3281 12.0487C7.3281 11.7337 7.33422 11.4379 7.32643 11.1431C7.31697 10.7789 7.00532 10.5561 6.66696 10.6619C6.46495 10.7249 6.33472 10.8927 6.33083 11.1145C6.32582 11.4172 6.32971 11.7195 6.32971 12.0381C6.24735 12.0423 6.18057 12.0487 6.11379 12.0487C4.50324 12.0492 2.89269 12.0492 1.28215 12.0487C1.01057 12.0487 1.00111 12.0397 1.00111 11.7803C1.00111 10.9218 1.005 10.0633 0.997211 9.20478C0.996098 9.06769 1.04285 9.01264 1.17363 8.96606C2.26049 8.5765 2.9656 7.60578 2.97005 6.50802C2.9745 5.40497 2.26717 4.42578 1.16973 4.03251C1.03505 3.98434 0.996655 3.924 0.997211 3.79115C1.00389 2.9194 1.00333 2.04766 0.998324 1.17591C0.997211 1.01924 1.04618 0.948312 1.22371 0.948841C2.88268 0.952546 4.5422 0.950958 6.20116 0.951488C6.23511 0.951488 6.2685 0.956251 6.32916 0.961544C6.32916 1.27065 6.32637 1.56018 6.32971 1.85023C6.33361 2.14981 6.53228 2.35835 6.81444 2.36576C7.1016 2.37317 7.32031 2.15987 7.32698 1.85288C7.33311 1.56282 7.3281 1.27224 7.3281 0.951488H7.55571C11.6032 0.951488 15.6502 0.951488 19.6977 0.951488C19.8984 0.951488 19.999 1.04764 19.9993 1.23995C19.9993 2.09159 19.9954 2.94375 20.0032 3.79539C20.0043 3.933 19.957 3.98699 19.8263 4.03357C18.7411 4.42154 18.0343 5.39386 18.0304 6.49161C18.0265 7.59572 18.7333 8.57386 19.8307 8.96712C19.9648 9.01529 20.0043 9.07563 20.0032 9.20848C19.9965 10.0733 19.9949 10.9387 20.0032 11.8036C20.0055 11.9989 19.9314 12.0519 19.735 12.0513V12.0518Z" fill="#1E1E1E"/>
<path d="M15.5863 3.96936C15.6659 3.78146 15.6119 3.58191 15.4516 3.448C15.293 3.31515 15.066 3.27969 14.8924 3.38872C14.7922 3.45171 14.7059 3.54645 14.6375 3.64225C13.4254 5.34076 12.2166 7.04138 11.0085 8.74201C10.9623 8.80711 10.9127 8.87327 10.8816 8.94525C10.7463 9.2586 10.9906 9.59576 11.3468 9.59364C11.5561 9.59258 11.6902 9.48196 11.8015 9.32529C13.0286 7.59661 14.2585 5.87005 15.4861 4.14191C15.5245 4.08739 15.5607 4.03023 15.5863 3.96936Z" fill="#1E1E1E"/>
<path d="M12.6505 4.69564C12.6494 3.8493 11.9242 3.16122 11.0321 3.16016C10.135 3.1591 9.41546 3.83871 9.41212 4.68929C9.40878 5.54992 10.1334 6.24012 11.036 6.23589C11.9281 6.23218 12.6521 5.54145 12.6505 4.69564ZM10.4116 4.69564C10.4116 4.36801 10.6893 4.10812 11.0355 4.1113C11.3705 4.11395 11.6437 4.37065 11.6504 4.68876C11.6571 5.0111 11.3755 5.28263 11.0332 5.28475C10.6899 5.28686 10.4116 5.02274 10.4122 4.69617L10.4116 4.69564Z" fill="#1E1E1E"/>
<path d="M15.4686 6.76181C14.5682 6.75281 13.833 7.4446 13.833 8.30046C13.833 9.14892 14.5531 9.83436 15.4486 9.83754C16.3407 9.84071 17.0691 9.15686 17.0764 8.30999C17.0836 7.46577 16.3618 6.77133 15.4692 6.76233L15.4686 6.76181ZM15.4463 8.88586C15.1024 8.88269 14.8264 8.61381 14.8331 8.28829C14.8397 7.97177 15.1152 7.71454 15.4497 7.71295C15.7914 7.71083 16.0774 7.98024 16.0763 8.30205C16.0746 8.62651 15.7914 8.88957 15.4463 8.88639V8.88586Z" fill="#1E1E1E"/>
<path d="M6.32957 5.40103C6.33513 5.7022 6.53436 5.90386 6.82208 5.90492C7.09922 5.90598 7.31849 5.71067 7.32461 5.4275C7.33463 4.95907 7.33519 4.49012 7.32461 4.02169C7.31793 3.73799 7.097 3.54374 6.8193 3.54691C6.5416 3.55009 6.3368 3.75016 6.33068 4.03492C6.32567 4.2657 6.32957 4.497 6.32957 4.72777C6.32957 4.95219 6.32623 5.17661 6.33012 5.40103H6.32957Z" fill="#1E1E1E"/>
<path d="M6.80606 7.09456C6.53559 7.10303 6.33747 7.29781 6.33024 7.57357C6.32412 7.80435 6.32913 8.03565 6.32913 8.26642C6.32913 8.49719 6.32468 8.72849 6.32913 8.95927C6.33525 9.24562 6.53504 9.44622 6.81274 9.45204C7.08209 9.45786 7.31248 9.27208 7.32028 9.00161C7.33474 8.5136 7.3353 8.02453 7.31916 7.53652C7.31026 7.26764 7.07597 7.08556 6.80495 7.09403L6.80606 7.09456Z" fill="#1E1E1E"/>
</g>
<defs>
<clipPath id="clip0_201_15750">
<rect width="21" height="13" fill="white"/>
</clipPath>
</defs>
</svg>
