<svg width="53" height="53" viewBox="0 0 53 53" fill="none" xmlns="http://www.w3.org/2000/svg">
<g clip-path="url(#clip0_201_17257)">
<path d="M41.0974 38.6953C41.6674 38.6953 42.1262 39.1397 42.1262 39.7092C42.1401 40.2786 41.6952 40.7369 41.1252 40.7508C40.5413 40.7647 40.0547 40.2925 40.0547 39.7231C40.0686 39.1536 40.5413 38.6953 41.0974 38.6953Z" fill="#1E1E1E"/>
<path d="M45.9476 39.7511C45.9337 39.1817 46.3647 38.7234 46.9347 38.6956C47.5186 38.6817 48.0052 39.1539 48.0052 39.7234C48.0052 40.2928 47.5464 40.7372 46.9764 40.7372C46.4064 40.7511 45.9615 40.3206 45.9476 39.7511Z" fill="#1E1E1E"/>
<path d="M28.0134 22.1675L27.0055 21.0787C25.5763 19.4412 22.6901 17.6566 18.8766 17.5566C17.3806 17.4899 15.9417 17.6954 14.475 18.1885C12.8998 18.7218 11.5012 19.5398 10.1985 20.6884L10.0998 20.7759L8.13115 18.7649C6.54206 17.1649 5.77463 15.0191 6.02488 12.8817C6.27513 10.7498 7.51247 8.84706 9.42132 7.66098C9.95658 7.32766 10.496 6.99711 11.0354 6.66795C11.5735 6.33879 12.1129 6.00825 12.6468 5.67492C12.9359 5.4902 13.3044 5.23604 13.5741 4.92494C14.5236 3.85691 14.55 2.29723 13.6394 1.12921C12.7274 -0.0138181 11.1647 -0.331865 9.9246 0.372283C8.73314 1.05421 7.44296 1.84447 5.98317 2.78472C3.20819 4.58328 1.35634 7.10266 0.480472 10.2748C0.348396 10.7595 0.252467 11.2623 0.160709 11.7498C0.109269 12.0192 0.0578286 12.297 -0.00195312 12.572V14.8358C0.0453162 15.0761 0.0870244 15.3219 0.127342 15.5594C0.194075 15.951 0.262199 16.3566 0.356737 16.7482C0.92953 19.1301 2.11404 21.2245 3.8783 22.9731C4.09796 23.1925 4.31763 23.4092 4.5359 23.6272C5.1796 24.2647 5.84415 24.923 6.48089 25.6022C6.63104 25.7688 6.73948 26.1077 6.6658 26.3494C5.90393 29.1924 6.12081 32.0131 7.31367 34.7242C9.5951 39.924 11.9544 45.3003 14.2372 50.6001C14.7919 51.8876 15.6484 52.6418 16.9357 52.9751H18.0285L18.0688 52.9584C18.1397 52.9265 18.2148 52.8945 18.2982 52.8695C20.0666 52.357 21.0496 50.739 20.6881 48.9335L20.67 48.8446C20.3836 47.3877 20.0972 45.9294 19.783 44.3503L19.6996 43.9281L20.0152 44.2225C20.3127 44.5003 20.5922 44.7545 20.8605 44.9975C21.1705 45.2781 21.4625 45.5447 21.753 45.8197C25.2621 49.0988 29.2772 51.2737 33.6872 52.2848C34.5463 52.4779 35.4431 52.6015 36.3092 52.7195C36.7402 52.7779 37.1879 52.839 37.6258 52.9084C37.776 52.9362 37.9275 52.9626 38.0693 53.0042H48.3281C48.4018 52.9792 48.4713 52.9515 48.5422 52.9237C48.6243 52.8917 48.7077 52.8598 48.7939 52.8306C50.3204 52.2904 51.1504 50.7015 50.6791 49.2127C50.554 48.8293 50.3287 48.4683 50.0896 48.0849C49.9756 47.9016 49.8574 47.7127 49.7462 47.5141C49.7142 47.478 49.6823 47.4127 49.7545 47.3238L49.7684 47.3086C49.7712 47.3058 49.774 47.303 49.7782 47.2988L49.8672 47.2113L49.8838 47.1961V47.1988C53.1746 44.7086 53.9768 40.0435 51.7107 36.5672C51.5925 36.3811 51.5772 36.1172 51.5772 35.9075C51.5828 35.5241 51.5994 35.1367 51.6161 34.7617C51.6467 34.07 51.6787 33.3548 51.6328 32.6673C51.5967 32.0562 51.2991 31.5465 50.8195 31.2673C50.3357 30.9868 49.7434 30.9826 49.1915 31.2548C48.627 31.5326 48.0848 31.8937 47.5607 32.2437C47.2812 32.4312 46.9907 32.6242 46.7001 32.8034C46.4596 32.9464 46.1579 33.0325 45.891 33.0325C44.6342 33.0603 43.4093 33.0603 42.1484 33.0325C41.9162 33.0325 41.6465 32.9575 41.3907 32.8214C41.0918 32.6381 40.8026 32.4451 40.5231 32.2576C39.999 31.9076 39.4568 31.5451 38.8923 31.2687C38.3474 30.9965 37.7871 30.9868 37.3144 31.2409C36.8236 31.5048 36.4983 32.0215 36.4218 32.6603C36.3551 33.2339 36.3245 33.8186 36.2939 34.3853C36.2856 34.5297 36.2786 34.6742 36.2703 34.8186L36.2633 34.9422L36.1396 34.9492C35.1511 35.0075 34.4476 34.5908 33.9916 33.6784C32.4609 30.6618 30.8788 27.541 29.28 24.4869C28.9366 23.8314 28.532 23.1995 28.2164 22.7217C28.1358 22.6106 28.0593 22.4953 27.9787 22.3745L27.8967 22.2509M7.54584 24.0564L7.4235 23.9411C5.19211 21.8217 2.88843 19.6329 2.12934 16.3858C1.03241 11.6525 2.93847 6.89989 6.98556 4.27913C7.90175 3.69164 8.84019 3.11943 9.74942 2.56667C10.0066 2.40973 10.2638 2.25418 10.5196 2.09724C10.9006 1.86252 11.2773 1.78058 11.6096 1.85836C11.8891 1.92502 12.1268 2.10418 12.295 2.37917C12.6732 2.99444 12.4702 3.65275 11.7639 4.09719C11.3065 4.38468 10.8394 4.66939 10.389 4.94577C9.66323 5.38882 8.91387 5.84714 8.19371 6.31796C5.9651 7.77626 4.51644 10.1109 4.21892 12.722C3.9214 15.3386 4.81117 17.944 6.66024 19.869C7.1093 20.337 7.56809 20.7773 8.05329 21.2426C8.2952 21.4759 8.53989 21.7092 8.78457 21.9495L8.86521 22.0287L8.44535 22.6703C8.1659 23.0981 7.90036 23.5036 7.63482 23.9147L7.54445 24.0564H7.54584ZM38.0359 37.313C38.3793 36.8436 38.4669 36.4297 38.346 35.8394C38.2333 35.2672 38.1833 34.6728 38.1333 34.0992C38.1096 33.8131 38.0832 33.5173 38.0512 33.2311L38.0415 33.1464L38.1124 33.0992C38.1583 33.0687 38.2069 33.0423 38.2556 33.0159C38.2973 32.9937 38.339 32.9714 38.3765 32.9464L38.46 32.8909L38.5392 32.952C38.7352 33.1034 38.9327 33.2506 39.1287 33.3964C39.5944 33.7436 40.0755 34.1033 40.5203 34.4992C40.8832 34.8255 41.2377 34.9367 41.8258 34.9089C43.2356 34.8436 44.694 34.8478 46.2872 34.9228C46.8086 34.9519 47.1353 34.8519 47.4536 34.5686C47.8999 34.1797 48.374 33.8145 48.8745 33.4298C49.1136 33.2464 49.3597 33.0561 49.6155 32.8548L49.799 32.7103L49.8393 32.9409C50.0215 33.9936 49.977 34.9533 49.6975 35.9602C49.5682 36.42 49.6433 36.7922 49.9561 37.2477C51.4284 39.3143 51.6133 41.4712 50.5081 43.6531C49.4264 45.8003 47.5468 46.9502 45.0749 46.9794L44.7857 46.9836C44.5202 46.9877 44.2518 46.9905 43.9835 46.9905C43.1396 46.9905 42.2902 46.9544 41.4824 46.7669C39.5291 46.31 37.9456 44.9072 37.2449 43.0128C36.533 41.0893 36.8292 38.9588 38.0373 37.3144L38.0359 37.313ZM32.4053 34.5131C32.9614 35.595 33.7692 36.2672 34.8758 36.5672C35.1164 36.6338 35.3527 36.6672 35.6043 36.7005C35.7044 36.7144 35.8045 36.7283 35.9046 36.7436L36.0214 36.7616V36.9963L35.7976 37.4422C35.0246 39.0824 34.823 40.7907 35.197 42.517C36.02 46.2419 39.1551 48.7544 43.0006 48.7682H47.6858C48.4185 48.7682 48.9621 49.2516 48.9788 49.9182C49.0066 50.2321 48.9134 50.521 48.7118 50.746C48.4811 51.0029 48.1265 51.1487 47.7164 51.1571H47.4495C46.7057 51.1571 45.9619 51.1626 45.2181 51.1696C44.4854 51.1751 43.7416 51.1807 42.9936 51.1807C41.9482 51.1807 40.8957 51.1696 39.853 51.1293C37.801 51.064 36.1382 50.8946 34.6186 50.5988C29.6707 49.6321 25.1856 46.9711 20.9064 42.4615L20.7965 42.3462L20.9272 42.2531C21.044 42.1698 21.1441 42.0934 21.2234 42.024C23.7578 39.9976 24.7519 37.3658 24.1805 34.1964C23.9163 32.7298 23.2128 31.4187 22.0923 30.2979C21.7906 29.9965 21.4486 29.9298 21.0468 30.0923C20.6811 30.2562 20.4921 30.5534 20.5477 30.8854C20.6033 31.2187 20.8257 31.5395 21.0037 31.7492C22.6804 33.6534 23.0154 36.3213 21.8545 38.5421C21.2762 39.6546 20.4476 40.4823 19.3215 41.0726L19.1574 41.1587L19.1199 40.9782C19.0865 40.8184 19.0573 40.6671 19.0281 40.5198C18.9725 40.2365 18.9197 39.9685 18.8557 39.7046C18.7904 39.4004 18.6347 39.1574 18.4136 39.0157C18.2259 38.8949 18.0076 38.856 17.7838 38.906C17.2694 39.0157 16.9872 39.4865 17.0984 40.049C17.1471 40.3212 17.2041 40.5962 17.2583 40.8615C17.3125 41.1282 17.3695 41.4045 17.4182 41.6754L17.6364 42.7628C18.0563 44.8572 18.4901 47.0225 18.9058 49.1599C19.0851 50.0974 18.7111 50.8112 17.9075 51.0682C17.1443 51.3168 16.3949 50.9515 16.0418 50.1585C15.3925 48.678 14.7419 47.2002 14.0899 45.7225C12.3145 41.6948 10.4793 37.531 8.74148 33.4061C7.71545 30.9493 7.72936 28.2091 8.78179 25.6925C9.82728 23.1897 11.7598 21.2287 14.2233 20.169C15.64 19.5565 17.1332 19.2801 18.7862 19.3246C21.5946 19.2801 24.959 21.0204 26.4341 23.2759C26.872 23.9328 27.3267 24.6133 27.6923 25.3161C29.1896 28.2021 30.7314 31.209 32.4053 34.5117V34.5131Z" fill="#1E1E1E"/>
</g>
<defs>
<clipPath id="clip0_201_17257">
<rect width="53" height="53" fill="white"/>
</clipPath>
</defs>
</svg>
