<svg width="46" height="46" viewBox="0 0 46 46" fill="none" xmlns="http://www.w3.org/2000/svg">
<g clip-path="url(#clip0_430_14009)">
<path d="M44.4726 10.9506H37.3764C38.4125 9.7888 39.0476 8.25371 39.0476 6.57143C39.0476 2.94926 36.1269 0 32.5397 0C27.0522 0 24.1523 4.8576 22.7778 8.3536C21.4033 4.8576 18.5034 0 13.0159 0C9.4287 0 6.50794 2.94926 6.50794 6.57143C6.50794 8.25371 7.14311 9.7888 8.17918 10.9506H1.08292C0.484191 10.9506 0 11.4395 0 12.0441V22.9947C0 23.5993 0.484191 24.0882 1.08292 24.0882H4.33689V44.896C4.33689 45.5006 4.82108 45.9895 5.41981 45.9895H40.1305C40.7293 45.9895 41.2135 45.5006 41.2135 44.896V24.0882H44.4674C45.0662 24.0882 45.5504 23.5993 45.5504 22.9947V12.0441C45.5504 11.4395 45.0662 10.9506 44.4674 10.9506H44.4726ZM32.5397 2.19223C34.9294 2.19223 36.8766 4.1584 36.8766 6.57143C36.8766 8.98446 34.9294 10.9506 32.5397 10.9506H24.1835C25.0009 8.22217 27.3958 2.18697 32.5397 2.18697V2.19223ZM8.67899 6.57143C8.67899 4.1584 10.6262 2.19223 13.0159 2.19223C18.1545 2.19223 20.5495 8.22743 21.3721 10.9559H13.0159C10.6262 10.9559 8.67899 8.98971 8.67899 6.57669V6.57143ZM2.17105 13.1429H21.6949V21.9065H2.17105V13.1429ZM6.50794 24.0935H21.6949V43.8078H6.50794V24.0935ZM39.0476 43.8078H23.8607V24.0935H39.0476V43.8078ZM43.3845 21.9013H23.8607V13.1376H43.3845V21.9013Z" fill="white"/>
</g>
<defs>
<clipPath id="clip0_430_14009">
<rect width="45.5556" height="46" fill="white"/>
</clipPath>
</defs>
</svg>
