<svg width="63" height="39" viewBox="0 0 63 39" fill="none" xmlns="http://www.w3.org/2000/svg">
<path d="M56.9982 25.6093C56.9982 24.6034 56.7198 24.279 55.6994 24.0849C53.6626 23.6966 52.2084 21.982 52.2165 19.9834C52.2246 17.9835 53.6964 16.2806 55.7345 15.9106C56.6833 15.7386 56.9968 15.3803 56.9968 14.4539C56.9982 11.9667 56.9968 9.47819 56.9968 6.99098C56.9968 5.05228 55.9143 4.00085 53.9154 4.00085C46.4455 4.00085 38.9757 4.00085 31.5044 4.00085C23.967 4.00085 16.4296 3.99825 8.89211 4.00215C7.15676 4.00215 6.00526 5.11221 6.00256 6.78122C5.9985 9.34921 5.99986 11.9185 6.00256 14.4878C6.00256 15.3751 6.33098 15.7438 7.25001 15.908C9.29622 16.2767 10.768 17.9665 10.7829 19.9678C10.7978 21.9872 9.3273 23.7096 7.26488 24.0901C6.30935 24.2647 6.00256 24.6165 6.00256 25.5454C6.00121 28.0821 5.99986 30.6176 6.00256 33.1543C6.00391 34.8923 7.13784 35.9985 8.92996 35.9985C23.971 36.0011 39.0121 35.9998 54.0546 35.9985C55.8548 35.9985 56.9955 34.8989 56.9982 33.1686C57.0023 30.6488 56.9982 28.129 56.9982 25.608V25.6093ZM53.9275 33.6663C44.0479 33.6559 34.1683 33.6585 24.2887 33.6585C24.1413 33.6585 23.994 33.6585 23.7967 33.6585C23.7967 32.8833 23.8116 32.155 23.7926 31.4293C23.7697 30.5329 23.0128 29.9844 22.1911 30.2449C21.7005 30.4 21.3842 30.813 21.3748 31.3589C21.3626 32.1042 21.3721 32.8481 21.3721 33.6325C21.172 33.6429 21.0099 33.6585 20.8477 33.6585C16.9364 33.6598 13.0251 33.6598 9.11376 33.6585C8.45422 33.6585 8.43124 33.6364 8.43124 32.9979C8.43124 30.8847 8.44071 28.7714 8.42178 26.6581C8.41908 26.3206 8.53261 26.1851 8.85022 26.0705C11.4897 25.1116 13.2021 22.7221 13.2129 20.0199C13.2237 17.3046 11.506 14.8943 8.84076 13.9263C8.51369 13.8077 8.42043 13.6592 8.42178 13.3321C8.438 11.1863 8.43665 9.04042 8.42449 6.89457C8.42178 6.50891 8.54072 6.33432 8.97185 6.33563C13.0007 6.34475 17.031 6.34084 21.0599 6.34214C21.1423 6.34214 21.2234 6.35387 21.3707 6.3669C21.3707 7.12778 21.364 7.84046 21.3721 8.55445C21.3815 9.29188 21.864 9.80522 22.5492 9.82346C23.2466 9.8417 23.7778 9.31664 23.794 8.56096C23.8089 7.84698 23.7967 7.13169 23.7967 6.34214H24.3495C34.1791 6.34214 44.0074 6.34214 53.837 6.34214C54.3244 6.34214 54.5686 6.57883 54.5695 7.05222C54.5695 9.14856 54.5601 11.2462 54.579 13.3426C54.5817 13.6813 54.4668 13.8142 54.1492 13.9289C51.5137 14.8839 49.7973 17.2773 49.7878 19.9795C49.7784 22.6973 51.4948 25.105 54.16 26.0731C54.4857 26.1917 54.5817 26.3402 54.579 26.6672C54.5628 28.7961 54.5587 30.9263 54.579 33.0553C54.5844 33.536 54.4046 33.6663 53.9275 33.665V33.6663Z" fill="white"/>
<path d="M43.9088 13.6464C44.1086 13.1669 43.9731 12.6577 43.5706 12.3159C43.1724 11.9769 42.6022 11.8864 42.1662 12.1646C41.9147 12.3254 41.6981 12.5672 41.5262 12.8116C38.4826 17.1463 35.4474 21.4864 32.4136 25.8265C32.2976 25.9927 32.1732 26.1615 32.095 26.3453C31.7554 27.1449 32.3689 28.0054 33.2632 28C33.7886 27.9973 34.1254 27.715 34.4049 27.3151C37.4862 22.9034 40.5745 18.4971 43.6573 14.0868C43.7537 13.9477 43.8445 13.8018 43.9088 13.6464Z" fill="white"/>
<path d="M37 15.4946C36.9972 13.5684 35.2059 12.0024 33.0021 12C30.7859 11.9976 29.0083 13.5443 29 15.4801C28.9918 17.4388 30.7818 19.0096 33.0117 19C35.2155 18.9915 37.0041 17.4195 37 15.4946ZM31.4692 15.4946C31.4692 14.7489 32.1552 14.1574 33.0103 14.1647C33.838 14.1707 34.513 14.7549 34.5295 15.4789C34.546 16.2125 33.8503 16.8305 33.0048 16.8353C32.1566 16.8401 31.4692 16.239 31.4705 15.4958L31.4692 15.4946Z" fill="white"/>
<path d="M44.0342 21.0002C41.8133 20.9797 40 22.5541 40 24.5019C40 26.4328 41.7762 27.9927 43.9848 28C46.1852 28.0072 47.982 26.4509 47.9999 24.5236C48.0177 22.6023 46.2374 21.0219 44.0356 21.0014L44.0342 21.0002ZM43.9793 25.8342C43.131 25.8269 42.4502 25.215 42.4667 24.4742C42.4831 23.7539 43.1626 23.1684 43.9876 23.1648C44.8304 23.16 45.5359 23.7731 45.5332 24.5055C45.5291 25.2439 44.8304 25.8426 43.9793 25.8354V25.8342Z" fill="white"/>
<path d="M21.0043 17.7179C21.0209 18.4842 21.6161 18.9973 22.4757 19C23.3036 19.0027 23.9586 18.5057 23.9769 17.7852C24.0069 16.5933 24.0085 15.4001 23.9769 14.2082C23.957 13.4863 23.297 12.992 22.4673 13.0001C21.6377 13.0082 21.0259 13.5173 21.0076 14.2418C20.9927 14.829 21.0043 15.4176 21.0043 16.0048C21.0043 16.5758 20.9943 17.1468 21.006 17.7179H21.0043Z" fill="white"/>
<path d="M22.4309 21.0021C21.6228 21.0236 21.0309 21.5191 21.0092 22.2207C20.9909 22.8078 21.0059 23.3963 21.0059 23.9834C21.0059 24.5705 20.9926 25.1589 21.0059 25.746C21.0242 26.4745 21.6211 26.9848 22.4509 26.9997C23.2557 27.0145 23.9441 26.5418 23.9674 25.8537C24.0106 24.6122 24.0123 23.368 23.964 22.1264C23.9374 21.4424 23.2374 20.9792 22.4276 21.0007L22.4309 21.0021Z" fill="white"/>
</svg>
