<svg width="54" height="42" viewBox="0 0 54 42" fill="none" xmlns="http://www.w3.org/2000/svg">
<path d="M53 4H25.62L23.9 0.55C23.73 0.21 23.38 0 23.01 0H11.01C10.63 0 10.28 0.21 10.11 0.55L8.39 4H1C0.45 4 0 4.45 0 5V41C0 41.55 0.45 42 1 42H53C53.55 42 54 41.55 54 41V5C54 4.45 53.55 4 53 4ZM52 40H2V6H9C9.38 6 9.73 5.79 9.9 5.45L11.62 2H22.38L24.1 5.45C24.27 5.79 24.62 6 24.99 6H51.99V40H52Z" fill="white"/>
<path d="M22 19V22H21C20.45 22 20 22.45 20 23V33C20 33.55 20.45 34 21 34H33C33.55 34 34 33.55 34 33V23C34 22.45 33.55 22 33 22H32V19C32 16.24 29.76 14 27 14C24.24 14 22 16.24 22 19ZM32 32H22V24H32V32ZM27 16C28.65 16 30 17.35 30 19V22H24V19C24 17.35 25.35 16 27 16Z" fill="white"/>
</svg>
