<svg width="9" height="11" viewBox="0 0 9 11" fill="none" xmlns="http://www.w3.org/2000/svg">
<path d="M8.94222 2.0108L8.54315 1.64277C8.64884 1.44932 8.69755 1.22526 8.6797 0.995345C8.65726 0.70513 8.53339 0.442419 8.33094 0.255707C8.12841 0.0688163 7.87057 -0.020674 7.60499 0.0040296C7.33932 0.0284509 7.09883 0.163859 6.92791 0.38501L5.02313 2.8493C4.96516 2.9242 4.97392 3.03601 5.0424 3.09935L5.08436 3.13798L0.70162 8.80767C0.69795 8.8125 0.694613 8.81843 0.691444 8.82362C0.688608 8.82817 0.685438 8.83255 0.683019 8.83738C0.681434 8.84075 0.68035 8.8443 0.678848 8.84777C0.675678 8.85506 0.672592 8.86244 0.670423 8.87027L0.669923 8.87146L0.239913 10.4474L0.0382993 10.7081C-0.0195066 10.783 -0.0109157 10.895 0.0575681 10.9582C0.0880983 10.9863 0.125302 11 0.162253 11C0.208382 11 0.254343 10.9787 0.286458 10.9371L0.487905 10.6764L1.83822 9.94926L1.83955 9.94835C1.84531 9.94525 1.8504 9.94115 1.85582 9.93733C1.85949 9.93468 1.86366 9.93241 1.86708 9.92949C1.87075 9.92639 1.87375 9.92257 1.87717 9.9191C1.88159 9.91455 1.88618 9.91026 1.8901 9.90534L6.27342 4.23478L6.31538 4.2736C6.34483 4.30076 6.38203 4.31543 6.42023 4.31543C6.42474 4.31543 6.42924 4.31533 6.43391 4.31479C6.47687 4.31096 6.51649 4.28836 6.54436 4.25255L7.49137 3.0274L7.75529 3.27096L6.34106 5.10078C6.28309 5.17568 6.29185 5.28749 6.36033 5.35082C6.39086 5.37898 6.42807 5.39265 6.46502 5.39265C6.51115 5.39265 6.55711 5.37133 6.58922 5.32977L8.96167 2.26061C9.01956 2.1857 9.01079 2.07396 8.94222 2.0108ZM0.910472 9.23269L1.47234 9.75109L0.647794 10.1951L0.910472 9.23269ZM1.74745 9.54033L1.05444 8.90121L5.33233 3.36682L6.02534 4.00594L1.74745 9.54033ZM6.40117 3.88813L5.37609 2.94247L7.17618 0.613757C7.29121 0.464955 7.4533 0.37393 7.63246 0.357438C7.81147 0.341309 7.98538 0.400994 8.12151 0.526742C8.25773 0.652308 8.34105 0.829367 8.35615 1.02499C8.37125 1.22063 8.31628 1.41052 8.20133 1.55923L7.34825 2.66282L6.40117 3.88813ZM7.70111 2.75639L8.34466 1.92382L8.60858 2.16738L7.96503 2.99995L7.70111 2.75639Z" fill="#1E1E1E"/>
</svg>
