<svg width="31" height="25" viewBox="0 0 31 25" fill="none" xmlns="http://www.w3.org/2000/svg">
<g clip-path="url(#clip0_201_9855)">
<path d="M31 3.65311C30.9858 1.63772 29.3384 0 27.3119 0H3.69166C1.6616 0 0.0141714 1.63772 0 3.65664C0 3.66017 0 3.6637 0 3.67076V3.67782V21.3257C0 23.3517 1.65451 25.0035 3.69166 25.0035H27.3119C29.3455 25.0035 31.0035 23.3552 31.0035 21.3257V3.67782C31.0035 3.67782 31.0035 3.67429 31.0035 3.67076C31.0035 3.6637 31.0035 3.66017 31.0035 3.65311H31ZM3.69166 1.47183H27.3119C28.4102 1.47183 29.3207 2.27305 29.4943 3.3178L15.5035 13.0736L1.50926 3.3178C1.68286 2.27305 2.59337 1.47183 3.69166 1.47183ZM27.3119 23.5317H3.69166C2.46937 23.5317 1.47737 22.5434 1.47737 21.3257V5.08965L15.0784 14.5736C15.2059 14.6619 15.3547 14.7077 15.5 14.7077C15.6453 14.7077 15.7976 14.6654 15.9216 14.5736L29.5226 5.08965V21.3257C29.5226 22.5434 28.5306 23.5317 27.3083 23.5317H27.3119Z" fill="#1E1E1E"/>
</g>
<defs>
<clipPath id="clip0_201_9855">
<rect width="31" height="25" fill="white"/>
</clipPath>
</defs>
</svg>
