<svg width="32" height="32" viewBox="0 0 32 32" fill="none" xmlns="http://www.w3.org/2000/svg">
<g clip-path="url(#clip0_201_9851)">
<path d="M31.7526 12.7969C31.0689 8.99257 29.1744 5.81755 26.1229 3.3596C23.7591 1.45586 21.0456 0.3514 18.0574 0.0762744C13.4351 -0.349064 9.36361 1.00601 5.95445 4.10355C3.48938 6.34409 1.90747 9.13804 1.25381 12.4087C0.584323 15.7569 0.977626 19.0141 2.42343 22.0903C2.6276 22.5243 2.64818 22.8746 2.49465 23.2999C2.15279 24.2502 1.81804 25.2108 1.49517 26.1397C1.06942 27.3628 0.62943 28.6269 0.172818 29.8642C-0.214945 30.9133 0.0485756 31.6122 0.976043 32.0004H1.54898C1.82833 31.9 2.10768 31.7988 2.38703 31.6976C2.98134 31.4825 3.65478 31.239 4.30131 31.0121C4.93202 30.79 5.56352 30.5702 6.19423 30.3504L6.25675 30.3291C7.08213 30.0421 8.01672 29.7164 8.91254 29.3985C9.17843 29.3045 9.3921 29.3132 9.62713 29.4286C12.567 30.869 15.643 31.3466 18.7704 30.8469C23.8644 30.0334 27.723 27.2861 30.2395 22.6809C31.2192 20.8878 31.7938 18.875 31.9473 16.6985C31.9528 16.6234 31.9686 16.5546 31.9845 16.4882C31.9908 16.4621 31.9956 16.4415 31.9995 16.4218V14.552C31.9742 14.3725 31.9512 14.1875 31.9275 14.0026C31.8761 13.6017 31.8246 13.1938 31.7534 12.7977L31.7526 12.7969ZM27.1667 24.4392C25.0736 26.958 22.3846 28.5526 19.174 29.1788C16.1139 29.7749 13.1645 29.3922 10.4074 28.0411C9.6754 27.6822 9.05656 27.6442 8.33881 27.9122C6.91912 28.4419 5.46381 28.9447 4.0552 29.4302C3.49888 29.6223 2.94335 29.8136 2.38782 30.0073C2.32214 30.0302 2.25883 30.0484 2.17811 30.0713L2.17099 30.0737C2.13142 30.0848 2.0879 30.0974 2.03962 30.1117L1.74366 30.1994L2.65925 27.5818C2.80091 27.1778 2.94098 26.773 3.08184 26.369C3.42845 25.3697 3.78693 24.3387 4.15412 23.3292C4.34246 22.8121 4.3116 22.3425 4.05679 21.8508C3.03673 19.8806 2.52156 17.7531 2.52552 15.526C2.53105 12.1652 3.61046 9.16808 5.73287 6.61921C7.86478 4.0577 10.5388 2.45675 13.6797 1.85906C18.3289 0.975177 22.4479 2.1247 25.9235 5.27521C28.345 7.47068 29.8051 10.2219 30.2617 13.4531C30.8433 17.5721 29.8035 21.2681 27.1691 24.4392H27.1667Z" fill="black"/>
<path d="M22.8526 23.009C23.1312 22.7054 23.4271 22.4169 23.7128 22.137C23.8695 21.9836 24.0468 21.8105 24.2145 21.6397C25.0178 20.8254 25.0162 19.8546 24.2106 19.0426C23.553 18.3801 22.9072 17.7342 22.2908 17.1246C21.478 16.3198 20.507 16.3206 19.6951 17.1246C19.5416 17.2772 19.3968 17.4448 19.2575 17.6069C19.1902 17.6844 19.1277 17.7571 19.0652 17.8275L18.9813 17.9216L18.8705 17.8599C16.8059 16.7167 15.2532 15.1671 14.124 13.1235L14.0638 13.0151L14.1548 12.9313C14.2276 12.8641 14.3012 12.7985 14.3748 12.7321C14.5315 12.5914 14.6922 12.4467 14.8401 12.2981C15.6545 11.4782 15.6552 10.4995 14.8425 9.68121C14.2363 9.07088 13.6159 8.45105 12.9449 7.78537C12.5405 7.38375 12.0862 7.17188 11.6312 7.17188C11.1762 7.17188 10.7259 7.38217 10.3231 7.77984C10.1656 7.93559 10.0073 8.09687 9.85462 8.2534C9.56894 8.54513 9.27772 8.8424 8.97463 9.1191C8.17378 9.84961 7.88098 10.8102 8.07961 12.0562C8.25054 13.1258 8.67154 14.1908 9.40433 15.4083C10.8755 17.8504 12.8681 19.9866 15.326 21.7567C16.4743 22.5837 18.0325 23.5727 19.9096 23.8897C21.152 24.0992 22.1143 23.8115 22.851 23.0098L22.8526 23.009ZM21.4139 22.1615C21.2264 22.3259 20.9953 22.4066 20.708 22.4066C20.4841 22.4066 20.2514 22.3584 20.0457 22.3157L19.9998 22.3062C19.0367 22.1085 18.0902 21.6911 17.0203 20.9914C14.1794 19.1351 11.9683 16.795 10.4489 14.0342C9.95353 13.1345 9.68606 12.3534 9.60692 11.5763C9.55074 11.0221 9.69239 10.6094 10.054 10.2757C10.4022 9.95476 10.7386 9.61164 11.0638 9.27959C11.2055 9.13492 11.3447 8.99261 11.4832 8.85346L11.5948 8.7412L13.8969 11.0339L13.7821 11.1462C13.6966 11.2292 13.6096 11.3138 13.5218 11.3992C13.3239 11.5905 13.1213 11.7866 12.9235 11.985C12.3759 12.5345 12.3031 13.0689 12.679 13.7702C13.9641 16.1641 15.838 18.0314 18.2501 19.3201C18.903 19.6696 19.4466 19.5944 19.961 19.0845C20.166 18.8813 20.3638 18.671 20.5553 18.4686C20.6408 18.3777 20.7223 18.2908 20.8022 18.2077L20.9138 18.0907L23.204 20.37L23.0932 20.4823C22.9397 20.638 22.7893 20.7954 22.631 20.9614C22.2449 21.3654 21.8476 21.7804 21.4147 22.1615H21.4139Z" fill="black"/>
</g>
<defs>
<clipPath id="clip0_201_9851">
<rect width="32" height="32" fill="white"/>
</clipPath>
</defs>
</svg>
