<svg width="36" height="36" viewBox="0 0 36 36" fill="none" xmlns="http://www.w3.org/2000/svg">
<g clip-path="url(#clip0_201_10159)">
<path d="M26.3736 0H9.63231C4.31976 0 0 4.31976 0 9.6264V26.3677C0 31.6743 4.31976 35.9941 9.6264 35.9941H26.3677C31.6743 35.9941 35.9941 31.6743 35.9941 26.3677V9.6264C36 4.31976 31.6802 0 26.3736 0ZM33.4885 26.3677C33.4885 30.2915 30.2974 33.4826 26.3736 33.4826H9.63231C5.70847 33.4826 2.5174 30.2915 2.5174 26.3677V9.6264C2.5174 5.70256 5.70847 2.51149 9.63231 2.51149H26.3736C30.2974 2.51149 33.4885 5.70256 33.4885 9.6264V26.3677Z" fill="#B49CFF"/>
<path d="M19.2405 10.0569C18.4664 9.94459 17.6804 9.94459 16.9063 10.0569C12.5688 10.701 9.56091 14.7548 10.205 19.0923C10.7901 23.0339 14.1939 25.8822 18.0645 25.8822C18.4486 25.8822 18.8446 25.8527 19.2346 25.7936C21.3383 25.4804 23.188 24.3694 24.4526 22.6675C25.7172 20.9597 26.2431 18.8619 25.9299 16.764C25.4099 13.2716 22.7211 10.5828 19.2287 10.0628L19.2405 10.0569ZM22.4434 21.1665C21.5747 22.3366 20.3101 23.093 18.8741 23.3057C15.9017 23.743 13.1302 21.6865 12.6929 18.72C12.2556 15.7535 14.3121 12.9761 17.2786 12.5388C17.5445 12.4974 17.8104 12.4797 18.0763 12.4797C18.3423 12.4797 18.6082 12.4974 18.8741 12.5388C21.2615 12.8934 23.1052 14.7371 23.4598 17.1245C23.6725 18.5605 23.3121 19.9965 22.4493 21.1665H22.4434Z" fill="#B49CFF"/>
<path d="M27.2246 7.53516H27.2068C26.5154 7.53516 25.96 8.09655 25.96 8.78795C25.96 9.47935 26.5332 10.0407 27.2246 10.0407C27.916 10.0407 28.4774 9.47935 28.4774 8.78795C28.4774 8.09655 27.916 7.53516 27.2246 7.53516Z" fill="#B49CFF"/>
</g>
<defs>
<clipPath id="clip0_201_10159">
<rect width="36" height="36" fill="white"/>
</clipPath>
</defs>
</svg>
