<svg width="21" height="21" viewBox="0 0 21 21" fill="none" xmlns="http://www.w3.org/2000/svg">
<g clip-path="url(#clip0_201_10223)">
<path d="M20.924 8.95785C20.6753 6.77823 19.8031 4.86368 18.2933 3.27686C15.768 0.623608 12.6606 -0.448995 9.05034 0.171039C5.77295 0.734053 3.32569 2.55717 1.78664 5.49553C0.324658 8.28645 0.260445 11.1842 1.425 14.1092C1.53031 14.3733 1.725 14.6327 1.72962 14.8967C1.73425 15.1721 1.55856 15.45 1.46147 15.7269C0.974486 17.1154 0.486986 18.5039 0 19.8924V20.2207C0.113527 20.606 0.363699 20.8618 0.738699 21H1.14914C1.16353 20.9876 1.17637 20.9692 1.19332 20.963C2.77808 20.4102 4.36387 19.8596 5.94709 19.3032C6.08476 19.2549 6.19623 19.2519 6.33134 19.3181C8.29469 20.2751 10.3587 20.5813 12.5116 20.2207C15.0586 19.7938 17.1498 18.5568 18.7613 16.5488C20.5413 14.3301 21.2471 11.7817 20.925 8.95837L20.924 8.95785ZM16.1748 14.0733C16.0644 14.1853 15.9493 14.2972 15.8384 14.4061C15.6329 14.607 15.4202 14.815 15.2178 15.037C14.7776 15.5204 14.2413 15.6781 13.4784 15.5486C12.2378 15.3385 11.1935 14.6753 10.4224 14.1205C8.71644 12.8943 7.33562 11.4128 6.31849 9.71761C5.83459 8.91059 5.55719 8.20837 5.44675 7.50717C5.32654 6.74638 5.48476 6.2147 5.9589 5.7832C6.1839 5.57823 6.39503 5.36196 6.59949 5.1534C6.70171 5.04861 6.80394 4.94381 6.90822 4.84107C7.12654 4.62429 7.35 4.51436 7.57192 4.51436C7.79384 4.51436 8.01062 4.62224 8.22432 4.8344C8.74264 5.34964 9.16798 5.77446 9.5625 6.17258C9.98579 6.59946 9.98836 7.03148 9.57021 7.45734C9.47055 7.55905 9.36575 7.65768 9.25223 7.76453C9.19983 7.81385 9.14743 7.86316 9.09503 7.9135L8.83048 8.16676L8.99024 8.49604C9.64418 9.84398 11.1252 11.3245 12.5122 12.0154L12.8517 12.1849L13.1075 11.9044C13.1527 11.8546 13.199 11.8027 13.2473 11.7483C13.3428 11.6404 13.4414 11.5294 13.5416 11.4303C13.9546 11.0219 14.4103 11.0234 14.8253 11.4344C15.2969 11.9019 15.7521 12.357 16.1784 12.7875C16.5873 13.2 16.5863 13.6567 16.1753 14.0728L16.1748 14.0733Z" fill="white"/>
</g>
<defs>
<clipPath id="clip0_201_10223">
<rect width="21" height="21" fill="white" transform="translate(-0.000976562)"/>
</clipPath>
</defs>
</svg>
