<svg width="39" height="39" viewBox="0 0 39 39" fill="none" xmlns="http://www.w3.org/2000/svg">
<g clip-path="url(#clip0_201_10129)">
<path d="M28.2302 2.08564C16.8246 -3.59664 3.43836 2.86674 0.5361 14.9972C0.304163 15.9664 0.21973 16.9713 0.0651051 17.9588C0.0478116 18.0697 0.0213626 18.1795 0 18.2904V20.7272C0.100709 21.4666 0.185143 22.2081 0.30518 22.9434C1.53811 30.5398 7.79837 37.0347 15.3567 38.5461C16.2366 38.722 17.1359 38.8085 18.025 38.9376C18.1114 38.9498 18.1948 38.9783 18.2793 38.9986H20.7167C21.4308 38.901 22.1469 38.8217 22.857 38.7027C30.5353 37.4171 36.8515 31.4063 38.527 23.7988C40.4669 14.989 36.3114 6.11013 28.2292 2.08361L28.2302 2.08564ZM19.498 36.7154C10.013 36.7154 2.27664 28.9776 2.2858 19.4986C2.29496 10.0116 10.0364 2.28499 19.5183 2.30228C29.0003 2.31957 36.703 10.0238 36.7122 19.4986C36.7213 28.9786 28.987 36.7143 19.498 36.7154Z" fill="#39E241"/>
<path d="M7.31208 12.5856C6.65798 12.7229 6.25921 13.3005 6.38128 13.9332C6.50335 14.5627 7.09744 14.9583 7.75052 14.8241C9.96613 14.3685 12.2011 14.0878 14.4645 14.0044C19.087 13.8355 23.6006 14.4447 27.988 15.9073C29.2484 16.3273 30.4722 16.8541 31.7112 17.3372C32.463 17.6312 33.2107 17.2447 33.3389 16.486C33.4314 15.9418 33.1252 15.4628 32.5078 15.1902C27.2261 12.8591 21.6962 11.6987 15.2641 11.6875C13.023 11.6936 10.1513 11.9885 7.31106 12.5845L7.31208 12.5856Z" fill="#39E241"/>
<path d="M30.1865 20.4924C26.5243 18.8753 22.7014 17.9019 18.7087 17.5877C15.2184 17.3131 11.7658 17.548 8.34576 18.2864C7.63469 18.44 7.24304 19.0105 7.38546 19.6787C7.51669 20.29 8.11077 20.6388 8.78929 20.5209C9.78723 20.3469 10.7841 20.1537 11.7882 20.0235C16.1187 19.4652 20.4024 19.7448 24.6017 20.9379C26.2049 21.3935 27.7573 22.0322 29.3208 22.618C30.1834 22.9415 31.0084 22.4726 31.0095 21.4993C30.9942 21.0446 30.6849 20.7121 30.1865 20.4924Z" fill="#39E241"/>
<path d="M27.7697 25.9603C21.8401 23.3516 15.708 22.8065 9.39075 24.1663C8.69392 24.3168 8.2748 24.8955 8.39993 25.5149C8.53624 26.1871 9.1466 26.5167 9.88209 26.4058C11.4721 26.1658 13.0621 25.8637 14.6632 25.7752C18.9246 25.5413 23.016 26.3316 26.9193 28.0707C27.0892 28.146 27.2784 28.1806 27.3526 28.2029C28.0495 28.2009 28.5093 27.7971 28.5886 27.2184C28.6649 26.6611 28.3882 26.2309 27.7687 25.9593L27.7697 25.9603Z" fill="#39E241"/>
</g>
<defs>
<clipPath id="clip0_201_10129">
<rect width="39" height="39" fill="white"/>
</clipPath>
</defs>
</svg>
