<svg width="126" height="75" viewBox="0 0 126 75" fill="none" xmlns="http://www.w3.org/2000/svg">
<g clip-path="url(#clip0_201_10550)">
<path d="M80.282 35.3598C79.9255 35.1374 79.552 34.8616 79.2125 34.5921C79.0687 34.478 78.8747 34.3657 78.7256 34.2605C78.2764 35.1306 77.5378 35.8678 76.5367 36.2087C74.4819 36.9084 72.2632 35.7936 71.5623 33.7354C70.8614 31.6772 71.9447 29.458 73.9996 28.7583C74.0239 28.75 74.0894 28.7277 74.1127 28.7197C73.9467 27.8098 73.9232 26.8158 74.2415 25.6204C74.4106 24.9875 74.6369 24.4224 74.8919 23.8653C75.1553 23.2912 75.4151 22.7242 75.7115 22.1778C76.1788 21.3157 76.687 20.4975 77.2726 19.7959C77.5819 19.4259 77.9338 19.032 78.2373 18.6486C75.8994 16.127 71.5752 16.0483 67.0497 16.7954C63.039 17.457 58.8501 18.8008 55.669 19.7093C48.4713 21.7646 49.0056 22.6684 50.899 27.643C52.2266 31.5413 50.4445 33.0249 46.1953 34.7874C41.3185 36.8097 41.1889 36.4639 36.1912 38.1659C31.1935 39.8678 31.2105 39.9175 26.2128 41.6195C21.2151 43.3214 21.2101 43.3066 16.2124 45.0085C11.2147 46.7104 11.2104 46.6977 6.21267 48.3997C2.85129 49.5444 4.11955 52.6901 7.31471 54.5559C10.7219 56.5455 14.2106 56.1869 15.0954 55.8856C16.2647 54.1026 17.4142 55.3996 20.094 55.5409C21.2682 54.3506 22.1233 54.0973 24.4657 53.2996C25.2162 53.044 24.4668 53.2684 25.1672 51.8437C25.8675 50.4189 27.4213 52.6747 29.3037 51.2432C31.185 49.8121 30.9522 51.321 32.9478 51.5937C34.6146 51.8225 34.4682 50.2596 36.1357 50.4869C37.7294 50.7051 37.1454 52.4092 38.7529 52.3805C44.7368 52.2721 45.9435 50.2732 50.1896 48.8272C54.4357 47.3812 54.7017 48.0929 58.1607 52.4516C61.6197 56.8103 61.4914 57.0915 65.6071 55.8341C72.8986 53.6074 72.8109 53.3986 79.2923 49.2017C80.0507 46.3299 75.7092 47.9773 75.0339 45.0833C73.7747 39.6884 77.2513 40.4339 80.2851 35.3587L80.282 35.3598Z" fill="#B49CFF"/>
<path d="M75.0835 25.2435C74.9304 25.6288 74.7882 25.9455 74.7204 26.3632C74.5701 27.2934 74.7312 27.9675 74.9673 28.55C75.8551 28.4828 76.7311 28.7445 77.4503 29.225C77.3377 28.5273 77.3598 27.7364 77.4693 26.9252C77.647 25.6147 78.0147 24.2524 78.3908 22.9321C78.6449 22.0433 78.9481 21.1946 79.3263 20.3722C79.1836 20.1266 79.1106 19.8844 78.9773 19.6592C78.9544 19.6198 78.8846 19.5845 78.8607 19.5454C77.4198 21.1337 76.0451 22.8401 75.0824 25.2439L75.0835 25.2435Z" fill="#B49CFF"/>
<path d="M86.0909 37.6205C84.788 37.321 83.4511 37.0496 82.242 36.4677C81.5602 36.1387 80.9169 35.7634 80.2603 35.3525C77.2265 40.4277 73.7097 39.703 74.9883 45.0925C75.6746 47.9839 76.6934 47.7681 79.2765 49.2326C80.6625 48.3353 82.0415 47.3376 83.2834 46.2872C85.7521 44.2012 86.4277 41.0622 86.0898 37.6208L86.0909 37.6205Z" fill="#B49CFF"/>
<path d="M83.3615 33.9751C83.5012 34.0078 83.6264 34.0881 83.7607 34.1463C84.1695 34.3249 84.5475 34.6452 84.9934 34.6174C85.2049 34.6045 85.3604 34.6732 85.5441 34.7276C85.1523 33.0403 84.5386 31.1793 83.8806 29.5105C83.0788 30.613 82.2485 31.8327 81.4977 33.0123C82.0404 33.3899 82.7265 33.825 83.3611 33.974L83.3615 33.9751Z" fill="#B49CFF"/>
<path d="M78.9878 31.2075C78.6972 30.3541 78.1357 29.6474 77.4405 29.1823C77.5291 29.7334 77.6889 30.2615 77.9331 30.6911C78.0615 30.9156 78.2446 31.0966 78.3663 31.3293C78.4175 31.4277 78.3646 31.5875 78.3952 31.7153C78.301 31.7367 78.2359 31.7672 78.1523 31.785C77.2744 30.8316 76.1093 30.5454 75.38 29.318C75.2309 29.0675 75.0788 28.8216 74.9681 28.5485C74.6691 28.5712 74.3534 28.6244 74.0556 28.7198C74.1242 29.0911 74.2729 29.441 74.401 29.7896C74.6646 30.5116 75.0549 30.9754 75.4362 31.506C75.9929 32.2817 76.6454 32.8677 77.3566 33.3557C77.8186 33.6733 78.3028 33.9692 78.7603 34.2908C79.2342 33.372 79.3483 32.2627 78.9885 31.2061L78.9878 31.2075Z" fill="#1E1E1E"/>
<path d="M114.401 7.82385C113.38 7.05762 112.315 6.47025 111.017 5.93378C110.377 5.81985 109.597 5.57379 108.758 5.55937C107.8 5.54425 106.857 5.44699 105.914 5.37378C105.527 5.34356 105.13 5.34877 104.735 5.36175C103.893 5.38836 103.056 5.45739 102.212 5.49992C101.371 5.54174 100.531 5.4902 99.6757 5.61944C98.365 5.81649 97.0449 5.9411 95.7031 6.38623C94.7753 6.69273 93.8559 6.88178 92.9279 7.25689C92.0213 7.62232 91.1269 8.214 90.2175 8.66433C89.7198 8.91061 89.23 9.38459 88.7551 9.59714C87.3562 10.2212 86.0129 11.2576 84.6839 12.3364C83.0013 13.7034 81.2734 15.0515 79.6906 16.8501C79.1829 17.427 78.6963 18.0524 78.2048 18.6735C78.4538 18.9407 78.6773 19.2227 78.8794 19.5461C79.1258 19.2755 79.393 19.0415 79.6404 18.7741C79.808 18.5942 79.964 18.3768 80.1327 18.2036C80.2768 18.0553 80.4083 17.9219 80.5604 17.7933C80.4724 17.9922 80.3752 18.1848 80.2869 18.3827C79.9857 19.05 79.7032 19.7204 79.397 20.3871C79.4968 20.5587 79.5466 20.7119 79.6495 20.8931C80.1744 19.684 80.8638 18.6116 81.5743 17.5319C82.5364 16.0653 83.5445 14.9587 84.672 14.0749C85.6538 13.307 86.6765 12.531 87.6721 12.0147C88.7954 11.4337 89.9171 10.6712 91.0509 10.4293C91.4522 10.3434 91.8887 10.0388 92.3028 9.85526C93.2348 9.44335 94.1187 9.31958 95.0296 9.12281C95.9951 8.91333 96.968 8.68365 97.9251 8.53964C98.8054 8.40883 99.6716 8.33009 100.536 8.29697C101.796 8.24804 103.057 8.18037 104.304 8.20473C104.906 8.21704 105.471 8.44776 106.056 8.53903C106.365 8.58739 106.799 8.41965 106.991 8.65649C107.254 8.97814 107.576 8.77181 107.865 8.84576C108.186 8.928 108.479 9.1402 108.777 9.29967C108.819 9.32205 108.837 9.3962 108.88 9.41575C109.586 9.73793 110.29 10.0605 111.01 10.3387C111.899 10.6824 112.691 11.2774 113.198 12.3396C113.988 13.9997 114.085 16.0651 113.244 18.5173C112.932 19.4259 112.501 20.3101 112.06 21.1325C111.115 22.8932 110.269 24.7563 109.129 26.2873C109.065 26.3715 109.002 26.4154 108.939 26.4995C108.952 26.3852 108.963 26.3024 108.987 26.1891C109.057 25.8273 108.934 25.8786 108.743 25.9544C108.171 26.1784 107.671 26.7458 107.148 27.2228C107.01 27.3492 106.851 27.4563 106.712 27.5816C107.236 27.8108 107.761 28.0799 108.277 28.3141C108.482 28.059 108.694 27.767 108.894 27.5002C109.762 26.3493 110.587 25.142 111.32 23.7888C111.654 23.1718 111.954 22.5321 112.241 21.8779C112.786 20.6323 113.482 19.4254 113.885 18.1312C114.689 15.5522 114.613 13.299 113.74 11.4978C113.242 10.4696 112.532 9.8345 111.77 9.27749C110.496 8.34799 109.102 7.71803 107.702 7.11498C107.621 7.0808 107.53 7.01381 107.465 6.93923C107.432 6.90194 107.437 6.80926 107.411 6.75778C107.455 6.73347 107.518 6.64928 107.555 6.65436C108.038 6.70982 108.511 6.82616 108.992 6.88835C109.593 6.96715 110.199 7.01939 110.504 7.05964C112.746 7.88787 114.553 8.99878 115.913 10.9943C116.776 12.2612 117.395 13.9008 117.469 16.0141C117.506 17.026 117.172 18.0896 117.014 19.1405C116.611 19.7409 116.561 20.533 116.264 21.1837C115.3 23.296 114.175 25.2552 112.929 27.069C112.323 27.949 111.736 28.8104 111.078 29.5888C111.402 29.7453 111.732 29.9318 112.047 30.088C112.904 29.0107 113.656 27.7808 114.39 26.5185C114.778 25.8499 115.137 25.1617 115.484 24.4549C115.989 23.4298 116.507 22.403 116.933 21.3268C117.323 20.341 117.774 19.2883 117.932 18.2845C118.259 16.2212 118.183 14.2985 117.65 12.6831C116.934 10.5129 115.851 8.91214 114.4 7.82562L114.401 7.82385Z" fill="#1E1E1E"/>
<path d="M100.148 34.3821C101.243 33.7043 102.415 33.2308 103.512 32.511C102.892 32.1303 102.152 31.866 101.421 31.7851C101.228 31.9383 101.035 32.1032 100.841 32.2472C100.151 32.761 99.4459 33.3321 98.7513 33.6549C98.1736 33.9225 97.6011 33.8764 97.0262 33.934C96.8455 33.9506 96.7504 34.035 96.8046 34.2741C96.8757 34.5866 96.847 34.5716 96.6227 34.6267C96.5413 34.6473 96.474 34.6749 96.3922 34.6945C96.1641 35.2023 96.005 35.7433 95.9581 36.3051C97.3594 35.7818 98.7335 35.2619 100.15 34.3838L100.148 34.3821Z" fill="#1E1E1E"/>
<path d="M100.078 36.4533C98.7759 36.8175 97.4885 37.1106 96.2345 37.0792C96.143 37.0773 96.0138 37.0894 95.9213 37.0914C95.9524 37.4979 96.0534 37.916 96.1908 38.3193C96.2683 38.547 96.3779 38.7578 96.4832 38.9665C96.6406 38.9542 96.7901 38.9116 96.9488 38.8895C98.4956 38.6687 100.065 38.2466 101.632 37.74C102.355 37.5058 103.087 36.9919 103.814 36.7251C104.463 36.4864 105.135 36.1645 105.767 35.7458C105.725 35.5474 105.617 35.3291 105.55 35.1332C105.446 34.8273 105.345 34.5626 105.191 34.2927C104.524 34.6782 103.866 35.051 103.198 35.3744C102.168 35.8714 101.102 36.1685 100.078 36.4543L100.078 36.4533Z" fill="#1E1E1E"/>
<path d="M111.069 29.5614C111.029 29.608 111.01 29.6983 110.971 29.7434C109.929 30.9467 108.846 31.9749 107.699 32.7293C107.442 32.8985 107.149 33.0714 106.891 33.2197C106.315 33.5503 105.732 33.9085 105.157 34.2401C105.312 34.5101 105.432 34.8329 105.536 35.1389C105.603 35.3358 105.69 35.5012 105.731 35.6989C106.254 35.3517 106.762 34.9614 107.281 34.5743C107.966 34.0609 108.659 33.415 109.338 32.8493C110.222 32.1123 111.046 31.2445 111.855 30.2566C111.91 30.1894 111.971 30.1144 112.025 30.0462C111.71 29.89 111.391 29.7197 111.068 29.5618L111.069 29.5614Z" fill="#1E1E1E"/>
<path d="M95.9626 37.0896C95.4163 37.0996 94.8537 37.1588 94.3101 37.1561C94.0382 37.1542 93.7847 37.0715 93.5278 36.996C93.4938 36.9863 93.4875 36.888 93.4652 36.84C93.5155 36.8111 93.5623 36.7337 93.6099 36.7246C93.9631 36.6634 94.3202 36.628 94.6709 36.5771C94.9475 36.5373 95.2287 36.5975 95.5074 36.4908C95.6585 36.4322 95.8456 36.3685 95.9974 36.3121C96.0454 35.7499 96.1451 35.2043 96.3736 34.6976C95.2058 34.9783 94.0531 35.1925 92.9166 35.2428C91.7536 35.295 90.58 35.4064 89.43 35.3963C88.7889 35.3913 88.1856 35.1714 87.5644 35.0757C87.1351 35.0104 86.7051 34.9288 86.2721 34.8801C86.0314 34.8522 85.7859 34.7929 85.5573 34.7242C85.7863 35.7084 85.9735 36.6844 86.067 37.6344C86.8361 37.8109 87.6127 37.9647 88.3704 38.1769C88.3937 38.1831 88.413 38.1671 88.4374 38.1659C89.6034 38.1847 90.6839 38.5623 91.7969 38.7788C92.3893 38.8937 92.9705 39.1388 93.5935 39.0873C94.5681 39.0048 95.5068 39.049 96.4839 38.9703C96.3775 38.7619 96.2895 38.5414 96.2119 38.3138C96.0746 37.9104 95.9947 37.4957 95.9626 37.0896Z" fill="#1E1E1E"/>
<path d="M102.759 30.7412C102.313 31.0869 101.844 31.4571 101.399 31.8095C102.13 31.89 102.87 32.0847 103.49 32.4654C103.526 32.4415 103.564 32.4759 103.599 32.452C104.501 31.8482 105.423 31.3218 106.301 30.4993C107.001 29.8451 107.605 29.0699 108.245 28.2718C107.729 28.0376 107.229 27.7895 106.705 27.5603C105.833 28.3488 104.975 29.1514 104.071 29.7806C103.633 30.0856 103.192 30.4037 102.759 30.7426L102.759 30.7412Z" fill="#1E1E1E"/>
<path d="M75.7706 22.2077C75.4745 22.7551 75.1058 23.2659 74.8424 23.84C74.5878 24.3981 74.4493 24.9959 74.2792 25.6292C73.9608 26.8247 73.8721 27.832 74.0381 28.742C74.3359 28.6465 74.6589 28.5731 74.9579 28.5504C74.7218 27.968 74.609 27.2975 74.7594 26.3672C74.8261 25.9499 74.9687 25.6414 75.1211 25.2575C76.0834 22.8526 77.4585 21.1614 78.8994 19.5731C78.6973 19.2497 78.4554 18.9587 78.2063 18.6914C77.9028 19.0748 77.5942 19.4363 77.2859 19.8059C76.7003 20.5075 76.2378 21.3456 75.7695 22.2081L75.7706 22.2077Z" fill="#1E1E1E"/>
<path d="M81.5843 33.0895C81.3568 32.9307 81.1459 32.817 80.9201 32.6564C80.107 32.0767 79.3608 31.375 78.7447 30.3973C78.7126 30.3551 78.6283 30.4193 78.6375 30.4705C78.774 30.7016 78.8644 30.9532 78.9546 31.2179C79.3144 32.2746 79.2188 33.3622 78.7449 34.281C78.894 34.3862 79.0505 34.4995 79.1947 34.6146C79.5296 34.881 79.8773 35.1123 80.2296 35.3326C80.2275 35.3369 80.225 35.3401 80.2219 35.3447C80.8785 35.7556 81.5788 36.1008 82.2602 36.4288C83.4693 37.0107 84.7717 37.347 86.0746 37.6465C85.9811 36.6965 85.8381 35.6947 85.6091 34.7105C85.4251 34.6551 85.2047 34.6521 84.9936 34.6661C84.5477 34.6939 84.1478 34.3681 83.739 34.1895C83.6058 34.1309 83.4927 34.0312 83.353 33.9984C82.7194 33.8491 82.154 33.4461 81.6103 33.0689" fill="#1E1E1E"/>
<path d="M78.9669 22.7351C79.1631 22.0918 79.3909 21.486 79.6457 20.9007C79.5417 20.7199 79.4447 20.532 79.3449 20.3603C78.9671 21.1837 78.6025 22.0286 78.3494 22.9171C77.9733 24.2373 77.6318 25.6108 77.4537 26.9203C77.4208 27.1631 77.3982 27.3669 77.385 27.6018C77.6592 27.6656 77.7647 27.7537 77.9483 27.5411C77.967 26.9901 78.0086 26.3603 78.2161 25.6776C78.5113 24.7087 78.7223 23.7176 78.968 22.7348L78.9669 22.7351Z" fill="#B49CFF"/>
<path d="M77.4216 29.2171C77.9024 29.5378 78.3456 29.9457 78.6515 30.4595C78.6798 30.5077 78.7005 30.4959 78.7281 30.5456C78.7273 30.5435 78.7278 30.4028 78.727 30.4007C78.2192 29.5918 77.8679 28.6953 77.9068 27.5348C77.7839 27.2812 77.34 27.2457 77.1547 27.4565C77.1239 28.007 77.3426 28.7288 77.4219 29.2181L77.4216 29.2171Z" fill="#B49CFF"/>
<path d="M78.1306 25.6324C77.4852 27.7556 77.9792 29.355 78.7299 30.5479C79.347 31.5287 80.1181 32.0577 80.9331 32.6392C81.1588 32.7998 81.3918 32.9367 81.6193 33.0955C82.3701 31.9159 83.1292 30.7606 83.9306 29.6571C82.6341 26.3661 80.9819 23.1526 79.6351 20.8051C79.3803 21.3905 78.9993 21.9692 78.8032 22.6126C78.5575 23.5954 78.4244 24.6628 78.1295 25.6328L78.1306 25.6324Z" fill="#B49CFF"/>
</g>
<defs>
<clipPath id="clip0_201_10550">
<rect width="119.725" height="37.5488" fill="white" transform="translate(0 38.5938) rotate(-18.8059)"/>
</clipPath>
</defs>
</svg>
