<svg width="63" height="193" viewBox="0 0 63 193" fill="none" xmlns="http://www.w3.org/2000/svg">
<g clip-path="url(#clip0_201_10575)">
<path d="M7.60704 117.131C7.49001 116.473 7.46258 115.581 7.38212 114.92C7.30532 114.735 7.21755 114.55 7.20658 114.36C6.81526 108.335 5.22074 102.453 5.07263 96.3913C5.02326 94.4288 4.54051 92.4808 4.35766 90.5166C3.8292 84.8178 3.10874 79.1353 3.23674 73.3858C3.29708 70.6942 2.68816 67.9736 2.89114 65.3038C3.12336 62.2676 3.14896 59.2531 3.08862 56.2206C3.04108 53.8264 3.04291 51.4323 3.07948 49.0382C3.09045 48.3 3.25137 47.5581 3.40679 46.829C3.41228 46.8018 3.42142 46.7746 3.43239 46.7492C3.43971 46.459 3.45434 46.1688 3.47628 45.8786C3.60245 44.2753 3.98828 42.7227 4.41251 41.1792C4.40154 40.5789 4.3924 39.9803 4.39057 39.38C4.3796 37.1074 4.46188 34.8475 4.63011 32.5893C4.06874 27.7702 4.23331 22.9711 4.56794 18.152C4.63194 17.2125 5.058 15.8667 3.93342 15.7125C3.14714 15.6055 3.05754 17.0928 2.83079 17.9525C2.82896 17.9634 2.82348 17.9706 2.81799 17.9797C2.83079 17.9652 2.83628 17.9561 2.85456 17.9343C2.66439 19.7771 2.51628 21.3369 2.33525 22.8913C2.19993 24.0503 1.75742 25.2401 1.90553 26.3555C2.51079 30.8953 1.31307 35.3299 1.24907 39.8298C1.20153 43.187 0.590784 46.537 0.230554 49.8906C0.206782 50.1028 0.155582 50.315 0.159239 50.5254C0.228725 53.6432 0.38964 56.7611 0.358554 59.8771C0.32564 63.2234 -0.142476 66.5806 0.0385533 69.907C0.424383 76.9643 0.78827 84.0343 1.82142 91.0425C2.71742 97.1349 3.714 103.211 4.57343 109.309C5.02326 112.501 5.74372 115.655 5.7108 118.922C5.67057 122.877 5.91377 126.835 5.93755 130.794C5.95766 134.034 6.98898 137.197 6.54281 140.472C6.43492 141.261 6.74761 142.116 6.91949 142.928C6.94692 143.057 7.24315 143.193 7.42601 143.206C7.53755 143.213 7.75881 143.008 7.77161 142.879C7.98373 140.995 8.36956 139.101 8.32018 137.219C8.18304 131.906 7.86121 126.597 7.61984 121.288C7.59241 120.665 7.58692 120.035 7.62532 119.413" fill="white"/>
<path d="M62.4552 26.7266C62.596 27.0458 62.7532 27.2126 62.7734 27.4865C62.8758 28.8795 63.0275 30.2833 62.9964 31.718C62.9489 33.9035 62.6015 36.2106 62.6801 38.2964C62.7642 40.511 62.2614 42.7655 62.5393 44.8694C62.0273 47.7732 62.3491 50.7695 61.8975 53.6805C61.6396 55.3329 62.0566 56.8727 61.7018 58.6266C61.3873 60.1828 61.2264 61.9058 61.4348 63.5418C60.8021 67.1512 61.0764 70.9473 60.4693 74.5785C60.3285 75.4273 60.3596 76.4031 60.3084 77.319C60.2572 78.2349 60.2261 79.1545 60.1384 80.0614C59.9116 82.4319 59.3265 84.7245 59.5532 87.2057C59.5843 87.5322 59.31 88.1253 59.182 88.6005C59.0943 88.9179 58.9333 89.2861 58.9425 89.5581C59.076 93.7678 58.0885 97.6166 57.6899 101.649C57.4723 103.84 56.9182 105.982 57.1925 108.234C56.6805 111.825 56.5763 115.669 55.5011 118.921C55.2158 119.784 55.108 121.012 54.9452 122.088C54.5594 124.62 54.1918 127.159 53.8078 129.693C53.7877 129.821 53.6853 129.999 53.6378 129.983C53.5756 129.963 53.5006 129.809 53.4824 129.658C53.4019 129.002 53.2026 128.225 53.294 127.674C53.9267 123.861 53.5957 119.851 54.3326 116.084C54.3052 113.875 54.4314 111.673 54.7422 109.477C54.4094 107.467 55.1336 105.367 55.0312 103.462C54.9269 101.503 55.2835 99.7858 55.4188 97.9576C55.5413 96.3179 55.5249 94.6565 55.662 93.0224C55.801 91.3664 56.1246 89.754 55.9162 88.0763C55.8632 87.6464 56.0204 86.9826 56.0899 86.4294C56.4117 83.8521 56.7372 81.2766 57.0609 78.6993C56.708 76.2181 57.6497 73.5464 57.3077 71.0308C57.251 70.6136 57.4229 69.9407 57.4833 69.3857C57.7009 67.3833 58.0867 65.4753 57.9331 63.3224C57.8545 62.2124 58.2037 60.7741 58.3573 59.4827C58.553 57.8449 58.8346 56.2778 58.7066 54.5239C58.6353 53.5626 58.9023 52.342 59.0138 51.2374C59.2515 48.8687 59.8769 46.5544 59.5679 44.1076C60.2865 38.7897 60.9905 33.4628 61.7475 28.1649C61.8298 27.5881 62.2193 27.1891 62.457 26.7284L62.4552 26.7266Z" fill="white"/>
<path d="M20.5296 0.0660053C20.6485 0.249193 20.7655 0.530322 20.7948 0.81508C20.8643 1.51156 20.7344 2.18083 20.5315 2.81019C20.2188 3.7751 20.1072 4.78536 20.2773 5.81375C20.4126 6.63174 20.4419 7.46062 20.3925 8.34754C20.2937 10.0851 20.2297 11.8227 20.142 13.562C20.0743 14.8933 20.2572 15.9725 20.8807 16.4912C21.2282 16.7778 21.3854 17.2476 21.5244 17.8914C21.8627 19.4494 21.8352 21.2305 22.1424 22.8012C22.0272 25.072 22.5795 27.1433 22.36 29.4486C22.3271 29.7896 22.2942 30.1977 22.3582 30.477C22.808 32.4376 22.5301 34.5452 22.4167 36.6074C22.0766 42.863 21.7127 49.1186 21.3562 55.3742C21.2867 56.593 21.2428 57.7792 21.4366 58.9527C21.5372 59.5639 21.486 60.3094 21.4677 60.9968C21.4147 62.8921 21.1587 64.8346 21.5646 66.6194C21.5299 67.6604 21.4878 68.7034 21.4604 69.7444C21.4074 71.8085 21.1276 73.9015 21.4878 75.913C21.5957 76.5061 21.5006 77.2805 21.4695 77.9734C21.4092 79.3627 21.3269 80.7538 21.2592 82.145C21.2245 82.8396 21.1148 83.5923 21.1934 84.2199C21.5098 86.7573 21.2922 89.3546 21.1477 91.9446C21.0106 94.3768 20.8862 96.0527 20.7308 98.4849C20.7088 98.8332 20.6851 99.1796 20.6631 99.5278C20.6192 100.232 20.5113 100.894 20.3047 101.518C20.0487 102.296 19.9737 103.168 19.8896 104.033C19.7433 105.582 19.6227 107.887 19.1893 109.36C19.0302 109.899 19.054 110.764 19.1399 111.381C19.3539 112.933 19.2972 114.384 18.8912 115.92C18.6864 116.691 18.606 117.6 18.5347 118.454C18.3481 120.707 18.1964 122.967 18.0336 125.223C17.9312 126.658 17.5673 127.878 17.0883 128.997C17.0444 129.101 16.9182 129.175 16.8597 129.135C16.7079 129.034 16.5305 128.925 16.4446 128.696C16.355 128.453 16.3184 128.072 16.3276 127.746C16.3641 126.531 16.43 125.316 16.4775 124.1C16.5049 123.406 16.622 122.635 16.5269 122.029C16.1026 119.325 16.2087 114.997 16.344 112.249C16.5854 107.383 17.2419 103.297 17.5198 98.4305C17.5692 97.5672 17.5984 98.1095 17.4704 97.3659C17.1486 95.5086 17.3991 92.8605 17.4942 90.9652C17.5984 88.8794 17.6259 88.3063 17.7484 86.2205C17.7996 85.3426 17.7868 84.4992 17.6569 83.6721C17.5838 83.2006 17.6478 81.1656 17.646 80.6577C17.646 80.1426 17.7027 79.6166 17.7593 78.6844C17.774 78.581 17.7886 77.9915 17.9385 77.5852C18.3737 76.4027 18.2201 75.3162 18.1214 74.1264C18.072 73.5424 18.3043 72.8205 18.4085 72.1603C18.1324 70.849 18.3079 69.4397 18.3792 68.0613C18.5639 64.5862 18.7614 61.1092 18.9589 57.6341C19.0375 56.2448 19.1308 54.879 18.8784 53.5441C18.7669 52.951 18.8236 52.1874 18.851 51.5019C18.9187 49.7643 19.0211 48.0249 19.096 46.2873C19.1253 45.5963 19.2185 44.8255 19.1143 44.2306C18.8492 42.727 18.9589 41.178 19.0229 39.6218C19.0942 37.8934 19.3173 36.1286 18.9077 34.5271C18.9205 33.3155 19.0759 32.0005 18.915 30.9177C18.6608 29.2273 18.7084 27.5442 18.776 25.8084C18.7961 25.2951 18.8272 24.7184 18.7376 24.2812C18.4688 22.9735 18.5456 21.5969 18.5987 20.2076C18.6243 19.5166 18.7157 18.7312 18.5968 18.1544C18.2531 16.493 18.4195 14.7754 18.5328 13.0451C18.6572 11.1334 18.7852 9.22358 18.904 7.31189C18.9589 6.43223 19.0942 5.61968 19.3173 4.80531C19.4855 4.19226 19.5495 3.47765 19.6428 2.80112C19.736 2.11916 19.8055 1.42812 19.8915 0.740716C19.9481 0.29635 20.3742 -0.171595 20.5315 0.0696327L20.5296 0.0660053Z" fill="white"/>
<path d="M36.7726 26.7455C36.9317 26.6802 37.0816 26.7872 37.1017 27.0139C37.1895 28.0206 37.4035 28.9945 37.3779 30.0356C37.3596 30.8427 37.5242 31.6553 37.5296 32.466C37.537 33.6921 37.8039 34.9073 37.6083 36.1407C37.9466 37.4719 37.6522 38.7887 37.5717 40.1109C37.515 41.0269 37.3669 41.9319 37.579 42.866C37.6631 43.2288 37.5955 43.6804 37.5644 44.0867C37.4858 45.1114 37.3815 46.1307 37.3011 47.1555C37.2682 47.5618 37.1932 48.0043 37.2663 48.3761C37.4858 49.5224 37.281 50.6252 37.2023 51.7425C37.1182 52.9613 36.8586 54.1602 37.1438 55.4098C37.2261 55.7671 37.1255 56.2242 37.089 56.6305C36.9975 57.6534 36.8823 58.6709 36.7982 59.6939C36.7159 60.7096 36.5257 61.7325 36.7982 62.75C36.7616 63.4665 36.7415 64.1865 36.6812 64.8993C36.6208 65.6194 36.5897 66.3177 36.7324 67.0377C36.8074 67.4132 36.7671 67.8521 36.7379 68.2565C36.6793 69.0764 36.5843 69.8907 36.5203 70.7087C36.4873 71.115 36.4142 71.5666 36.4947 71.933C36.7251 72.9668 36.5861 73.9716 36.4983 74.991C36.4197 75.9051 36.2405 76.8228 36.5184 77.7333C36.4727 78.5513 36.4416 79.373 36.3795 80.1891C36.3173 81.0071 36.2076 81.8124 36.3923 82.6377C36.4544 82.9134 36.4252 83.2471 36.4051 83.55C36.352 84.3716 36.3264 85.2041 36.2039 86.004C36.096 86.7113 36.416 87.426 36.1363 88.1043C36.1472 88.7083 36.1801 89.3141 36.1655 89.918C36.1527 90.4295 36.0869 90.9428 36.0412 91.4525C35.9863 92.0655 35.9113 92.6749 35.8675 93.2898C35.8089 94.1023 35.6846 94.904 35.8729 95.7383C35.9552 96.0993 35.8857 96.5527 35.851 96.9553C35.6974 98.6929 35.5328 100.429 35.3701 102.164C35.3024 102.879 35.2439 103.579 35.3865 104.305C35.4597 104.68 35.4268 105.119 35.3939 105.522C35.264 107.058 35.1141 108.587 34.9715 110.119C34.9331 110.528 34.8489 110.945 34.8782 111.344C34.9422 112.26 35.0665 113.159 34.9257 114.093C34.8051 114.897 34.7484 115.722 34.6643 116.536C34.5692 117.454 34.4832 118.374 34.3735 119.288C34.3241 119.687 34.2748 120.12 34.1321 120.452C33.8579 121.089 33.7555 121.782 33.7116 122.5C33.6147 124.073 33.1465 125.449 32.7058 126.842C32.64 127.049 32.4901 127.069 32.3511 127.053C32.1902 127.033 32.0878 126.938 32.0494 126.697C32.0348 126.599 32.0073 126.498 32.0165 126.403C32.0786 125.794 32.15 125.186 32.2176 124.577C32.6985 123.617 32.7388 122.466 32.8466 121.348C32.9545 120.235 33.1411 119.137 32.9234 117.982C32.8375 117.523 32.982 116.966 33.0185 116.455C33.0716 115.738 33.1228 115.02 33.174 114.304C32.8375 112.555 33.163 110.834 33.2691 109.102C33.2947 108.698 33.2544 108.286 33.2435 107.876C33.2416 107.778 33.2105 107.651 33.2398 107.584C33.7445 106.452 33.5525 105.235 33.5013 104.005C33.4665 103.196 33.6128 102.369 33.6787 101.55C33.7372 100.833 33.8944 100.097 33.8323 99.4057C33.7372 98.3864 33.8085 97.3489 33.6622 96.3514C33.5708 95.7311 33.547 95.138 33.6073 94.5231C33.6677 93.9119 33.7427 93.3007 33.7847 92.6858C33.8853 91.1604 34.198 89.6496 33.9036 88.0934C33.8505 87.8123 33.9237 87.4804 33.9365 87.172C33.9859 86.0511 34.2199 84.9266 33.9072 83.813C33.942 83.1963 33.9676 82.5778 34.0151 81.9648C34.0553 81.4479 34.0517 80.9509 33.9657 80.4358C33.8999 80.0477 33.8871 79.6214 33.9109 79.2206C33.9548 78.4987 33.9877 77.8004 33.8396 77.0822C33.7628 76.7068 33.8012 76.2678 33.8304 75.8634C33.8743 75.2413 33.8853 74.6391 33.7591 74.0279C33.7006 73.7413 33.675 73.4058 33.7152 73.1174C33.9182 71.67 33.4574 70.2716 33.5945 68.8351C33.4099 68.1387 33.4355 67.4277 33.5104 66.7058C33.5854 65.993 33.6073 65.2911 33.4812 64.5656C33.3989 64.0868 33.4483 63.5499 33.472 63.042C33.5104 62.2259 33.6695 61.4042 33.3971 60.6098C33.43 59.8934 33.4501 59.1752 33.4958 58.4605C33.5561 57.5446 33.7097 56.6504 33.5342 55.7055C33.4464 55.2375 33.5232 54.6862 33.5726 54.1819C33.878 51.0188 34.1943 47.8556 34.5143 44.6961C35.0099 39.8008 35.5109 34.9073 36.0119 30.0157C36.1161 29 36.1692 27.9643 36.438 27.0049C36.4764 26.8706 36.6501 26.7963 36.7708 26.7455H36.7726Z" fill="white"/>
<path d="M39.5763 193.001C39.1649 170.659 39.7226 194.453 39.3112 172.11C39.1357 162.55 39.2234 152.155 45.1444 144.608C47.4721 141.641 50.5752 142.181 52.4404 138.911C54.3055 135.639 52.861 132.57 49.6866 130.519C45.6655 127.922 42.9665 132.931 39.6531 136.374C39.3057 133.593 38.0495 124.637 35.6559 122.854C34.4326 121.942 32.7905 121.693 31.4282 122.384C29.7386 123.242 29.5631 124.92 29.4332 126.473C29.1571 129.768 28.881 133.064 28.6049 136.359C26.5422 133.185 23.0515 131.027 19.312 130.378C16.4174 129.875 14.3749 132.222 14.1317 135.128C13.8812 138.128 16.9386 139.484 17.8163 141.641C14.8979 141.547 9.08298 141.285 7.64389 143.861C4.63405 149.251 18.7031 154.5 18.7031 154.5C18.7031 154.5 19.4565 186.524 18.7836 192.999" fill="#39E241"/>
<path d="M51.4361 134.732C52.6942 132.548 53.954 130.364 55.2121 128.179C55.9637 126.873 53.9339 125.697 53.1824 127.002C51.9243 129.185 50.6644 131.369 49.4064 133.555C48.6548 134.861 50.6846 136.036 51.4361 134.732Z" fill="black"/>
<path d="M35.2109 125.001V117.842C35.2109 116.34 32.8594 116.338 32.8594 117.842V125.001C32.8594 126.502 35.2109 126.504 35.2109 125.001Z" fill="black"/>
<path d="M19.7593 134.205C19.7684 131.992 19.1979 129.881 18.0788 127.967C17.32 126.669 15.2866 127.842 16.0491 129.144C16.967 130.715 17.415 132.391 17.4077 134.205C17.4022 135.706 19.7538 135.708 19.7593 134.205Z" fill="black"/>
<path d="M11.7833 146.215C10.0626 145.136 8.92887 143.495 8.46624 141.538C8.12064 140.076 5.85321 140.694 6.19881 142.158C6.79858 144.701 8.37664 146.839 10.5965 148.231C11.8802 149.034 13.0615 147.017 11.7833 146.217V146.215Z" fill="black"/>
</g>
<defs>
<clipPath id="clip0_201_10575">
<rect width="63" height="193" fill="white"/>
</clipPath>
</defs>
</svg>
