<svg width="218" height="182" viewBox="0 0 218 182" fill="none" xmlns="http://www.w3.org/2000/svg">
<g clip-path="url(#clip0_201_16755)">
<path d="M140.585 38.7046C141.06 41.6678 141.375 44.7055 141.408 47.6035C141.759 47.7976 142.127 48.0162 142.51 48.1483C143.2 48.3854 143.904 48.5907 144.583 48.8516C145.566 49.2329 146.475 49.771 147.523 50.0095C149.401 50.439 151.35 50.7287 153.271 51.0631C155.147 51.3875 157.099 51.4189 159.112 51.3796C160.437 49.6003 162.473 48.3269 164.851 48.0601C166.097 47.9204 167.311 48.0818 168.425 48.4577C169.28 48.0417 170.159 47.7077 171.014 47.303C171.845 46.9066 172.623 46.4051 173.449 46.0658C175.156 45.3622 176.877 44.5082 178.588 43.533C170.699 37.7992 162.25 32.4747 157.448 30.6408C153.36 29.0808 146.929 33.086 140.583 38.7048L140.585 38.7046Z" fill="#39E241"/>
<path d="M171.719 50.2613C171.652 50.2876 171.571 50.389 171.504 50.4153C172.49 51.3629 173.32 52.4656 173.743 53.8246C174.803 53.4873 175.822 53.1829 176.882 52.8493C177.359 52.6998 177.885 52.4732 178.367 52.2892C180.516 51.4682 182.599 50.0973 184.738 48.5053C184.82 48.4453 184.957 48.3735 185.037 48.3118C183.721 47.2769 182.318 46.2292 180.912 45.178C179.577 46.2542 178.257 47.3135 176.877 48.1331C175.143 49.1617 173.413 49.5987 171.717 50.2634L171.719 50.2613Z" fill="#39E241"/>
<path d="M155.655 53.94C155.061 53.8974 154.464 53.8645 153.864 53.8377C153.783 53.8355 153.683 53.8618 153.59 53.8911C153.609 53.9774 153.57 54.1663 153.624 54.1942C154.015 54.4101 154.401 54.6794 154.844 54.7785C155.732 54.9783 156.674 55.0138 157.57 55.1939C157.631 54.7483 157.75 54.317 157.881 53.8936C157.613 53.9313 157.316 53.9419 157.048 53.9833C156.555 54.0574 156.124 53.974 155.655 53.94Z" fill="#39E241"/>
<path d="M180.98 53.0168C179.665 53.6972 178.329 54.5644 177.023 55.1572C176.033 55.6052 175.082 56.0866 174.1 56.466C174.055 60.5967 170.913 64.0804 166.703 64.5526C162.493 65.0249 158.822 62.3599 157.803 58.4277C156.175 58.2054 154.621 57.7809 152.997 57.564C151.96 57.4241 151.086 56.8669 150.158 56.4664C148.415 55.7129 146.766 54.7812 144.865 54.3298C144.824 54.323 144.811 54.253 144.775 54.2326C143.613 53.6134 142.422 53.103 141.227 52.5385C140.539 58.2835 138.315 63.1537 133.523 65.6758C131.113 66.946 128.601 68.0073 126.009 68.9758C128.855 75.7084 135.043 73.9052 134.031 81.1439C132.635 91.1314 128.081 89.2565 122.036 97.3289C115.991 105.399 115.893 105.326 109.848 113.398C103.804 121.471 103.861 121.513 97.8165 129.586C91.7719 137.658 91.768 137.656 85.7232 145.727C79.6786 153.799 79.9096 153.979 73.5884 161.835C66.8712 169.064 71.3557 171.173 73.695 172.926C76.0344 174.678 76.4002 169.327 80.7404 168.823C84.5769 168.378 83.0569 173.561 86.9168 173.425C90.3848 173.304 91.742 171.839 91.7708 168.369C91.7963 165.256 87.9077 167.285 86.9485 164.323C86.3377 162.437 87.4273 160.735 89.3674 161.145C93.327 161.981 91.9358 164.72 95.7135 166.168C97.6969 166.929 98.6422 164.714 99.6872 164.713C100.73 164.713 102.197 163.686 101.403 162.369C99.5615 159.312 97.0218 158.443 95.6437 158.192C94.2655 157.942 94.955 156.904 96.0706 156.224C97.9053 155.105 98.0458 155.368 99.9824 154.435C100.995 153.947 101.403 153.722 101.945 153.347C102.488 152.971 103.069 153.498 104.159 153.215C105.076 152.979 105.097 152.306 105.472 151.805C105.847 151.303 106.77 153.915 107.709 152.962C115.847 144.708 114.847 143.826 122.043 134.739C129.239 125.652 130.958 126.791 136.454 116.584C137.586 114.484 133.618 114.803 134.164 112.482C135.094 108.518 135.585 108.199 138.967 105.929C141.541 104.202 142.995 107.328 145.147 105.097C149.936 100.131 149.494 95.0682 154.004 95.3156C158.513 95.563 164.039 100.325 174.565 104.394C177.589 102.88 181.274 97.7081 184.828 91.3875C187.493 86.6466 190.089 81.2809 192.198 76.3294C195.426 68.748 197.634 62.1641 197.385 60.4277C197.137 58.7044 192.532 54.3157 186.432 49.4189C186.318 49.5107 186.186 49.6611 186.072 49.7511C184.392 51.0749 182.69 52.1302 180.978 53.017L180.98 53.0168Z" fill="#39E241"/>
<path d="M132.736 30.2224C130.915 33.4601 130.989 35.862 131.787 38.081C132.444 39.9054 133.472 41.2832 134.594 42.5263C134.906 42.8698 135.238 43.1771 135.553 43.5184C137.207 41.8604 138.865 40.2452 140.574 38.7298C139.639 32.8865 138.113 27.2279 136.755 22.9082C136.127 23.7732 135.586 24.7039 135.033 25.6848C134.277 27.2025 133.567 28.7453 132.734 30.2226L132.736 30.2224Z" fill="#B49CFF"/>
<path d="M132.55 46.7364C132.046 46.245 131.534 45.6603 131.076 45.0979C130.882 44.8598 130.605 44.6065 130.399 44.3811C129.35 45.6417 127.876 46.581 126.115 46.7785C122.5 47.184 119.27 44.5654 118.865 40.9504C118.459 37.3354 121.032 34.0981 124.647 33.6927C124.69 33.6879 124.805 33.6749 124.846 33.6703C124.902 32.1238 125.222 30.4912 126.173 28.6521C126.678 27.6785 127.252 26.8364 127.87 26.0177C128.508 25.1741 129.138 24.3409 129.819 23.5545C130.895 22.3136 132.021 21.1591 133.232 20.223C133.872 19.7295 134.59 19.2121 135.225 18.6947C132.307 13.7345 125.259 12.0528 117.584 11.6483C110.781 11.289 103.442 11.9804 97.9087 12.3224C85.3889 13.0959 85.9377 14.7648 87.2439 23.5736C88.0119 30.4206 84.5609 32.2048 76.9719 33.5588C68.2623 35.1119 68.1748 34.5003 59.3828 35.4865C50.5907 36.4726 50.6005 36.56 41.8084 37.5462C33.0164 38.5323 33.0134 38.5063 24.2214 39.4925C15.4293 40.4786 15.4268 40.4563 6.63473 41.4425C0.721284 42.1057 1.66341 47.7017 6.22013 51.898C11.0793 56.373 16.9178 57.0399 18.4743 56.8654C21.0304 54.3718 22.4442 56.904 26.7789 58.0974C29.1294 56.5741 30.62 56.4671 34.7408 56.0049C36.0611 55.8568 34.754 55.9545 36.4134 53.8778C38.0729 51.8012 39.803 56.0453 43.3993 54.3822C46.9938 52.7194 46.0691 55.1015 49.2367 56.2638C51.8821 57.2362 52.2055 54.6297 54.8526 55.6C57.382 56.529 55.8124 59.1039 58.4534 59.6343C68.2853 61.6064 70.9803 58.7734 78.4502 57.9356C85.9201 57.0977 86.0989 58.3562 90.1892 66.721C94.2796 75.0858 93.9682 75.4992 101.157 74.9226C113.892 73.9028 113.824 73.5301 125.943 68.9998C128.219 64.5794 120.52 65.7122 120.458 60.7406C120.341 51.4726 125.762 53.9394 132.555 46.7358L132.55 46.7364Z" fill="#B49CFF"/>
<path d="M127.686 28.3396C127.297 28.9143 126.95 29.3806 126.688 30.0389C126.107 31.505 126.128 32.6644 126.304 33.701C127.782 33.91 129.121 34.6523 130.125 35.6959C130.192 34.5152 130.513 33.2308 130.984 31.9446C131.747 29.8668 132.84 27.7728 133.931 25.7505C134.667 24.3894 135.469 23.1113 136.384 21.9034C136.24 21.4508 136.207 21.0288 136.07 20.613C136.047 20.5403 135.945 20.4575 135.92 20.385C132.99 22.463 130.126 24.7576 127.684 28.3398L127.686 28.3396Z" fill="#B49CFF"/>
<path d="M141.24 52.5189C139.216 51.5616 137.126 50.638 135.357 49.2529C134.36 48.4703 133.442 47.6261 132.515 46.7189C125.722 53.9225 120.228 51.4751 120.378 60.7413C120.46 65.7126 122.205 65.7259 125.904 69.0467C128.496 68.0782 131.112 66.943 133.523 65.6728C138.315 63.1507 140.551 58.2639 141.238 52.5191L141.24 52.5189Z" fill="#B49CFF"/>
<path d="M138.087 45.5795C138.304 45.6832 138.48 45.8593 138.679 46.0027C139.284 46.4414 139.787 47.1005 140.526 47.2152C140.877 47.27 141.107 47.4382 141.388 47.5931C141.355 44.6952 141.071 41.7444 140.595 38.7812C138.886 40.2948 137.172 41.854 135.519 43.512C136.271 44.3239 137.104 45.1079 138.087 45.5795Z" fill="#B49CFF"/>
<path d="M131.928 39.4865C131.76 37.9877 131.096 36.6311 130.126 35.6215C130.072 36.5539 130.143 37.4742 130.388 38.2639C130.517 38.6769 130.752 39.0385 130.867 39.4624C130.915 39.6415 130.771 39.8836 130.775 40.1035C130.613 40.1047 130.496 40.1311 130.353 40.1302C129.259 38.2569 127.456 37.3708 126.705 35.1032C126.551 34.6403 126.391 34.1838 126.308 33.6979C125.81 33.6275 125.274 33.601 124.753 33.6501C124.731 34.2814 124.848 34.9066 124.933 35.5223C125.104 36.7967 125.575 37.6947 126.008 38.6987C126.64 40.1663 127.496 41.3581 128.485 42.411C129.126 43.096 129.812 43.7534 130.445 44.4431C131.551 43.112 132.138 41.3403 131.93 39.4844L131.928 39.4865Z" fill="#1E1E1E"/>
<path d="M198.307 13.9941C196.911 12.375 195.381 11.0328 193.451 9.69021C192.444 9.27405 191.256 8.59191 189.888 8.26705C188.326 7.89816 186.818 7.40069 185.3 6.94207C184.678 6.75385 184.027 6.6198 183.375 6.49897C181.988 6.24025 180.592 6.05221 179.197 5.81891C177.806 5.5852 176.448 5.19895 175.003 5.10313C172.787 4.95438 170.582 4.6839 168.225 4.92936C166.596 5.09699 165.024 5.07569 163.37 5.35535C161.754 5.62691 160.078 6.27255 158.427 6.68177C157.524 6.90547 156.552 7.5041 155.698 7.68084C153.184 8.1982 150.612 9.40933 148.048 10.6948C144.802 12.3243 141.488 13.9067 138.25 16.2772C137.211 17.0377 136.19 17.8847 135.162 18.7231C135.473 19.2493 135.737 19.7902 135.951 20.3913C136.452 20.0377 136.973 19.7513 137.475 19.4032C137.814 19.1694 138.147 18.8702 138.486 18.6477C138.775 18.4571 139.039 18.2864 139.334 18.1309C139.118 18.4243 138.89 18.7041 138.674 18.9957C137.94 19.9781 137.236 20.9721 136.495 21.9516C136.597 22.2678 136.623 22.536 136.726 22.869C138.021 21.0819 139.535 19.577 141.087 18.0679C143.19 16.0168 145.239 14.5707 147.402 13.5315C149.286 12.6292 151.239 11.7285 153.054 11.2424C155.102 10.6964 157.212 9.85335 159.155 9.86518C159.843 9.86901 160.667 9.52802 161.411 9.37681C163.084 9.03844 164.575 9.15364 166.137 9.15925C167.793 9.16373 169.467 9.13781 171.086 9.24626C172.573 9.34866 174.019 9.53107 175.445 9.78727C177.526 10.1602 179.613 10.5023 181.645 10.9899C182.626 11.2263 183.467 11.8061 184.392 12.1655C184.881 12.3555 185.651 12.2371 185.881 12.6934C186.195 13.3134 186.795 13.0917 187.242 13.3164C187.737 13.566 188.14 14.0179 188.571 14.3857C188.632 14.4373 188.635 14.565 188.698 14.6124C189.737 15.3923 190.773 16.1723 191.851 16.8855C193.181 17.7663 194.264 19.0232 194.711 20.9408C195.406 23.9377 194.821 27.3475 192.561 31.0525C191.723 32.425 190.698 33.7149 189.68 34.9005C187.5 37.4385 185.445 40.179 183.026 42.2711C182.892 42.386 182.773 42.4351 182.639 42.5499C182.702 42.3678 182.749 42.2363 182.829 42.0597C183.074 41.4937 182.855 41.5334 182.515 41.5885C181.499 41.7495 180.475 42.497 179.448 43.0886C179.175 43.2453 178.878 43.3634 178.605 43.5183C179.38 44.081 180.142 44.7092 180.902 45.2773C181.329 44.9338 181.781 44.5329 182.205 44.169C184.04 42.5999 185.826 40.9234 187.513 38.9755C188.281 38.0871 189.002 37.1495 189.708 36.1835C191.049 34.344 192.622 32.6217 193.749 30.6518C195.994 26.7263 196.682 23.017 195.902 19.7603C195.456 17.901 194.524 16.6083 193.478 15.4245C191.727 13.448 189.673 11.9178 187.598 10.4295C187.48 10.3449 187.355 10.2026 187.274 10.0572C187.234 9.98454 187.276 9.83488 187.252 9.7415C187.332 9.71745 187.466 9.60262 187.525 9.62426C188.295 9.88817 189.028 10.2484 189.791 10.5225C190.747 10.8672 191.72 11.1703 192.205 11.3457C195.575 13.5041 198.132 15.9683 199.639 19.7177C200.595 22.0979 201.016 24.9994 200.377 28.4793C200.072 30.146 199.143 31.7641 198.506 33.4247C197.63 34.2611 197.263 35.5375 196.542 36.494C194.203 39.5996 191.657 42.3971 188.964 44.9135C187.655 46.1336 186.384 47.3306 185.026 48.3661C185.501 48.7383 185.974 49.1617 186.433 49.5301C188.223 48.0771 189.897 46.3377 191.552 44.5384C192.428 43.5853 193.264 42.5897 194.088 41.5595C195.284 40.0659 196.5 38.5737 197.585 36.9682C198.578 35.4973 199.695 33.9391 200.316 32.3555C201.595 29.1014 202.164 25.9326 201.873 23.1013C201.484 19.298 200.288 16.2932 198.304 13.9964L198.307 13.9941Z" fill="#1E1E1E"/>
<path d="M165.412 52.2709C167.449 51.5567 169.537 51.2038 171.592 50.4216C170.714 49.5768 169.598 48.879 168.432 48.4845C168.06 48.6655 167.685 48.8657 167.316 49.0314C166.002 49.6232 164.642 50.303 163.389 50.581C162.347 50.8109 161.427 50.5299 160.465 50.4175C160.163 50.3798 159.977 50.4835 159.98 50.8937C159.983 51.4299 159.942 51.3951 159.555 51.4045C159.414 51.409 159.294 51.43 159.153 51.4327C158.597 52.1805 158.142 53.0073 157.863 53.9086C160.344 53.5567 162.781 53.2006 165.415 52.2744L165.412 52.2709Z" fill="#1E1E1E"/>
<path d="M164.551 55.6348C162.288 55.7624 160.076 55.779 158.035 55.2773C157.886 55.2413 157.67 55.2147 157.518 55.1847C157.422 55.8601 157.437 56.5796 157.517 57.2881C157.562 57.6879 157.665 58.0717 157.762 58.4506C158.024 58.4871 158.284 58.4711 158.552 58.4919C161.163 58.6868 163.883 58.5606 166.63 58.2957C167.897 58.1725 169.28 57.5955 170.567 57.421C171.715 57.264 172.93 56.979 174.116 56.5221C174.119 56.1828 174.02 55.7872 173.982 55.4432C173.921 54.9058 173.852 54.4372 173.696 53.9406C172.465 54.331 171.255 54.704 170.045 54.9923C168.181 55.4348 166.328 55.5371 164.551 55.6367L164.551 55.6348Z" fill="#1E1E1E"/>
<path d="M185.022 48.3176C184.941 48.3794 184.877 48.5202 184.798 48.58C182.658 50.172 180.515 51.463 178.367 52.284C177.884 52.468 177.343 52.6454 176.867 52.7949C175.806 53.1285 174.722 53.5043 173.662 53.8397C173.818 54.3363 173.899 54.9072 173.959 55.4446C173.998 55.7905 174.081 56.0919 174.075 56.4296C175.057 56.0502 176.028 55.5948 177.018 55.1486C178.324 54.5559 179.691 53.7491 181.006 53.0687C182.718 52.1819 184.379 51.0598 186.059 49.7359C186.173 49.6459 186.299 49.5451 186.413 49.4533C185.954 49.0849 185.494 48.6921 185.02 48.3178L185.022 48.3176Z" fill="#39E241"/>
<path d="M157.587 55.193C156.689 55.0131 155.747 54.9079 154.859 54.7081C154.414 54.6074 154.029 54.3813 153.636 54.1655C153.584 54.1375 153.609 53.9746 153.59 53.8883C153.683 53.859 153.787 53.7494 153.868 53.7516C154.468 53.7785 155.065 53.8489 155.658 53.8917C156.125 53.9259 156.563 54.1253 157.058 54.051C157.326 54.0096 157.655 53.9727 157.924 53.935C158.205 53.0335 158.565 52.1779 159.121 51.4319C157.109 51.4712 155.146 51.4071 153.267 51.0812C151.345 50.7488 149.385 50.5093 147.506 50.0798C146.459 49.8414 145.551 49.2654 144.569 48.8859C143.89 48.625 143.215 48.3373 142.524 48.1022C142.14 47.9701 141.76 47.785 141.411 47.5907C141.431 49.2812 141.385 50.9433 141.196 52.5293C142.391 53.0938 143.607 53.624 144.77 54.243C144.806 54.2615 144.844 54.2423 144.884 54.249C146.785 54.6986 148.418 55.7036 150.161 56.4571C151.089 56.8577 151.952 57.467 152.99 57.6066C154.615 57.8217 156.135 58.2311 157.762 58.4534C157.663 58.0748 157.599 57.6828 157.554 57.283C157.474 56.5745 157.493 55.8682 157.587 55.193Z" fill="#1E1E1E"/>
<path d="M170.998 47.2625C170.144 47.6671 169.242 48.1035 168.386 48.5195C169.555 48.9138 170.695 49.4976 171.573 50.3425C171.64 50.3162 171.689 50.386 171.756 50.3597C173.45 49.6971 175.147 49.1677 176.881 48.1391C178.262 47.3215 179.53 46.2716 180.865 45.1973C180.105 44.6292 179.376 44.0444 178.601 43.4817C176.89 44.4569 175.197 45.4603 173.49 46.1638C172.664 46.505 171.827 46.8663 170.997 47.2645L170.998 47.2625Z" fill="#39E241"/>
<path d="M129.905 23.6265C129.223 24.4148 128.436 25.1169 127.798 25.9605C127.18 26.7811 126.738 27.7081 126.231 28.682C125.28 30.521 124.771 32.1353 124.715 33.6818C125.237 33.6327 125.792 33.6288 126.289 33.6992C126.113 32.6627 126.17 31.5265 126.751 30.0604C127.011 29.4023 127.355 28.9494 127.743 28.3768C130.184 24.7928 133.044 22.5231 135.974 20.4452C135.76 19.844 135.469 19.2817 135.158 18.7555C134.523 19.2729 133.888 19.7528 133.25 20.2461C132.039 21.1822 130.98 22.3856 129.903 23.6268L129.905 23.6265Z" fill="#1E1E1E"/>
<path d="M140.515 47.294C139.775 47.1793 139.238 46.5033 138.633 46.0646C138.436 45.9209 138.287 45.7174 138.071 45.6136C137.087 45.1421 136.307 44.2806 135.553 43.4688C134.506 44.5184 133.452 45.6346 132.459 46.6874C133.386 47.5946 134.407 48.4102 135.404 49.1909C137.173 50.5761 139.184 51.5934 141.208 52.5507C141.397 50.9647 141.524 49.2765 141.504 47.586C141.223 47.4292 140.863 47.3453 140.513 47.2923L140.515 47.294Z" fill="#1E1E1E"/>
<path d="M131.87 39.4933C132.079 41.3492 131.53 43.0922 130.424 44.4233C130.63 44.6487 130.845 44.89 131.04 45.13C131.496 45.6926 131.99 46.2021 132.494 46.6936C133.488 45.6386 134.452 44.5476 135.5 43.4961C135.185 43.1549 134.88 42.8934 134.569 42.5499C133.447 41.3105 132.479 39.8958 131.823 38.077C131.785 37.9965 131.624 38.071 131.621 38.158C131.761 38.5848 131.818 39.0284 131.87 39.4933Z" fill="#1E1E1E"/>
<path d="M134.945 25.6381C135.497 24.6572 136.089 23.7492 136.716 22.8842C136.611 22.5514 136.52 22.2095 136.419 21.8932C135.504 23.103 134.603 24.3527 133.869 25.7136C132.777 27.7359 131.724 29.8576 130.96 31.9335C130.819 32.3184 130.709 32.6433 130.602 33.0224C131.028 33.2251 131.169 33.407 131.546 33.1256C131.775 32.2318 132.07 31.2177 132.656 30.1767C133.488 28.6994 134.19 27.1556 134.947 25.6379L134.945 25.6381Z" fill="#B49CFF"/>
<path d="M130.081 35.6732C130.752 36.3699 131.331 37.1957 131.646 38.1451C131.675 38.2341 131.713 38.2223 131.74 38.3134C131.74 38.3097 131.791 38.0798 131.791 38.0761C131.251 36.5719 130.999 34.9808 131.481 33.0984C131.371 32.64 130.989 32.8392 130.608 33.1173C130.359 34.0057 130.128 34.847 130.079 35.6734L130.081 35.6732Z" fill="#B49CFF"/>
</g>
<defs>
<clipPath id="clip0_201_16755">
<rect width="200.63" height="159.025" fill="white" transform="translate(0 23.1875) rotate(-6.3998)"/>
</clipPath>
</defs>
</svg>
