<svg width="41" height="44" viewBox="0 0 41 44" fill="none" xmlns="http://www.w3.org/2000/svg">
<g clip-path="url(#clip0_201_10463)">
<path d="M10.2504 4.73367C12.6829 4.73367 14.46 6.02474 14.8699 8.20518H19.9813C19.4075 3.12726 15.7445 0 10.2232 0C3.90893 0 0 4.53281 0 10.5001C0 16.4674 3.90893 21.0287 10.2232 21.0287C15.7449 21.0287 19.4075 17.9015 19.9813 12.795H14.8699C14.46 14.9755 12.6833 16.2951 10.2504 16.2951C7.27081 16.2951 5.1386 14.5163 5.1386 10.5001C5.1386 6.48389 7.27081 4.73326 10.2504 4.73326V4.73367Z" fill="white"/>
<path d="M40.9996 10.5008C40.9996 1.8079 35.5327 0.402344 30.2573 0.402344H22.877V20.6277H30.2573C35.5327 20.6277 40.9996 19.2221 40.9996 10.5008ZM27.8516 4.96368H30.2569C33.5368 4.96368 36.0246 5.07857 36.0246 10.5008C36.0246 15.9229 33.5644 16.0374 30.2569 16.0374H27.8516V4.96368Z" fill="white"/>
<path d="M13.6947 31.9234L7.43516 30.2881C6.23229 29.9438 5.93158 29.4561 5.93158 28.8825C5.93158 27.7348 6.88812 27.2472 8.71961 27.2472C11.3437 27.2472 12.519 28.1651 12.519 30.3455H17.6308C17.6308 25.9561 14.6512 22.9727 8.63764 22.9727C3.58102 22.9727 0.792585 25.0667 0.792585 28.997C0.792585 31.5502 1.8315 33.5872 5.16619 34.5341L11.6172 36.3128C12.7105 36.5996 13.2572 37.1447 13.2572 37.8618C13.2572 39.1243 12.2183 39.6405 9.78572 39.6405C6.2047 39.6405 5.13899 38.5792 5.13899 35.7102H0C0 40.9605 2.87002 44.0014 9.67655 44.0014C15.8541 44.0014 18.369 41.4767 18.369 37.6324C18.369 34.6775 16.893 32.7553 13.6947 31.9234Z" fill="white"/>
<path d="M38.4037 32.1641H31.324V36.1518H35.9707C35.7796 38.1314 33.9753 39.4224 31.1325 39.4224C27.4151 39.4224 25.7747 37.156 25.7747 33.57C25.7747 29.7547 27.661 27.4883 30.8589 27.4883C33.0731 27.4883 34.877 28.7219 35.205 30.6155H40.3164C39.6605 26.0538 35.6968 22.9844 30.5854 22.9844C24.5719 22.9844 20.6357 27.0584 20.6357 33.6564C20.6357 39.882 24.162 43.9846 29.8476 43.9846C33.565 43.9846 35.2873 42.091 36.0527 40.542V43.6118H41.0002V34.8904C41.0002 33.1402 40.016 32.1649 38.4033 32.1649L38.4037 32.1641Z" fill="white"/>
</g>
<defs>
<clipPath id="clip0_201_10463">
<rect width="41" height="44" fill="white"/>
</clipPath>
</defs>
</svg>
