<svg width="192" height="121" viewBox="0 0 192 121" fill="none" xmlns="http://www.w3.org/2000/svg">
<g clip-path="url(#clip0_201_10498)">
<path d="M16.7916 33.666C25.8607 33.666 31.8764 28.6591 32.8193 20.4837H24.4241C23.7502 23.9748 20.8325 26.0867 16.8372 26.0867C11.9435 26.0867 8.44196 23.2387 8.44196 16.8089C8.44196 10.3791 11.9435 7.57706 16.8372 7.57706C20.8325 7.57706 23.7513 9.64415 24.4241 13.1341H32.8193C31.8764 5.00581 25.8596 0 16.7916 0C6.42042 0 0 7.25664 0 16.81C0 26.3634 6.42042 33.666 16.7916 33.666Z" fill="#1E1E1E"/>
<path d="M78.2868 3.30877L87.1769 33.0244H102.576V0.644531H94.4046V30.3612L85.5157 0.644531H70.1162V33.0244H78.2868V3.30877Z" fill="#1E1E1E"/>
<path d="M122.373 26.685C116.492 26.685 114.741 24.9854 114.741 20.393H106.3C106.3 28.798 111.014 33.6671 122.193 33.6671C132.34 33.6671 136.469 29.6248 136.469 23.4706C136.469 18.7404 134.045 15.6628 128.792 14.3307L118.511 11.7124C116.536 11.1611 116.042 10.3802 116.042 9.46265C116.042 7.62524 117.613 6.84434 120.621 6.84434C124.931 6.84434 126.861 8.31427 126.861 11.8042H135.256C135.256 4.77726 130.362 0 120.485 0C112.18 0 107.6 3.35327 107.6 9.64527C107.6 13.7335 109.305 16.9938 114.783 18.5096L125.379 21.3576C127.175 21.817 128.073 22.6897 128.073 23.8381C128.073 25.8593 126.367 26.6861 122.371 26.6861L122.373 26.685Z" fill="#1E1E1E"/>
<path d="M165.381 25.7218H148.411V20.2566H165.381V13.3663H148.411V7.94711H165.381V0.644531H140.194V33.0244H165.381V25.7218Z" fill="#1E1E1E"/>
<path d="M191.687 25.6758H184.458V7.94711H191.687V0.644531H169.104V7.94711H176.333V25.6758H169.104V33.0244H191.687V25.6758Z" fill="#1E1E1E"/>
<path d="M12.312 44.2969H0.189453V76.6767H12.312C20.9774 76.6767 29.9565 74.4259 29.9565 60.4638C29.9565 46.5018 20.9774 44.2969 12.312 44.2969ZM12.312 69.3282H8.36121V51.5994H12.312C17.6994 51.5994 21.7847 51.7832 21.7847 60.4638C21.7847 69.1444 17.7439 69.3282 12.312 69.3282Z" fill="#1E1E1E"/>
<path d="M85.5959 69.3741H41.8949V63.909H85.5959V57.0187H41.8949V51.5994H85.5959V44.2969H33.6787V76.6767H85.5959V69.3741Z" fill="#1E1E1E"/>
<path d="M109.048 62.1023L119.644 64.9503C121.439 65.4096 122.338 66.2824 122.338 67.4307C122.338 69.4519 120.632 70.2787 116.636 70.2787C110.755 70.2787 109.003 68.5791 109.003 63.9867H100.562C100.562 72.3917 105.277 77.2609 116.456 77.2609C126.602 77.2609 130.732 73.2186 130.732 67.0644C130.732 62.3342 128.308 59.2565 123.055 57.9244L112.774 55.3061C110.799 54.7549 110.304 53.974 110.304 53.0564C110.304 51.219 111.876 50.4381 114.883 50.4381C119.193 50.4381 121.124 51.908 121.124 55.398H129.519C129.519 48.371 124.625 43.5938 114.748 43.5938C106.443 43.5938 101.862 46.947 101.862 53.239C101.862 57.3273 103.568 60.5875 109.046 62.1034L109.048 62.1023Z" fill="#1E1E1E"/>
<path d="M159.643 51.5369V44.2344H134.457V76.6153H159.643V69.3116H142.672V63.8465H159.643V56.9573H142.672V51.5369H159.643Z" fill="#1E1E1E"/>
<path d="M185.995 60.9985H184.873C188.15 60.2635 191.517 58.0127 191.517 52.8231C191.517 45.7043 184.513 44.2344 177.33 44.2344H163.367V76.6142H171.583V65.6368H183.75V76.6142H191.877V66.7852C191.877 63.7994 190.35 60.9985 185.995 60.9985ZM177.331 58.3802H171.585V51.537H177.331C180.788 51.537 183.392 51.6288 183.392 54.9821C183.392 58.3354 180.968 58.3813 177.331 58.3813V58.3802Z" fill="#1E1E1E"/>
<path d="M29.3707 102.034H17.743V108.418H25.3755C25.0608 111.587 22.0986 113.655 17.4283 113.655C11.3226 113.655 8.62834 110.026 8.62834 104.285C8.62834 98.1766 11.7262 94.5478 16.9791 94.5478C20.6152 94.5478 23.5786 96.523 24.1179 99.5536H32.5131C31.4356 92.251 24.9263 87.3359 16.5299 87.3359C6.6524 87.3359 0.1875 93.8576 0.1875 104.422C0.1875 114.388 5.97856 120.956 15.3179 120.956C21.4236 120.956 24.2524 117.924 25.5089 115.445V120.359H33.6351V106.397C33.6351 103.595 32.0183 102.033 29.3696 102.033L29.3707 102.034Z" fill="#1E1E1E"/>
<path d="M67.3613 95.2791H77.5524V120.356H85.6786V95.2791H95.8707V87.9766H67.3613V95.2791Z" fill="#1E1E1E"/>
<path d="M175.265 87.3359H114.018C103.719 87.3572 97.4062 94.606 97.4062 104.145C97.4062 113.684 103.719 120.978 114.018 121H175.265C185.564 120.978 191.877 113.73 191.877 104.145C191.877 94.5601 185.564 87.3572 175.265 87.3359ZM175.265 113.422H114.018C108.571 113.402 105.847 110.008 105.847 104.146C105.847 98.2842 108.571 94.9343 114.018 94.9152H175.265C180.712 94.9343 183.436 98.329 183.436 104.146C183.436 109.963 180.712 113.402 175.265 113.422Z" fill="#1E1E1E"/>
<path d="M43.449 27.474H57.772L59.5901 33.0244H68.2556L58.1534 0.644531H43.2032L33.0566 33.0244H41.632L43.4501 27.474H43.449ZM50.61 3.58438L55.527 20.1715H45.6929L50.61 3.58438Z" fill="#1E1E1E"/>
<path d="M46.4073 87.9766L36.2607 120.356H44.8361L46.6542 114.806H60.9773L62.7953 120.356H71.4608L61.3587 87.9766H46.4084H46.4073ZM48.8981 107.503L53.8152 90.9164L58.7322 107.503H48.8981Z" fill="#1E1E1E"/>
<path d="M186.883 88.731C186.368 88.4285 185.965 88.0117 185.67 87.4784C185.375 86.9463 185.228 86.3491 185.228 85.6881C185.228 85.0271 185.375 84.4299 185.67 83.8977C185.965 83.3656 186.37 82.9477 186.883 82.6452C187.398 82.3427 187.974 82.1914 188.615 82.1914C189.255 82.1914 189.831 82.3427 190.345 82.6452C190.86 82.9477 191.263 83.3656 191.558 83.8977C191.853 84.4299 192 85.0271 192 85.6881C192 86.3491 191.853 86.9463 191.558 87.4784C191.263 88.0106 190.858 88.4285 190.345 88.731C189.83 89.0335 189.253 89.1848 188.615 89.1848C187.976 89.1848 187.398 89.0335 186.883 88.731ZM186.341 87.1042C186.555 87.5221 186.86 87.8493 187.254 88.0879C187.648 88.3254 188.102 88.4453 188.613 88.4453C189.125 88.4453 189.577 88.3266 189.973 88.0879C190.368 87.8493 190.673 87.5221 190.886 87.1042C191.1 86.6863 191.208 86.2147 191.208 85.6881C191.208 85.1615 191.101 84.6876 190.886 84.2675C190.672 83.8473 190.367 83.5179 189.973 83.2804C189.579 83.0429 189.125 82.923 188.613 82.923C188.102 82.923 187.648 83.0418 187.254 83.2804C186.859 83.5179 186.554 83.8473 186.341 84.2675C186.127 84.6876 186.019 85.1615 186.019 85.6881C186.019 86.2147 186.126 86.6875 186.341 87.1042ZM187.421 83.8563H188.672C189.067 83.8563 189.395 83.9638 189.656 84.1801C189.918 84.3963 190.049 84.6775 190.049 85.0248C190.049 85.2433 189.993 85.4326 189.882 85.5917C189.771 85.7508 189.615 85.8763 189.415 85.9659C189.582 86.0444 189.711 86.143 189.803 86.2595C189.894 86.3771 189.941 86.5093 189.941 86.655V87.344H189.166V86.5452C189.166 86.4275 189.117 86.3312 189.02 86.255C188.924 86.1788 188.808 86.1418 188.675 86.1418H188.199V87.344H187.424V83.8563H187.421ZM188.756 85.5122C188.884 85.5122 188.999 85.4618 189.102 85.3609C189.205 85.2601 189.256 85.1481 189.256 85.0248C189.256 84.9016 189.199 84.7884 189.085 84.701C188.97 84.6136 188.834 84.5711 188.672 84.5711H188.196V85.5122H188.756Z" fill="#1E1E1E"/>
</g>
<defs>
<clipPath id="clip0_201_10498">
<rect width="192" height="121" fill="white"/>
</clipPath>
</defs>
</svg>
