<svg width="249" height="194" viewBox="0 0 249 194" fill="none" xmlns="http://www.w3.org/2000/svg">
<g clip-path="url(#clip0_201_13267)">
<path d="M0.63208 80.7666L89.9795 33.0469L240.032 63.7017L155.595 118.35L30.75 98.0177L0.63208 80.7666Z" fill="#1E1E1E"/>
<path d="M0.63208 80.765C3.19768 79.3942 89.9795 33.043 89.9795 33.043C89.9795 33.043 150.343 35.3797 148.593 33.043C146.843 30.7062 77.751 87.382 77.8765 87.382C78.002 87.382 0.63208 80.765 0.63208 80.765Z" fill="#B49CFF"/>
<path d="M155.232 193.999L168.646 183.879L181.885 174.618L195.576 165.997L208.078 155.682L221.313 146.414L235.066 137.882L248.496 128.488L248.498 109.927L247.894 91.5562L248.765 73.2066L249 55.0664L235.64 62.9425L222.512 71.6681L208.847 79.5372L196.087 88.8493L182.536 96.9023L168.881 104.79L155.702 113.488L152.962 129.617L149.176 145.516L146.836 161.559L151.284 177.318L155.232 193.999Z" fill="#1E1E1E"/>
<path d="M155.497 193.277L124.636 185.715L93.1818 180.262L62.0089 173.51L31.0846 165.631L0 159.089L1.31766 132.665L2.7213 106.081L0.632104 80.7656L30.5083 88.4881L61.8276 94.5604L93.0354 101.149L125.029 104.152L155.755 113.524L154.861 140.26L153.111 166.839L155.497 193.277Z" fill="#39E241"/>
<path d="M156.099 113.093L143.662 102.021L128.868 93.9033L116.683 82.5128L104.278 71.3969L91.1251 61.2189L77.3792 51.1155L93.2143 44.2518L106.767 34.2391L121.313 25.9511L136.692 19.127L149.871 8.44865L165.028 0L178.365 11.3277L192.108 20.9866L206.34 29.9264L221.252 37.8769L234.376 48.4412L248.4 57.6882" fill="#39E241"/>
<path d="M153.857 184.233C144.236 182.029 139.374 180.774 134.673 179.559C129.981 178.347 125.129 177.094 115.522 174.893C105.861 172.679 101.104 170.878 96.5028 169.134C91.9479 167.408 87.2373 165.625 77.6721 163.432C68.0837 161.235 63.1314 160.46 58.3418 159.713C53.529 158.959 48.5489 158.182 38.9116 155.973C29.2651 153.764 24.4708 152.149 19.837 150.587C15.2356 149.037 10.4786 147.433 0.899414 145.241L1.22244 143.828C10.8713 146.037 15.6632 147.652 20.2971 149.214C24.8984 150.764 29.6555 152.368 39.2346 154.56C48.8231 156.757 53.7753 157.532 58.5649 158.279C63.3777 159.033 68.3579 159.811 77.9951 162.019C87.658 164.233 92.415 166.034 97.014 167.778C101.569 169.505 106.277 171.287 115.842 173.48C125.468 175.684 130.33 176.941 135.031 178.156C139.723 179.368 144.573 180.62 154.175 182.82L153.852 184.233H153.857Z" fill="black"/>
<path d="M154.315 169.419C144.722 167.222 139.783 166.368 135.008 165.542C130.213 164.713 125.257 163.854 115.622 161.648C105.989 159.442 101.148 158.073 96.468 156.751C91.8039 155.434 86.9818 154.07 77.3863 151.873C67.7398 149.664 62.9432 148.067 58.3047 146.524C53.6987 144.993 48.9347 143.408 39.3555 141.215C29.7903 139.025 24.7777 138.567 19.93 138.122C15.0358 137.675 9.97202 137.212 0.311523 134.999L0.634547 133.586C10.1998 135.776 15.2124 136.235 20.0601 136.679C24.9543 137.126 30.0181 137.589 39.6786 139.803C49.3251 142.011 54.1217 143.608 58.7602 145.151C63.3662 146.683 68.1302 148.267 77.7094 150.46C87.3396 152.666 92.1803 154.035 96.8607 155.357C101.525 156.677 106.347 158.038 115.942 160.238C125.538 162.435 130.476 163.289 135.252 164.115C140.046 164.944 145.003 165.802 154.635 168.007L154.312 169.419H154.315Z" fill="black"/>
<path d="M154.431 155.223C144.859 153.03 139.86 152.488 135.028 151.964C130.155 151.436 125.115 150.892 115.459 148.68C105.801 146.469 101.034 144.717 96.4236 143.022C91.8571 141.344 87.1326 139.608 77.5628 137.416C67.9789 135.221 63.0127 134.513 58.2116 133.831C53.3801 133.145 48.3837 132.432 38.7418 130.224C29.1394 128.024 24.2244 127.049 19.472 126.104C14.7103 125.157 9.78591 124.179 0.162598 121.975L0.485621 120.562C10.088 122.762 15.0031 123.737 19.7555 124.682C24.5172 125.629 29.4415 126.607 39.0649 128.811C48.6487 131.006 53.6149 131.713 58.4161 132.395C63.2475 133.082 68.2439 133.794 77.8858 136.003C87.5439 138.214 92.3126 139.966 96.9209 141.661C101.487 143.339 106.21 145.075 115.779 147.268C125.352 149.46 130.348 150 135.182 150.526C140.055 151.054 145.096 151.599 154.751 153.812L154.428 155.225L154.431 155.223Z" fill="black"/>
<path d="M154.628 141.561C145.017 139.36 140.139 138.194 135.421 137.069C130.706 135.943 125.828 134.779 116.214 132.577C106.607 130.376 101.704 129.342 96.9604 128.344C92.2127 127.343 87.3023 126.307 77.6836 124.103C68.0812 121.904 63.1661 120.926 58.4137 119.984C53.652 119.036 48.7253 118.059 39.102 115.855C29.5322 113.662 24.5288 113.157 19.6904 112.668C14.8079 112.175 9.75802 111.665 0.0998535 109.452L0.422877 108.039C9.99274 110.232 14.9961 110.737 19.8345 111.225C24.717 111.719 29.7669 112.228 39.4227 114.442C49.0251 116.641 53.9402 117.619 58.6926 118.561C63.4543 119.509 68.381 120.486 78.0043 122.69C87.6113 124.892 92.5148 125.926 97.2579 126.924C102.006 127.925 106.916 128.961 116.535 131.165C126.156 133.369 131.036 134.532 135.753 135.659C140.466 136.785 145.342 137.949 154.949 140.149L154.626 141.561H154.628Z" fill="black"/>
<path d="M135.34 126.234C130.622 125.106 125.744 123.937 116.128 121.733C106.491 119.527 101.518 118.728 96.7094 117.956C91.9222 117.188 86.9746 116.394 77.3838 114.197C67.7814 111.997 62.9314 110.734 58.2441 109.512C53.5451 108.287 48.6858 107.019 39.0625 104.815C29.4485 102.613 24.545 101.552 19.8043 100.525C15.0658 99.5014 10.167 98.44 0.557643 96.2383L0.234619 97.651C9.85328 99.8551 14.7567 100.914 19.4975 101.941C24.2336 102.965 29.1324 104.026 38.7395 106.225C48.3419 108.425 53.1919 109.689 57.8792 110.911C62.5782 112.135 67.4375 113.403 77.0608 115.607C86.698 117.814 91.6712 118.612 96.4794 119.385C101.267 120.153 106.214 120.946 115.805 123.144C125.414 125.345 130.29 126.511 135.005 127.64C139.723 128.769 144.601 129.937 154.217 132.142L154.54 130.729C144.931 128.527 140.055 127.361 135.34 126.232V126.234Z" fill="black"/>
</g>
<defs>
<clipPath id="clip0_201_13267">
<rect width="249" height="194" fill="white"/>
</clipPath>
</defs>
</svg>
