<svg width="35" height="12" viewBox="0 0 35 12" fill="none" xmlns="http://www.w3.org/2000/svg">
<path d="M0 11.0604V9.03019L4.67751 7.2274L0 5.42461V3.3782L7.60095 6.59399V7.86081L0 11.0604Z" fill="#1E1E1E"/>
<path d="M8.85281 2.56613L10.6718 0H12.8319L14.651 2.56613H13.0431L11.7438 1.05569L10.4607 2.56613H8.85281Z" fill="#1E1E1E"/>
<path d="M16.3627 11.5801C16.1136 11.331 15.9891 11.0279 15.9891 10.6706C15.9891 10.3133 16.1136 10.0101 16.3627 9.76105C16.6225 9.50119 16.9257 9.37126 17.2722 9.37126C17.6295 9.37126 17.9327 9.50119 18.1817 9.76105C18.4416 10.0101 18.5715 10.3133 18.5715 10.6706C18.5715 11.0279 18.4416 11.331 18.1817 11.5801C17.9327 11.8291 17.6295 11.9536 17.2722 11.9536C16.9149 11.9536 16.6117 11.8291 16.3627 11.5801Z" fill="#1E1E1E"/>
<path d="M19.9077 2.56613L21.7267 0H23.8868L25.7059 2.56613H24.098L22.7987 1.05569L21.5156 2.56613H19.9077Z" fill="#1E1E1E"/>
<path d="M26.979 7.86081V6.59399L34.58 3.3782V5.42461L29.9025 7.2274L34.58 9.03019V11.0604L26.979 7.86081Z" fill="#1E1E1E"/>
</svg>
