<svg width="15" height="20" viewBox="0 0 15 20" fill="none" xmlns="http://www.w3.org/2000/svg">
<path d="M7.49998 0C3.28216 0 -0.0908165 3.54326 0.00186525 7.45429C0.0859913 11.0183 2.40243 15.3694 6.08136 19.3941C6.81986 20.202 8.18014 20.202 8.91865 19.3941C12.5981 15.3692 14.914 11.0181 14.9981 7.45429C15.0906 3.54311 11.7176 0 7.49998 0ZM7.49998 1.17663C10.9638 1.17663 13.8254 4.17358 13.7482 7.42687C13.6752 10.5179 11.5231 14.739 7.96874 18.627C7.68811 18.9338 7.31161 18.9338 7.03121 18.627C3.47695 14.7388 1.32459 10.5177 1.25173 7.42687C1.17493 4.17353 4.03631 1.17663 7.49998 1.17663Z" fill="#39E241"/>
<path d="M7.5 3C5.57385 3 4 4.79869 4 7C4 9.20131 5.57385 11 7.5 11C9.42615 11 11 9.20131 11 7C11 4.79869 9.42615 3 7.5 3ZM7.5 4.33326C8.7955 4.33326 9.8334 5.5192 9.8334 7C9.8334 8.48057 8.7957 9.66674 7.5 9.66674C6.2045 9.66674 5.1666 8.4808 5.1666 7C5.1666 5.51943 6.2043 4.33326 7.5 4.33326Z" fill="#39E241"/>
</svg>
