<svg width="340" height="168" viewBox="0 0 340 168" fill="none" xmlns="http://www.w3.org/2000/svg">
<g clip-path="url(#clip0_201_15518)">
<path d="M211.668 131.408H201.473C201.473 131.408 198.302 130.338 195.141 131.408C191.982 132.478 186.29 131.408 186.29 131.408C186.29 131.408 181.245 135.688 177.382 136.758C173.52 137.828 174.44 138.898 170.748 136.758C167.057 134.618 166.169 136.878 163.845 130.931C161.52 124.984 141.549 119.77 141.549 119.77L123.207 128.882L100.603 137.995C100.603 137.995 74.7589 133.879 69.2221 137.995C63.6854 142.111 59.0682 145.603 59.0682 145.603C53.5315 148.532 60.9138 146.578 49.8372 150.23C38.7605 153.882 59.0682 148.532 38.7605 153.882L18.4559 159.232H0V165.653H38.7668C38.7668 165.653 16.6134 168.863 52.6119 165.653C88.6103 162.443 93.5255 170.646 105.836 167.08C118.146 163.513 145.731 163.513 158.704 163.513C171.677 163.513 205.805 159.232 205.805 159.232L212.169 156.022L221.125 150.23L211.668 131.408Z" fill="#1E1E1E"/>
<path d="M216.746 154.834L240.789 149.522L264.027 141.018L287.998 135.39L312.13 130.416L332.834 106.297L332.044 86.5714L334.565 67.0009L315.964 42.8976L293.278 32.762L269.916 24.4508L247.084 14.7098L223.64 6.61328" fill="#39E241"/>
<path d="M199.711 156.311L230.024 158.095L237.244 137.218L238.614 114.491L241.643 92.1612L243.225 69.6615L242.242 47.1396L240.209 24.7314L237.517 2.27901L206.104 0L207.449 23.0143L204.461 44.9364L205.387 67.0352L201.959 88.9352L200.482 110.924L199.778 132.953L198.439 154.954L199.711 156.311Z" fill="#39E241"/>
<path d="M206.797 1.32812L212.039 26.4983L212.055 53.0289L210.99 79.5154L209.895 106.011L204.983 132.116L199.501 158.918L193.495 131.854L193.361 105.279L195.851 78.821L196.035 52.2682L201.568 26.2237L206.797 1.32812Z" fill="#1E1E1E"/>
<path d="M244.032 107.025L240.804 106.606C241.543 100.987 241.536 99.011 241.527 96.2775C241.517 94.0237 241.508 91.2175 241.91 85.5516C242.142 82.3256 241.971 78.7208 241.79 74.9078C241.631 71.5618 241.467 68.0991 241.549 64.5259C241.647 60.1952 241.365 55.7602 241.064 51.0665C240.908 48.6265 240.747 46.1044 240.645 43.6108C240.604 42.5691 240.563 41.5243 240.525 40.4795C240.3 34.5578 240.071 28.4342 239.275 22.7745C238.508 17.3169 236.631 12.3075 234.817 7.46218C234.24 5.91863 233.691 4.46032 233.184 2.99884L236.26 1.94141C236.754 3.365 237.293 4.80754 237.864 6.33214C239.653 11.108 241.682 16.5183 242.497 22.3294C243.315 28.1532 243.55 34.359 243.775 40.3627C243.816 41.4043 243.854 42.446 243.896 43.4845C243.994 45.9403 244.156 48.4434 244.311 50.8645C244.603 55.4225 244.904 60.1352 244.803 64.6048C244.723 68.0644 244.885 71.4703 245.04 74.7594C245.227 78.6735 245.402 82.3698 245.158 85.7883C244.761 91.3343 244.771 94.071 244.78 96.2711C244.79 99.0236 244.799 101.198 244.032 107.035V107.025Z" fill="black"/>
<path d="M285.007 108.157L262.115 99.1233L284.674 83.2648L261.978 74.9821L277.447 61.7342L261.721 52.113L280.101 36.1599L278.82 34.6953L258.442 52.3845L274.152 61.9961L258.189 75.6671L280.513 83.8141L258.049 99.6031L280.18 108.34L252.861 121.585L282.245 132.769L282.942 130.954L257.758 121.37L285.007 108.157Z" fill="#B49CFF"/>
<path d="M339.531 14.583C339.845 14.9239 340.121 15.6846 339.946 16.0129C338.925 17.9258 338.516 20.1385 336.636 21.6347C334.714 23.1625 332.52 24.5924 332.003 27.3038C326.127 32.3069 322.296 39.3176 315.786 43.6988C315.326 44.0082 314.879 44.6079 314.428 44.6048C310.864 44.5858 310.388 46.9469 310.401 49.6678C310.414 52.4014 309.513 55.1791 310.74 57.8622C310.293 64.2194 309.89 70.583 309.348 76.9339C309.256 77.9693 308.413 78.9194 308.124 79.9674C307.69 81.5488 306.789 82.2432 305.137 82.1264C303.631 82.0191 302.606 81.6151 302.185 79.9011C300.875 74.5571 299.524 69.2225 299.841 63.6702C299.987 61.1324 299.4 58.7839 298.519 56.4796C298.402 56.1671 297.409 55.8136 297.178 55.9777C293.325 58.7018 288.806 59.996 284.503 61.669C281.211 62.9474 277.653 63.5566 274.193 64.3804C273.772 64.4814 273.22 64.0521 272.728 63.8691C272.941 63.3767 273.125 62.8685 273.378 62.3981C273.505 62.1614 273.784 62.013 273.94 61.7889C274.241 61.3502 274.507 60.8862 274.786 60.4316C274.384 60.3369 273.933 60.0812 273.584 60.1791C270.394 61.0882 267.233 62.215 263.859 61.0598C263.7 61.0029 263.532 60.7062 263.535 60.5263C263.535 60.2801 263.64 59.8887 263.811 59.8161C264.55 59.4941 265.327 59.2542 266.094 59.008C267.918 58.4177 270.109 58.2852 271.492 57.1583C274.108 55.0308 277.793 55.0055 280.073 52.3256C281.325 50.8484 283.291 50.3433 285.004 49.4785C287.674 48.1275 289.849 45.8358 292.326 44.0713C293.616 43.1528 295.754 42.8371 296.356 41.666C297.177 40.0625 297.371 37.8056 297.003 35.9969C295.988 31.0033 296.949 26.0949 297.028 21.1486C297.098 16.7579 296.943 12.364 296.975 7.97324C296.981 6.88108 297.146 5.72263 297.568 4.73148C297.859 4.04335 298.627 3.34261 299.334 3.10902C299.933 2.91016 301.04 3.15321 301.405 3.61091C301.839 4.16015 301.715 5.14183 301.852 5.93096C302.578 10.1639 301.868 14.7977 305.343 18.2572C306.168 22.2471 308.987 25.7161 308.438 30.0816C308.391 30.454 308.841 31.2179 309.082 31.2274C309.564 31.2463 310.131 30.9559 310.537 30.634C311.841 29.5955 313.087 28.4812 314.698 27.105C316.686 24.7249 320.447 23.3045 321.383 19.4188C324.538 16.7042 327.674 13.9675 330.88 11.3097C331.169 11.0698 332.174 11.155 332.345 11.4139C332.726 11.9978 333.021 12.8122 332.948 13.4908C332.745 15.3437 333.144 16.1329 334.416 15.7004C335.7 15.2648 336.867 14.5041 338.145 14.0559C338.516 13.9233 339.226 14.2421 339.537 14.583H339.531ZM326.012 27.2975C325.736 27.3228 325.372 27.2439 325.197 27.3891C320.317 31.4452 315.449 35.5234 310.604 39.6206C310.43 39.769 310.442 40.1383 310.369 40.4034C310.759 40.4855 311.317 40.7664 311.508 40.6118C313.861 38.68 316.163 36.685 318.475 34.7059C318.525 34.7596 318.573 34.8132 318.621 34.87C321.024 32.61 323.434 30.3562 325.822 28.074C325.984 27.9194 325.952 27.5627 326.009 27.2975H326.012Z" fill="black"/>
</g>
<defs>
<clipPath id="clip0_201_15518">
<rect width="340" height="168" fill="white"/>
</clipPath>
</defs>
</svg>
