<svg width="61" height="38" viewBox="0 0 61 38" fill="none" xmlns="http://www.w3.org/2000/svg">
<g clip-path="url(#clip0_201_17261)">
<path d="M0 26.9551C0.15433 25.8643 0.286385 24.7702 0.467762 23.6841C1.31578 18.6039 2.68884 13.6664 4.54238 8.85893C5.24721 7.03234 6.53117 5.74961 8.14606 4.73642C10.9558 2.97326 14.071 2.00605 17.2833 1.32742C24.2743 -0.147165 31.3273 -0.327921 38.4138 0.463283C42.5473 0.924686 46.5996 1.73333 50.4181 3.44417C51.3902 3.88021 52.3225 4.41772 53.2231 4.98694C54.8141 5.99061 55.9135 7.38751 56.5483 9.1808C58.5084 14.7272 60.0167 20.3845 60.825 26.2163C60.887 26.6666 60.8902 27.1248 60.9554 27.5735C61.1798 29.1464 60.5195 30.3356 59.3549 31.3139C57.5331 32.8424 55.3869 33.762 53.1769 34.5453C48.9734 36.0342 44.6204 36.8761 40.2021 37.4057C35.5229 37.9686 30.8293 38.1493 26.1231 37.8687C19.5267 37.4755 13.021 36.5495 6.82073 34.1568C5.26312 33.5559 3.79301 32.7013 2.34677 31.853C1.23623 31.2013 0.404121 30.2373 0 28.9704C0 28.2981 0 27.6258 0 26.952L0 26.9551ZM29.8684 36.0992C35.0853 36.0881 39.6691 35.725 44.2067 34.8957C48.0554 34.1917 51.8452 33.261 55.3948 31.5708C56.3876 31.0983 57.3136 30.4672 58.2205 29.8377C58.8537 29.3985 59.1799 28.7532 59.0637 27.9334C58.9921 27.4261 59.0017 26.906 58.9301 26.3986C58.1091 20.6081 56.6247 14.9856 54.6184 9.49474C54.2159 8.39277 53.511 7.54765 52.5835 6.85793C50.679 5.44042 48.5041 4.59689 46.2559 3.92777C42.1463 2.70212 37.9253 2.17254 33.6518 1.98861C28.018 1.74602 22.4271 2.06313 16.9222 3.35379C14.0185 4.03559 11.1945 4.9473 8.69974 6.65497C7.59397 7.41129 6.70936 8.34837 6.29092 9.65172C5.35699 12.5644 4.34669 15.4565 3.52094 18.3978C2.66497 21.4437 2.12402 24.5578 1.89969 27.7257C1.8265 28.7611 2.20676 29.4794 2.99909 30.0565C3.22342 30.2199 3.44298 30.3911 3.67686 30.5386C5.73565 31.8467 8.00605 32.6696 10.3274 33.3609C16.8983 35.3207 23.6395 36.0516 29.8684 36.0992Z" fill="#1E1E1E"/>
<path d="M30.4001 14.2638C25.9453 14.2083 21.4538 13.9276 17.0896 12.6925C15.769 12.3183 14.4517 11.7966 13.2695 11.1085C10.7875 9.66401 10.8178 7.51555 13.2584 5.98388C15.1708 4.7836 17.3314 4.25085 19.5159 3.83701C25.5061 2.70332 31.5393 2.60819 37.5868 3.244C40.3488 3.53416 43.0981 3.96544 45.6899 5.01351C46.6684 5.4099 47.6405 5.92363 48.4662 6.57213C49.9411 7.73119 49.9045 9.34373 48.479 10.5662C47.0407 11.7998 45.2762 12.3611 43.4879 12.8225C39.216 13.9276 34.8486 14.2194 30.4001 14.2638ZM16.407 10.3601C21.4458 12.9573 41.6201 12.9065 44.6923 10.2871C35.1732 7.95635 25.7877 7.94525 16.407 10.3601ZM31.7923 6.63239C33.2035 6.73862 35.9178 6.87339 38.6146 7.16673C41.3559 7.46323 44.0591 8.0055 46.5936 9.15663C46.9755 9.32946 47.2093 9.28823 47.4544 8.9727C47.7105 8.6429 47.6835 8.32737 47.3891 8.08161C47.0264 7.78035 46.6413 7.4886 46.2229 7.27772C44.4712 6.40248 42.5842 5.93315 40.6702 5.60493C34.1279 4.48393 27.5697 4.46331 21.0147 5.48601C18.8206 5.8285 16.6505 6.30734 14.6553 7.33638C14.2417 7.55044 13.863 7.85487 13.5161 8.1704C13.2329 8.42885 13.3332 8.73645 13.5607 9.01551C13.7787 9.28348 13.9839 9.32312 14.3276 9.18358C15.2233 8.81732 16.1302 8.46056 17.061 8.20211C21.4522 6.98439 25.958 6.70374 31.7923 6.63397V6.63239Z" fill="#1E1E1E"/>
</g>
<defs>
<clipPath id="clip0_201_17261">
<rect width="61" height="38" fill="white"/>
</clipPath>
</defs>
</svg>
