<svg width="39" height="19" viewBox="0 0 39 19" fill="none" xmlns="http://www.w3.org/2000/svg">
<path d="M38.4344 9.48805C38.4344 9.41463 38.52 9.41463 38.52 9.34075V9.26733V9.19391V9.1205V9.04708V8.97366V8.90025V8.82683V8.75341V8.67999C38.52 8.67999 38.52 8.60657 38.4344 8.60657C32.686 3.01571 26.08 0 19.2166 0C12.3531 0 5.74729 3.01571 0.0856368 8.75244C0.0856368 8.75244 0.0856363 8.82586 0 8.82586V8.89928V8.9727V9.04611V9.11953V9.19295V9.26637V9.33978V9.4132V9.48662V9.56004V9.63346V9.70687C0 9.70687 5.17754e-07 9.78029 0.0856368 9.78029C5.74784 15.3721 12.3538 18.3877 19.2166 18.3877C26.0793 18.3877 32.6858 15.372 38.3475 9.63525C38.3475 9.63525 38.3475 9.56137 38.4337 9.48795L38.4344 9.48805ZM19.2166 16.9906C12.9538 16.9906 6.94837 14.2691 1.80087 9.19395C7.0344 4.04542 13.0398 1.39733 19.2166 1.39733C25.4794 1.39733 31.4848 4.11883 36.6323 9.19395C31.4844 14.3425 25.479 16.9906 19.2166 16.9906Z" fill="white"/>
<path d="M20.7015 4.057C20.5411 3.76364 20.3013 3.47028 20.0609 3.17694C19.8206 2.88358 19.5802 2.59022 19.26 2.29688C18.9397 2.59023 18.6993 2.88359 18.459 3.17694C18.2186 3.47029 17.9783 3.76365 17.8184 4.057C17.4181 4.64371 17.1778 5.23088 16.9375 5.74431C16.4568 6.91819 16.2969 8.01838 16.2969 9.19226C16.2969 10.3661 16.4573 11.4663 16.9375 12.6402C17.1778 13.2269 17.4181 13.8141 17.8184 14.3275C17.9788 14.6209 18.2186 14.9142 18.459 15.2076C18.6993 15.5009 18.9397 15.7943 19.26 16.0876C19.5802 15.7943 19.8206 15.5009 20.0609 15.2076C20.3013 14.9142 20.5416 14.6209 20.7015 14.3275C21.1018 13.7408 21.3421 13.1536 21.5824 12.6402C22.0631 11.4663 22.223 10.3661 22.223 9.19226C22.223 8.01838 22.0626 6.91819 21.5824 5.74431C21.4226 5.15713 21.1023 4.57043 20.7015 4.057Z" fill="#39E241"/>
</svg>
