<svg width="47" height="43" viewBox="0 0 47 43" fill="none" xmlns="http://www.w3.org/2000/svg">
<g clip-path="url(#clip0_201_10092)">
<path d="M27.1485 26.0837C26.8004 23.9711 26.0463 22.0009 24.7274 20.277C22.0589 16.7965 18.3829 15.1675 13.9986 14.9776C12.6827 14.9213 11.3546 15.0637 10.0051 15.1171C10.0173 15.0489 10.0265 14.9183 10.057 14.7966C10.4753 13.0935 11.2691 11.5476 12.3683 10.1827C13.8246 8.36978 15.3817 6.63103 16.893 4.85667C17.351 4.31962 17.8303 3.79443 18.2364 3.22177C18.618 2.68175 18.5753 2.04084 18.1631 1.71149C17.0243 0.797605 15.7481 0.213076 14.2215 0.296156C14.0994 0.302091 13.9162 0.296156 13.8551 0.221977C13.6109 -0.071771 13.3392 -0.0242965 13.0308 0.0825211C11.2905 0.678919 9.8311 1.68775 8.56405 2.9666C6.39632 5.15636 4.86365 7.75558 3.53553 10.4794C1.7983 14.037 0.690009 17.7727 0.25341 21.6893C0.161816 22.5142 0.0854879 23.3391 0 24.161V27.2824C0.0763284 27.8224 0.134338 28.3654 0.228985 28.9025C0.693062 31.5759 1.67007 34.0535 3.27907 36.2788C5.97499 40.0026 9.49831 42.4683 14.2734 42.9312C16.6274 43.1597 18.9233 42.8363 21.0392 41.7503C23.7076 40.3794 25.3288 38.1392 26.3272 35.4391C27.4538 32.3948 27.6736 29.2645 27.1516 26.0837H27.1485ZM5.61472 13.6929C5.56282 13.7967 5.38573 13.8412 5.26666 13.9154L5.14759 13.7937C5.47733 13.0846 5.80096 12.3695 6.15207 11.6722C6.19787 11.5832 6.39632 11.5713 6.63447 11.4823C6.25283 12.3191 5.94751 13.0134 5.61472 13.6958V13.6929ZM13.3331 32.3444C13.8216 33.1811 14.3131 34.0208 14.8382 34.9199C14.0627 34.6617 13.2903 33.3651 13.3331 32.3444Z" fill="#39E241"/>
<path d="M46.3038 24.1231C45.2138 21.0728 43.2628 18.6576 40.6066 16.7645C37.6756 14.6756 34.4026 13.5392 30.7419 13.5719C30.058 13.5778 29.3772 13.6638 28.6047 13.7202C28.794 13.1802 28.9009 12.655 29.1482 12.207C29.9237 10.7946 30.7358 9.403 31.5693 8.02328C32.2044 6.9729 32.9096 5.96704 33.5539 4.91963C34.0454 4.12147 33.8378 3.47463 33.0073 3.08296C32.128 2.66756 31.2396 2.27293 30.3633 1.85456C30.1954 1.77445 30.0397 1.64093 29.9176 1.50147C29.368 0.860566 28.5711 0.759683 27.9452 1.31454C25.5791 3.41529 23.5579 5.79494 22.0924 8.5722C21.4237 9.84214 20.7917 11.1685 21.0024 12.6817C21.0116 12.7559 20.9413 12.8449 20.9047 12.925C20.578 13.6342 20.7215 14.0852 21.4054 14.5095C21.5733 14.6133 21.7474 14.7083 21.9153 14.8121C26.8522 17.8742 29.3436 22.2716 29.4535 27.9388C29.4688 28.7578 29.255 29.5797 29.1757 30.4045C29.139 30.7724 29.252 31.1641 29.1573 31.5113C28.7665 32.9741 28.4215 34.4577 27.875 35.8671C27.3743 37.1667 26.6385 38.3802 26.0034 39.6294C25.5088 40.5997 26.0248 41.6263 27.1056 41.8459C28.623 42.1545 30.1527 42.3147 31.7037 42.2969C35.0346 42.2553 38.1244 41.4483 40.9241 39.6413C45.9313 36.41 48.2791 29.6509 46.3068 24.1231H46.3038ZM34.714 39.3119C34.2011 39.4187 33.6912 39.5256 33.1783 39.6294C33.1783 39.6086 33.1753 39.5849 33.1722 39.5641C33.5813 39.4069 33.9843 39.2377 34.3996 39.0953C34.4912 39.0627 34.6163 39.122 34.7293 39.1398C34.7263 39.1962 34.7202 39.2555 34.7171 39.3119H34.714Z" fill="#39E241"/>
</g>
<defs>
<clipPath id="clip0_201_10092">
<rect width="47" height="43" fill="white"/>
</clipPath>
</defs>
</svg>
