<svg width="47" height="43" viewBox="0 0 47 43" fill="none" xmlns="http://www.w3.org/2000/svg">
<g clip-path="url(#clip0_201_10095)">
<path d="M19.8515 16.9163C20.1996 19.0289 20.9537 20.9991 22.2726 22.723C24.9411 26.2035 28.6171 27.8325 33.0014 28.0224C34.3173 28.0787 35.6454 27.9363 36.9949 27.8829C36.9827 27.9511 36.9735 28.0817 36.943 28.2034C36.5247 29.9065 35.7309 31.4524 34.6317 32.8173C33.1754 34.6302 31.6183 36.369 30.107 38.1433C29.649 38.6804 29.1697 39.2056 28.7636 39.7782C28.382 40.3182 28.4247 40.9592 28.8369 41.2885C29.9757 42.2024 31.2519 42.7869 32.7785 42.7038C32.9006 42.6979 33.0838 42.7038 33.1449 42.778C33.3891 43.0718 33.6608 43.0243 33.9692 42.9175C35.7095 42.3211 37.1689 41.3122 38.436 40.0334C40.6037 37.8436 42.1364 35.2444 43.4645 32.5206C45.2017 28.963 46.31 25.2273 46.7466 21.3107C46.8382 20.4858 46.9145 19.6609 47 18.839L47 15.7176C46.9237 15.1776 46.8657 14.6346 46.771 14.0975C46.3069 11.4241 45.3299 8.94653 43.7209 6.72116C41.025 2.99738 37.5017 0.531676 32.7266 0.0687968C30.3726 -0.159673 28.0767 0.163744 25.9608 1.24972C23.2924 2.62055 21.6712 4.86075 20.6728 7.56086C19.5462 10.6052 19.3264 13.7355 19.8485 16.9163L19.8515 16.9163ZM41.3853 29.3071C41.4372 29.2033 41.6143 29.1588 41.7333 29.0846L41.8524 29.2063C41.5227 29.9154 41.199 30.6305 40.8479 31.3278C40.8021 31.4168 40.6037 31.4287 40.3655 31.5177C40.7472 30.6809 41.0525 29.9866 41.3853 29.3042L41.3853 29.3071ZM33.667 10.6556C33.1785 9.81887 32.6869 8.97916 32.1618 8.08011C32.9373 8.33826 33.7097 9.6349 33.667 10.6556Z" fill="#39E241"/>
<path d="M0.696245 18.8769C1.78621 21.9272 3.73717 24.3424 6.3934 26.2355C9.32441 28.3244 12.5974 29.4608 16.2581 29.4281C16.942 29.4222 17.6228 29.3362 18.3953 29.2798C18.206 29.8198 18.0991 30.345 17.8518 30.793C17.0763 32.2054 16.2642 33.597 15.4307 34.9767C14.7956 36.0271 14.0904 37.033 13.4461 38.0804C12.9546 38.8785 13.1622 39.5254 13.9927 39.917C14.872 40.3324 15.7604 40.7271 16.6367 41.1454C16.8046 41.2255 16.9603 41.3591 17.0824 41.4985C17.632 42.1394 18.4289 42.2403 19.0548 41.6855C21.4209 39.5847 23.4421 37.2051 24.9076 34.4278C25.5763 33.1579 26.2083 31.8315 25.9976 30.3183C25.9884 30.2441 26.0587 30.1551 26.0953 30.075C26.422 29.3658 26.2785 28.9148 25.5946 28.4905C25.4267 28.3867 25.2526 28.2917 25.0847 28.1879C20.1478 25.1258 17.6564 20.7284 17.5465 15.0612C17.5312 14.2422 17.745 13.4203 17.8243 12.5955C17.861 12.2275 17.748 11.8359 17.8427 11.4887C18.2335 10.0259 18.5785 8.54235 19.125 7.13295C19.6257 5.83333 20.3615 4.61977 20.9966 3.37059C21.4912 2.40034 20.9752 1.3737 19.8944 1.15413C18.377 0.845546 16.8473 0.685317 15.2964 0.70312C11.9654 0.744662 8.8756 1.55173 6.07588 3.35872C1.06873 6.58995 -1.27913 13.3491 0.693194 18.8769L0.696245 18.8769ZM12.286 3.68808C12.7989 3.58126 13.3088 3.47444 13.8217 3.37059C13.8217 3.39136 13.8247 3.4151 13.8278 3.43587C13.4187 3.59313 13.0157 3.76226 12.6004 3.90468C12.5088 3.93732 12.3837 3.87797 12.2707 3.86017C12.2737 3.8038 12.2799 3.74445 12.2829 3.68808L12.286 3.68808Z" fill="#39E241"/>
</g>
<defs>
<clipPath id="clip0_201_10095">
<rect width="47" height="43" fill="white" transform="translate(47 43) rotate(-180)"/>
</clipPath>
</defs>
</svg>
