<svg width="44" height="43" viewBox="0 0 44 43" fill="none" xmlns="http://www.w3.org/2000/svg">
<path d="M43 42L38.8 37.9M20.95 39.95C23.5699 39.95 26.1641 39.4463 28.5845 38.4676C31.005 37.4888 33.2043 36.0543 35.0568 34.2459C36.9093 32.4375 38.3788 30.2906 39.3814 27.9278C40.384 25.5649 40.9 23.0325 40.9 20.475C40.9 17.9175 40.384 15.3851 39.3814 13.0222C38.3788 10.6594 36.9093 8.51252 35.0568 6.70409C33.2043 4.89567 31.005 3.46116 28.5845 2.48245C26.1641 1.50374 23.5699 1 20.95 1C15.6589 1 10.5846 3.05182 6.84322 6.70409C3.10187 10.3564 1 15.3099 1 20.475C1 25.6401 3.10187 30.5936 6.84322 34.2459C10.5846 37.8982 15.6589 39.95 20.95 39.95Z" stroke="#39E241" stroke-width="1.5" stroke-linecap="round" stroke-linejoin="round"/>
</svg>
