<svg width="13" height="12" viewBox="0 0 13 12" fill="none" xmlns="http://www.w3.org/2000/svg">
<path fill-rule="evenodd" clip-rule="evenodd" d="M8.7884 8.11186C7.90652 8.92595 6.73324 9.37462 5.4857 9.37462C4.23816 9.37462 3.06577 8.92591 2.18389 8.11186C0.36278 6.43076 0.36278 3.69603 2.18389 2.01514C3.09437 1.17452 4.28958 0.754619 5.4857 0.754619C6.68181 0.754619 7.87792 1.1752 8.7884 2.01514C10.6095 3.6961 10.6095 6.43098 8.7884 8.11186ZM12.8805 11.3555L9.64153 8.36554C11.497 6.37707 11.4086 3.36676 9.3667 1.48124C7.22738 -0.493747 3.74474 -0.493747 1.60519 1.48124C-0.535062 3.45681 -0.535062 6.67099 1.60519 8.64605C2.64165 9.60283 4.01935 10.1301 5.48544 10.1301C6.81408 10.1301 8.0682 9.69346 9.06299 8.89977L12.302 11.8897C12.3822 11.9638 12.4869 12 12.5908 12C12.6955 12 12.8002 11.9638 12.8804 11.8897C13.0399 11.7424 13.0399 11.503 12.8804 11.3558" fill="#1E1E1E"/>
</svg>
