<svg width="21" height="22" viewBox="0 0 21 22" fill="none" xmlns="http://www.w3.org/2000/svg">
<path d="M19.25 20.1654L17.5 18.332M10.0625 19.2487C11.1541 19.2487 12.235 19.0235 13.2436 18.5858C14.2521 18.1482 15.1684 17.5067 15.9403 16.6981C16.7122 15.8894 17.3245 14.9294 17.7423 13.8729C18.16 12.8164 18.375 11.684 18.375 10.5404C18.375 9.39677 18.16 8.26437 17.7423 7.20783C17.3245 6.15129 16.7122 5.19129 15.9403 4.38264C15.1684 3.574 14.2521 2.93255 13.2436 2.49491C12.235 2.05728 11.1541 1.83203 10.0625 1.83203C7.85789 1.83203 5.74357 2.74951 4.18468 4.38264C2.62578 6.01577 1.75 8.23077 1.75 10.5404C1.75 12.85 2.62578 15.065 4.18468 16.6981C5.74357 18.3312 7.85789 19.2487 10.0625 19.2487V19.2487Z" stroke="#1E1E1E" stroke-width="1.5" stroke-linecap="round" stroke-linejoin="round"/>
</svg>
