<svg width="21" height="18" viewBox="0 0 21 18" fill="none" xmlns="http://www.w3.org/2000/svg">
<path d="M20.8663 7.71656L18.1271 4.87457C18.0416 4.7859 17.9255 4.73588 17.805 4.73588H14.6099V0.472906C14.6099 0.211444 14.4061 0 14.1541 0H0.455807C0.203798 0 0 0.211444 0 0.472906V12.7889C0 13.0504 0.203798 13.2618 0.455807 13.2618H2.52885C2.09277 13.7643 1.82542 14.4282 1.82542 15.1557C1.82542 16.7222 3.05478 17.9977 4.56465 17.9977C6.07451 17.9977 7.30387 16.7222 7.30387 15.1557C7.30387 14.4282 7.03652 13.7643 6.60044 13.2618H14.3996C13.9635 13.7643 13.6961 14.4282 13.6961 15.1557C13.6961 16.7222 14.9255 17.9977 16.4354 17.9977C17.9452 17.9977 19.1746 16.7222 19.1746 15.1557C19.1746 14.4282 18.9072 13.7643 18.4711 13.2618H20.5442C20.7962 13.2618 21 13.0504 21 12.7889V8.05305C21 7.928 20.9518 7.8075 20.8663 7.71883V7.71656ZM0.913806 0.948086H13.6961V12.316H0.913806V0.948086ZM6.39226 15.158C6.39226 16.2016 5.57268 17.0519 4.56684 17.0519C3.56099 17.0519 2.74142 16.2016 2.74142 15.158C2.74142 14.1144 3.56099 13.2641 4.56684 13.2641C5.57268 13.2641 6.39226 14.1144 6.39226 15.158ZM18.263 15.158C18.263 16.2016 17.4434 17.0519 16.4375 17.0519C15.4317 17.0519 14.6121 16.2016 14.6121 15.158C14.6121 14.1144 15.4317 13.2641 16.4375 13.2641C17.4434 13.2641 18.263 14.1144 18.263 15.158ZM20.0884 12.316H14.6099V5.68397H17.6165L20.0884 8.24858V12.316Z" fill="#1E1E1E"/>
</svg>
