<svg width="9" height="21" viewBox="0 0 9 21" fill="none" xmlns="http://www.w3.org/2000/svg">
<path d="M8.64098 10.3761C8.6365 10.5348 8.58704 10.6868 8.50029 10.8075L1.50185 20.4167L1.50199 20.4167C1.40065 20.5662 1.25212 20.6602 1.09017 20.6774C0.928226 20.6946 0.766939 20.6335 0.642949 20.5083C0.518944 20.3829 0.442932 20.2039 0.43244 20.0123C0.421804 19.8206 0.477464 19.6326 0.586674 19.4913L7.23268 10.3627L0.192376 1.53453C0.0770718 1.39822 0.0132116 1.2128 0.015422 1.02081C0.0174962 0.828994 0.0855759 0.646781 0.203957 0.516076C0.322342 0.385523 0.480795 0.317405 0.643326 0.327521C0.805871 0.337638 0.958375 0.424981 1.06619 0.569858L8.47968 9.86258C8.58932 10.0018 8.64744 10.1869 8.64112 10.3761L8.64098 10.3761Z" fill="white"/>
</svg>
