<svg width="9" height="21" viewBox="0 0 9 21" fill="none" xmlns="http://www.w3.org/2000/svg">
<path d="M0.222301 10.2198C0.226778 10.3786 0.276243 10.5305 0.362994 10.6513L7.36143 20.2605L7.36129 20.2605C7.46264 20.41 7.61116 20.5039 7.77311 20.5211C7.93506 20.5384 8.09634 20.4773 8.22033 20.3521C8.34434 20.2267 8.42035 20.0476 8.43084 19.8561C8.44148 19.6644 8.38582 19.4763 8.27661 19.3351L1.6306 10.2064L8.67091 1.37828C8.78621 1.24197 8.85007 1.05655 8.84786 0.864559C8.84579 0.672744 8.77771 0.490531 8.65932 0.359826C8.54094 0.229273 8.38249 0.161155 8.21996 0.171271C8.05741 0.181388 7.90491 0.268731 7.79709 0.413608L0.383604 9.70633C0.273961 9.84557 0.215838 10.0306 0.22216 10.2199L0.222301 10.2198Z" fill="white"/>
</svg>
