<svg width="18" height="22" viewBox="0 0 18 22" fill="none" xmlns="http://www.w3.org/2000/svg">
<g clip-path="url(#clip0_201_15679)">
<path d="M3.77018 22.0002C3.62622 21.9611 3.48071 21.9262 3.33831 21.882C2.27933 21.5566 1.53572 20.5667 1.48186 19.4118C1.47617 19.2905 1.47668 19.1687 1.47668 19.0468C1.47668 14.9602 1.47565 10.873 1.47927 6.78629C1.47927 6.62645 1.45286 6.53907 1.27783 6.47688C0.437903 6.17825 -0.0996115 5.28444 0.0174196 4.41992C0.143254 3.49321 0.873403 2.78802 1.79463 2.70784C1.97381 2.69242 2.15401 2.68369 2.33422 2.68317C3.0913 2.6806 3.84837 2.68214 4.62461 2.68214C4.63808 2.39791 4.64429 2.1219 4.665 1.84692C4.73957 0.837974 5.59556 0.0191997 6.67835 0.0114899C8.22875 0.00069631 9.77968 -0.00906936 11.3301 0.0145738C12.5252 0.0330772 13.3398 0.905306 13.3636 2.12858C13.3672 2.30025 13.3636 2.47141 13.3636 2.67084C13.4491 2.67495 13.5247 2.68112 13.6003 2.68112C14.3718 2.68163 15.1439 2.67392 15.9155 2.68369C16.8316 2.69499 17.5027 3.0959 17.8626 3.95065C18.2639 4.90358 17.7544 6.08831 16.7788 6.45529C16.5892 6.52673 16.5255 6.61514 16.5255 6.8197C16.5323 10.9136 16.5302 15.008 16.5312 19.1018C16.5312 19.954 16.2904 20.7096 15.653 21.3094C15.2879 21.6532 14.8545 21.866 14.3599 21.958C14.3201 21.9652 14.2823 21.9858 14.2434 22.0002H3.77018ZM2.51495 6.61257C2.51495 6.68915 2.51495 6.7462 2.51495 6.80274C2.51495 10.9187 2.51495 15.0352 2.5165 19.1512C2.5165 19.2935 2.52841 19.4375 2.55068 19.5788C2.6791 20.3981 3.31811 20.9666 4.13836 20.9681C7.38416 20.9727 10.6305 20.9707 13.8763 20.9691C14.2807 20.9691 14.6391 20.8376 14.9373 20.559C15.3687 20.156 15.4935 19.641 15.4935 19.0782C15.4935 15.0049 15.4935 10.9316 15.4935 6.85877V6.6136H2.51495V6.61257ZM8.99619 5.5697C11.2607 5.5697 13.5247 5.5697 15.7892 5.56918C15.9041 5.56918 16.0201 5.56661 16.1346 5.55428C16.6255 5.50031 16.9807 5.07319 16.945 4.58491C16.9061 4.05345 16.5095 3.71371 15.9098 3.71371C11.3088 3.71217 6.70839 3.71268 2.10741 3.71371C2.0142 3.71371 1.91995 3.72244 1.82778 3.73684C1.39228 3.80622 1.07018 4.17321 1.05154 4.61523C1.03393 5.0331 1.33687 5.4412 1.75114 5.53526C1.88992 5.56661 2.0375 5.56816 2.18094 5.56816C4.45269 5.57021 6.72392 5.5697 8.99567 5.5697H8.99619ZM12.3114 2.66929C12.3114 2.4087 12.3316 2.16508 12.3072 1.92608C12.2555 1.41158 11.8583 1.0446 11.3353 1.04203C9.77709 1.03432 8.21892 1.03432 6.66075 1.04203C6.17398 1.0446 5.77887 1.37611 5.70793 1.84898C5.66857 2.11265 5.70068 2.3866 5.70068 2.66878H12.3109L12.3114 2.66929Z" fill="#1E1E1E"/>
<path d="M6.4564 13.3448C6.4564 14.9043 6.4564 16.4642 6.4564 18.0236C6.4564 18.0879 6.45899 18.1526 6.45433 18.2169C6.43465 18.5181 6.23114 18.7273 5.95307 18.7355C5.69 18.7437 5.47562 18.5525 5.4285 18.2642C5.41918 18.2081 5.41918 18.1501 5.41918 18.093C5.41918 14.9382 5.41866 11.7828 5.41918 8.62802C5.41918 8.24973 5.57401 8.0318 5.86193 7.99376C6.15347 7.95521 6.39167 8.12277 6.44294 8.40957C6.45796 8.49335 6.45588 8.58073 6.45588 8.66605C6.4564 10.2255 6.45588 11.7854 6.45588 13.3448H6.4564Z" fill="#1E1E1E"/>
<path d="M8.48452 13.3442C8.48452 11.7632 8.484 10.1822 8.48452 8.60116C8.48452 8.23264 8.65385 8.01574 8.95161 7.99055C9.21881 7.96794 9.43268 8.11545 9.49171 8.37655C9.51501 8.47986 9.52123 8.58883 9.52123 8.69471C9.52278 11.8069 9.52278 14.9185 9.52123 18.0307C9.52123 18.1371 9.51398 18.2455 9.49016 18.3488C9.43682 18.5776 9.23745 18.7318 9.00805 18.7359C8.78072 18.74 8.57203 18.5889 8.51352 18.3627C8.48918 18.2676 8.48452 18.1648 8.48452 18.0656C8.48296 16.4918 8.48348 14.918 8.48348 13.3442H8.48452Z" fill="#1E1E1E"/>
<path d="M11.548 13.3432C11.548 11.7909 11.548 10.2387 11.5485 8.68598C11.5485 8.59346 11.549 8.4994 11.563 8.40792C11.6003 8.16172 11.81 7.98645 12.0586 7.98439C12.3009 7.98234 12.506 8.14065 12.5567 8.37759C12.5759 8.46754 12.5852 8.5616 12.5852 8.6536C12.5868 11.7868 12.5868 14.9201 12.5852 18.0533C12.5852 18.1525 12.5759 18.2538 12.5547 18.3504C12.5039 18.5791 12.2812 18.7436 12.0482 18.7349C11.811 18.7261 11.6024 18.5524 11.5651 18.3206C11.549 18.2224 11.549 18.1212 11.5485 18.0214C11.5475 16.462 11.548 14.9026 11.548 13.3432Z" fill="#1E1E1E"/>
</g>
<defs>
<clipPath id="clip0_201_15679">
<rect width="18" height="22" fill="white" transform="translate(0.000976562)"/>
</clipPath>
</defs>
</svg>
