<?xml version="1.0" encoding="utf-8"?>
<!-- Generator: Adobe Illustrator 27.3.1, SVG Export Plug-In . SVG Version: 6.00 Build 0)  -->
<svg version="1.1" id="Camada_1" xmlns="http://www.w3.org/2000/svg" xmlns:xlink="http://www.w3.org/1999/xlink" x="0px" y="0px"
	 viewBox="0 0 327.6 269.8" style="enable-background:new 0 0 327.6 269.8;" xml:space="preserve">
<path d="M326.3,72.8c-11.1-62-79.6-92.6-133.1-59.2c-11.3,7-20.6,16.1-29,27c-0.9-1.1-1.5-1.8-2.2-2.5c-6.9-6.8-13.3-14.3-21-20.2
	c-35.3-27.1-85-23.3-115.4,8.3C-0.1,53-6.9,94.2,8.5,130c9.8,22.8,24.9,42,42,59.7c27.4,28.4,58.6,52.1,91.8,73.2
	c14.8,9.4,30.2,8.8,44.9-0.6c22.3-14.3,43.7-29.9,63.8-47.2c22.2-19.2,42.7-39.9,58.4-64.9C324.1,126.3,331.4,101.1,326.3,72.8z"/>
</svg>
