<svg width="23" height="19" viewBox="0 0 23 19" fill="none" xmlns="http://www.w3.org/2000/svg">
<g clip-path="url(#clip0_201_10530)">
<path d="M11.5293 2.80376C11.9155 2.41477 12.3038 1.95768 12.758 1.57992C14.5636 0.0801462 16.6082 -0.416971 18.8462 0.370834C21.113 1.16847 22.4111 2.8508 22.8744 5.19175C23.2255 6.96607 22.8141 8.60206 21.9401 10.1468C20.9251 11.9415 19.5345 13.4188 18.0142 14.7837C16.4841 16.1571 14.8376 17.3796 13.1092 18.4882C12.0774 19.1497 10.9973 19.1813 9.96343 18.5191C7.6546 17.0411 5.48035 15.3862 3.57104 13.4054C2.36616 12.1556 1.27903 10.8117 0.612455 9.18835C-0.420702 6.67468 -0.173277 4.28809 1.5573 2.16972C3.60749 -0.339033 7.30484 -0.704148 9.89965 1.29766C10.4849 1.74914 10.9917 2.30243 11.5293 2.80376ZM1.3337 6.44788C1.32669 7.14301 1.47038 7.80723 1.72131 8.4511C2.26312 9.83854 3.14208 11.0034 4.13668 12.0868C6.02987 14.1476 8.23917 15.8236 10.569 17.3508C11.2041 17.7671 11.8286 17.7573 12.4594 17.3444C13.9636 16.3593 15.4152 15.3026 16.7729 14.1223C18.1733 12.9055 19.4777 11.5974 20.4849 10.0232C21.3436 8.68211 21.8756 7.25254 21.6113 5.62076C21.3092 3.75516 20.3448 2.37124 18.5728 1.67401C16.7974 0.975379 15.1509 1.34471 13.6706 2.51237C13.0229 3.02353 12.5302 3.67091 12.1005 4.37094C11.7893 4.87719 11.2391 4.87789 10.9139 4.38218C10.8613 4.30143 10.8122 4.21858 10.7604 4.13713C10.37 3.52767 9.90736 2.98281 9.35013 2.51799C7.66021 1.10879 5.37521 0.933251 3.56403 2.12549C2.02271 3.14009 1.38837 4.6518 1.333 6.44859L1.3337 6.44788Z" fill="#1E1E1E"/>
</g>
<defs>
<clipPath id="clip0_201_10530">
<rect width="23" height="19" fill="white"/>
</clipPath>
</defs>
</svg>
